<svg xmlns="http://www.w3.org/2000/svg" xmlns:xlink="http://www.w3.org/1999/xlink" width="40" zoomAndPan="magnify" viewBox="0 0 30 30.000001" height="40" preserveAspectRatio="xMidYMid meet" version="1.0"><defs><g/><clipPath id="fc46e31e67"><path d="M 0.484375 0 L 29.515625 0 L 29.515625 29.03125 L 0.484375 29.03125 Z M 0.484375 0 " clip-rule="nonzero"/></clipPath><clipPath id="252c9ebb07"><path d="M 10.5 10 L 14 10 L 14 13 L 10.5 13 Z M 10.5 10 " clip-rule="nonzero"/></clipPath><clipPath id="d442f71847"><path d="M 10.5 7 L 16 7 L 16 11 L 10.5 11 Z M 10.5 7 " clip-rule="nonzero"/></clipPath><clipPath id="1510148767"><path d="M 14 6.761719 L 19 6.761719 L 19 10 L 14 10 Z M 14 6.761719 " clip-rule="nonzero"/></clipPath><clipPath id="f34b4213e8"><path d="M 17 9 L 19.71875 9 L 19.71875 12 L 17 12 Z M 17 9 " clip-rule="nonzero"/></clipPath><clipPath id="127df52e71"><path d="M 15 11 L 19 11 L 19 14.632812 L 15 14.632812 Z M 15 11 " clip-rule="nonzero"/></clipPath><clipPath id="ec07162aa6"><path d="M 0.484375 15 L 4 15 L 4 18 L 0.484375 18 Z M 0.484375 15 " clip-rule="nonzero"/></clipPath><clipPath id="358c513498"><path d="M 27 15 L 29.515625 15 L 29.515625 18 L 27 18 Z M 27 15 " clip-rule="nonzero"/></clipPath></defs><g clip-path="url(#fc46e31e67)"><path fill="#ffffff" d="M 0.484375 0 L 29.515625 0 L 29.515625 29.03125 L 0.484375 29.03125 Z M 0.484375 0 " fill-opacity="1" fill-rule="nonzero"/><path fill="#ffffff" d="M 0.484375 0 L 29.515625 0 L 29.515625 29.03125 L 0.484375 29.03125 Z M 0.484375 0 " fill-opacity="1" fill-rule="nonzero"/></g><g clip-path="url(#252c9ebb07)"><path fill="#38b6ff" d="M 12.757812 10.824219 C 12.257812 10.957031 11.710938 10.957031 11.199219 10.964844 C 11.054688 10.96875 10.914062 10.96875 10.769531 10.972656 C 10.988281 11.242188 11.320312 11.414062 11.695312 11.414062 C 11.710938 11.414062 11.722656 11.414062 11.738281 11.414062 C 11.875 11.914062 12.335938 12.28125 12.882812 12.28125 C 12.972656 12.28125 13.0625 12.273438 13.148438 12.253906 C 13.109375 11.820312 13.136719 11.335938 13.320312 10.945312 C 13.398438 10.777344 13.515625 10.636719 13.652344 10.53125 C 13.351562 10.621094 13.0625 10.742188 12.757812 10.824219 " fill-opacity="1" fill-rule="nonzero"/></g><g clip-path="url(#d442f71847)"><path fill="#004aad" d="M 15.371094 9.367188 C 15.351562 9.257812 15.328125 9.15625 15.269531 9.066406 C 15.242188 9.023438 15.242188 9.015625 15.210938 8.984375 C 15.179688 8.953125 15.15625 8.929688 15.140625 8.917969 C 14.980469 8.8125 14.789062 8.773438 14.585938 8.746094 C 14.375 8.714844 14.121094 8.71875 13.988281 8.523438 C 13.867188 8.347656 13.898438 8.085938 13.855469 7.886719 C 13.839844 7.828125 13.824219 7.769531 13.804688 7.71875 C 13.59375 7.523438 13.3125 7.40625 13.003906 7.40625 C 12.347656 7.40625 11.816406 7.9375 11.816406 8.59375 C 11.816406 8.757812 11.851562 8.917969 11.914062 9.0625 C 11.84375 9.046875 11.769531 9.039062 11.695312 9.039062 C 11.039062 9.039062 10.507812 9.570312 10.507812 10.226562 C 10.507812 10.34375 10.523438 10.453125 10.554688 10.558594 C 10.8125 10.554688 11.074219 10.550781 11.332031 10.546875 C 11.8125 10.535156 12.316406 10.53125 12.78125 10.382812 C 13.132812 10.269531 13.480469 10.125 13.847656 10.050781 C 14.203125 9.976562 14.585938 9.957031 14.882812 10.199219 C 14.90625 10.195312 14.929688 10.191406 14.953125 10.183594 C 15.054688 10.160156 15.113281 10.140625 15.1875 10.097656 C 15.242188 10.0625 15.285156 10.027344 15.3125 9.976562 C 15.351562 9.910156 15.378906 9.824219 15.386719 9.730469 C 15.394531 9.609375 15.394531 9.484375 15.371094 9.367188 " fill-opacity="1" fill-rule="nonzero"/></g><g clip-path="url(#1510148767)"><path fill="#38b6ff" d="M 14.292969 8.027344 C 14.308594 8.125 14.304688 8.199219 14.332031 8.285156 C 14.335938 8.289062 14.339844 8.289062 14.339844 8.289062 C 14.355469 8.292969 14.367188 8.296875 14.382812 8.300781 C 14.496094 8.324219 14.609375 8.332031 14.722656 8.347656 C 14.925781 8.378906 15.136719 8.425781 15.3125 8.535156 C 15.613281 8.726562 15.761719 9.054688 15.796875 9.402344 C 16.636719 9.398438 17.527344 9.289062 18.152344 8.675781 C 18.164062 8.660156 18.179688 8.652344 18.195312 8.640625 C 18.195312 8.625 18.199219 8.609375 18.199219 8.59375 C 18.199219 7.9375 17.667969 7.40625 17.011719 7.40625 C 16.71875 7.40625 16.449219 7.511719 16.242188 7.6875 C 16.125 7.15625 15.652344 6.761719 15.085938 6.761719 C 14.660156 6.761719 14.285156 6.984375 14.078125 7.320312 C 14.136719 7.417969 14.183594 7.519531 14.21875 7.628906 C 14.257812 7.757812 14.277344 7.890625 14.292969 8.027344 " fill-opacity="1" fill-rule="nonzero"/></g><path fill="#5271ff" d="M 18.769531 11.609375 C 18.746094 11.441406 18.71875 11.246094 18.597656 11.109375 C 18.359375 10.835938 18.019531 10.710938 17.671875 10.679688 C 17.671875 10.753906 17.675781 10.828125 17.675781 10.902344 C 17.675781 11.171875 17.257812 11.171875 17.257812 10.902344 C 17.257812 10.632812 17.257812 10.367188 17.15625 10.113281 C 17.074219 9.90625 16.886719 9.789062 16.632812 9.769531 C 16.628906 9.769531 16.621094 9.769531 16.617188 9.769531 C 16.34375 9.804688 16.066406 9.816406 15.792969 9.816406 C 15.792969 9.824219 15.792969 9.832031 15.789062 9.84375 C 15.726562 10.296875 15.375 10.535156 14.945312 10.609375 C 14.714844 10.648438 14.472656 10.648438 14.246094 10.703125 C 14.0625 10.746094 13.882812 10.835938 13.785156 10.972656 C 13.667969 11.140625 13.609375 11.320312 13.582031 11.53125 C 13.554688 11.714844 13.546875 11.910156 13.554688 12.101562 C 13.769531 12.296875 14.050781 12.414062 14.359375 12.414062 C 14.792969 12.414062 15.171875 12.183594 15.378906 11.835938 C 15.589844 12.03125 15.875 12.152344 16.1875 12.152344 C 16.335938 12.152344 16.480469 12.125 16.613281 12.074219 C 16.8125 12.453125 17.207031 12.714844 17.667969 12.714844 C 18.210938 12.714844 18.667969 12.347656 18.808594 11.847656 C 18.792969 11.769531 18.78125 11.691406 18.769531 11.609375 " fill-opacity="1" fill-rule="nonzero"/><g clip-path="url(#f34b4213e8)"><path fill="#004aad" d="M 18.492188 9.039062 C 18.449219 9.039062 18.40625 9.042969 18.363281 9.046875 C 18.054688 9.324219 17.699219 9.503906 17.316406 9.621094 C 17.398438 9.699219 17.46875 9.792969 17.519531 9.910156 C 17.570312 10.023438 17.601562 10.140625 17.625 10.261719 C 18.066406 10.285156 18.523438 10.429688 18.839844 10.757812 C 18.972656 10.894531 19.0625 11.054688 19.117188 11.234375 C 19.453125 11.027344 19.675781 10.652344 19.675781 10.226562 C 19.675781 9.570312 19.144531 9.039062 18.492188 9.039062 " fill-opacity="1" fill-rule="nonzero"/></g><g clip-path="url(#127df52e71)"><path fill="#5271ff" d="M 15.777344 12.082031 C 15.777344 12.082031 15.953125 12.195312 16.355469 12.246094 C 16.761719 12.292969 16.90625 12.710938 16.953125 12.855469 C 16.996094 13 17.199219 13.746094 17.71875 14.191406 C 18.242188 14.636719 18.207031 14.265625 18.402344 14.164062 C 18.597656 14.058594 18.523438 13.898438 18.367188 13.765625 C 18.210938 13.632812 18.085938 13.128906 18.195312 12.867188 C 18.304688 12.609375 18.320312 12.550781 18.453125 12.414062 C 18.582031 12.28125 16.242188 11.335938 15.777344 12.082031 " fill-opacity="1" fill-rule="nonzero"/></g><g clip-path="url(#ec07162aa6)"><g fill="#000000" fill-opacity="1"><g transform="translate(0.831532, 17.348062)"><g><path d="M 1.8125 -0.53125 L 0.65625 -0.53125 L 0.421875 0 L -0.015625 0 L 1.03125 -2.3125 L 1.453125 -2.3125 L 2.5 0 L 2.046875 0 Z M 1.671875 -0.875 L 1.234375 -1.890625 L 0.796875 -0.875 Z M 1.671875 -0.875 "/></g></g></g></g><g fill="#000000" fill-opacity="1"><g transform="translate(3.309501, 17.348062)"><g><path d="M 1.28125 -1.78125 C 1.5 -1.78125 1.675781 -1.710938 1.8125 -1.578125 C 1.945312 -1.453125 2.015625 -1.265625 2.015625 -1.015625 L 2.015625 0 L 1.59375 0 L 1.59375 -0.953125 C 1.59375 -1.109375 1.554688 -1.222656 1.484375 -1.296875 C 1.410156 -1.378906 1.304688 -1.421875 1.171875 -1.421875 C 1.023438 -1.421875 0.90625 -1.375 0.8125 -1.28125 C 0.726562 -1.195312 0.6875 -1.066406 0.6875 -0.890625 L 0.6875 0 L 0.265625 0 L 0.265625 -1.765625 L 0.671875 -1.765625 L 0.671875 -1.546875 C 0.734375 -1.617188 0.816406 -1.675781 0.921875 -1.71875 C 1.023438 -1.757812 1.144531 -1.78125 1.28125 -1.78125 Z M 1.28125 -1.78125 "/></g></g></g><g fill="#000000" fill-opacity="1"><g transform="translate(5.575735, 17.348062)"><g><path d="M 2 -2.453125 L 2 0 L 1.609375 0 L 1.609375 -0.234375 C 1.535156 -0.148438 1.445312 -0.0859375 1.34375 -0.046875 C 1.25 -0.00390625 1.140625 0.015625 1.015625 0.015625 C 0.847656 0.015625 0.695312 -0.0195312 0.5625 -0.09375 C 0.425781 -0.164062 0.316406 -0.269531 0.234375 -0.40625 C 0.160156 -0.539062 0.125 -0.703125 0.125 -0.890625 C 0.125 -1.066406 0.160156 -1.222656 0.234375 -1.359375 C 0.316406 -1.492188 0.425781 -1.597656 0.5625 -1.671875 C 0.695312 -1.742188 0.847656 -1.78125 1.015625 -1.78125 C 1.140625 -1.78125 1.25 -1.757812 1.34375 -1.71875 C 1.4375 -1.6875 1.519531 -1.628906 1.59375 -1.546875 L 1.59375 -2.453125 Z M 1.0625 -0.328125 C 1.164062 -0.328125 1.253906 -0.347656 1.328125 -0.390625 C 1.410156 -0.441406 1.472656 -0.507812 1.515625 -0.59375 C 1.566406 -0.675781 1.59375 -0.773438 1.59375 -0.890625 C 1.59375 -0.992188 1.566406 -1.085938 1.515625 -1.171875 C 1.472656 -1.253906 1.410156 -1.316406 1.328125 -1.359375 C 1.253906 -1.410156 1.164062 -1.4375 1.0625 -1.4375 C 0.96875 -1.4375 0.878906 -1.410156 0.796875 -1.359375 C 0.722656 -1.316406 0.660156 -1.253906 0.609375 -1.171875 C 0.566406 -1.085938 0.546875 -0.992188 0.546875 -0.890625 C 0.546875 -0.773438 0.566406 -0.675781 0.609375 -0.59375 C 0.660156 -0.507812 0.722656 -0.441406 0.796875 -0.390625 C 0.878906 -0.347656 0.96875 -0.328125 1.0625 -0.328125 Z M 1.0625 -0.328125 "/></g></g></g><g fill="#000000" fill-opacity="1"><g transform="translate(7.848586, 17.348062)"><g><path d="M 1.9375 -0.875 C 1.9375 -0.84375 1.929688 -0.800781 1.921875 -0.75 L 0.546875 -0.75 C 0.566406 -0.625 0.628906 -0.519531 0.734375 -0.4375 C 0.835938 -0.363281 0.960938 -0.328125 1.109375 -0.328125 C 1.304688 -0.328125 1.46875 -0.390625 1.59375 -0.515625 L 1.8125 -0.265625 C 1.738281 -0.171875 1.640625 -0.0976562 1.515625 -0.046875 C 1.390625 -0.00390625 1.253906 0.015625 1.109375 0.015625 C 0.910156 0.015625 0.738281 -0.0195312 0.59375 -0.09375 C 0.445312 -0.164062 0.332031 -0.269531 0.25 -0.40625 C 0.164062 -0.550781 0.125 -0.710938 0.125 -0.890625 C 0.125 -1.054688 0.160156 -1.207031 0.234375 -1.34375 C 0.316406 -1.488281 0.425781 -1.597656 0.5625 -1.671875 C 0.707031 -1.742188 0.867188 -1.78125 1.046875 -1.78125 C 1.210938 -1.78125 1.363281 -1.742188 1.5 -1.671875 C 1.632812 -1.597656 1.738281 -1.488281 1.8125 -1.34375 C 1.894531 -1.207031 1.9375 -1.050781 1.9375 -0.875 Z M 1.046875 -1.453125 C 0.910156 -1.453125 0.796875 -1.410156 0.703125 -1.328125 C 0.609375 -1.253906 0.550781 -1.15625 0.53125 -1.03125 L 1.546875 -1.03125 C 1.523438 -1.15625 1.46875 -1.253906 1.375 -1.328125 C 1.289062 -1.410156 1.179688 -1.453125 1.046875 -1.453125 Z M 1.046875 -1.453125 "/></g></g></g><g fill="#000000" fill-opacity="1"><g transform="translate(9.906392, 17.348062)"><g><path d="M 0.671875 -1.515625 C 0.785156 -1.691406 0.992188 -1.78125 1.296875 -1.78125 L 1.296875 -1.390625 C 1.265625 -1.398438 1.234375 -1.40625 1.203125 -1.40625 C 1.035156 -1.40625 0.90625 -1.359375 0.8125 -1.265625 C 0.726562 -1.171875 0.6875 -1.035156 0.6875 -0.859375 L 0.6875 0 L 0.265625 0 L 0.265625 -1.765625 L 0.671875 -1.765625 Z M 0.671875 -1.515625 "/></g></g></g><g fill="#000000" fill-opacity="1"><g transform="translate(11.295908, 17.348062)"><g><path d="M 0.8125 0.015625 C 0.675781 0.015625 0.535156 0 0.390625 -0.03125 C 0.253906 -0.0703125 0.144531 -0.117188 0.0625 -0.171875 L 0.234375 -0.484375 C 0.304688 -0.429688 0.398438 -0.390625 0.515625 -0.359375 C 0.628906 -0.328125 0.738281 -0.3125 0.84375 -0.3125 C 1.09375 -0.3125 1.21875 -0.378906 1.21875 -0.515625 C 1.21875 -0.578125 1.1875 -0.617188 1.125 -0.640625 C 1.0625 -0.660156 0.957031 -0.679688 0.8125 -0.703125 C 0.664062 -0.722656 0.546875 -0.75 0.453125 -0.78125 C 0.367188 -0.8125 0.289062 -0.863281 0.21875 -0.9375 C 0.15625 -1.007812 0.125 -1.109375 0.125 -1.234375 C 0.125 -1.398438 0.191406 -1.53125 0.328125 -1.625 C 0.472656 -1.726562 0.664062 -1.78125 0.90625 -1.78125 C 1.019531 -1.78125 1.140625 -1.765625 1.265625 -1.734375 C 1.390625 -1.710938 1.488281 -1.679688 1.5625 -1.640625 L 1.40625 -1.328125 C 1.25 -1.410156 1.078125 -1.453125 0.890625 -1.453125 C 0.773438 -1.453125 0.6875 -1.429688 0.625 -1.390625 C 0.5625 -1.359375 0.53125 -1.3125 0.53125 -1.25 C 0.53125 -1.1875 0.5625 -1.140625 0.625 -1.109375 C 0.695312 -1.085938 0.800781 -1.0625 0.9375 -1.03125 C 1.082031 -1.007812 1.195312 -0.984375 1.28125 -0.953125 C 1.375 -0.929688 1.453125 -0.882812 1.515625 -0.8125 C 1.585938 -0.75 1.625 -0.648438 1.625 -0.515625 C 1.625 -0.359375 1.550781 -0.226562 1.40625 -0.125 C 1.257812 -0.03125 1.0625 0.015625 0.8125 0.015625 Z M 0.8125 0.015625 "/></g></g></g><g fill="#000000" fill-opacity="1"><g transform="translate(12.999718, 17.348062)"><g><path d="M 1.0625 0.015625 C 0.882812 0.015625 0.722656 -0.0195312 0.578125 -0.09375 C 0.441406 -0.164062 0.332031 -0.269531 0.25 -0.40625 C 0.164062 -0.550781 0.125 -0.710938 0.125 -0.890625 C 0.125 -1.054688 0.164062 -1.207031 0.25 -1.34375 C 0.332031 -1.488281 0.441406 -1.597656 0.578125 -1.671875 C 0.722656 -1.742188 0.882812 -1.78125 1.0625 -1.78125 C 1.25 -1.78125 1.410156 -1.742188 1.546875 -1.671875 C 1.691406 -1.597656 1.804688 -1.488281 1.890625 -1.34375 C 1.972656 -1.207031 2.015625 -1.054688 2.015625 -0.890625 C 2.015625 -0.710938 1.972656 -0.550781 1.890625 -0.40625 C 1.804688 -0.269531 1.691406 -0.164062 1.546875 -0.09375 C 1.410156 -0.0195312 1.25 0.015625 1.0625 0.015625 Z M 1.0625 -0.328125 C 1.21875 -0.328125 1.34375 -0.378906 1.4375 -0.484375 C 1.539062 -0.585938 1.59375 -0.722656 1.59375 -0.890625 C 1.59375 -1.054688 1.539062 -1.1875 1.4375 -1.28125 C 1.34375 -1.382812 1.21875 -1.4375 1.0625 -1.4375 C 0.914062 -1.4375 0.789062 -1.382812 0.6875 -1.28125 C 0.59375 -1.1875 0.546875 -1.054688 0.546875 -0.890625 C 0.546875 -0.722656 0.59375 -0.585938 0.6875 -0.484375 C 0.789062 -0.378906 0.914062 -0.328125 1.0625 -0.328125 Z M 1.0625 -0.328125 "/></g></g></g><g fill="#000000" fill-opacity="1"><g transform="translate(15.133617, 17.348062)"><g><path d="M 1.28125 -1.78125 C 1.5 -1.78125 1.675781 -1.710938 1.8125 -1.578125 C 1.945312 -1.453125 2.015625 -1.265625 2.015625 -1.015625 L 2.015625 0 L 1.59375 0 L 1.59375 -0.953125 C 1.59375 -1.109375 1.554688 -1.222656 1.484375 -1.296875 C 1.410156 -1.378906 1.304688 -1.421875 1.171875 -1.421875 C 1.023438 -1.421875 0.90625 -1.375 0.8125 -1.28125 C 0.726562 -1.195312 0.6875 -1.066406 0.6875 -0.890625 L 0.6875 0 L 0.265625 0 L 0.265625 -1.765625 L 0.671875 -1.765625 L 0.671875 -1.546875 C 0.734375 -1.617188 0.816406 -1.675781 0.921875 -1.71875 C 1.023438 -1.757812 1.144531 -1.78125 1.28125 -1.78125 Z M 1.28125 -1.78125 "/></g></g></g><g fill="#000000" fill-opacity="1"><g transform="translate(17.399851, 17.348062)"><g/></g></g><g fill="#000000" fill-opacity="1"><g transform="translate(18.312961, 17.348062)"><g><path d="M 1.390625 0.03125 C 1.148438 0.03125 0.9375 -0.0195312 0.75 -0.125 C 0.5625 -0.226562 0.410156 -0.367188 0.296875 -0.546875 C 0.191406 -0.722656 0.140625 -0.925781 0.140625 -1.15625 C 0.140625 -1.382812 0.191406 -1.585938 0.296875 -1.765625 C 0.410156 -1.953125 0.5625 -2.097656 0.75 -2.203125 C 0.9375 -2.304688 1.148438 -2.359375 1.390625 -2.359375 C 1.578125 -2.359375 1.75 -2.320312 1.90625 -2.25 C 2.0625 -2.1875 2.195312 -2.09375 2.3125 -1.96875 L 2.03125 -1.703125 C 1.863281 -1.878906 1.65625 -1.96875 1.40625 -1.96875 C 1.25 -1.96875 1.109375 -1.929688 0.984375 -1.859375 C 0.859375 -1.796875 0.757812 -1.703125 0.6875 -1.578125 C 0.613281 -1.453125 0.578125 -1.3125 0.578125 -1.15625 C 0.578125 -1 0.613281 -0.859375 0.6875 -0.734375 C 0.757812 -0.609375 0.859375 -0.507812 0.984375 -0.4375 C 1.109375 -0.375 1.25 -0.34375 1.40625 -0.34375 C 1.65625 -0.34375 1.863281 -0.4375 2.03125 -0.625 L 2.3125 -0.359375 C 2.195312 -0.234375 2.0625 -0.132812 1.90625 -0.0625 C 1.75 0 1.578125 0.03125 1.390625 0.03125 Z M 1.390625 0.03125 "/></g></g></g><g fill="#000000" fill-opacity="1"><g transform="translate(20.718145, 17.348062)"><g><path d="M 0.953125 -1.78125 C 1.210938 -1.78125 1.410156 -1.71875 1.546875 -1.59375 C 1.679688 -1.476562 1.75 -1.289062 1.75 -1.03125 L 1.75 0 L 1.359375 0 L 1.359375 -0.21875 C 1.304688 -0.132812 1.234375 -0.0703125 1.140625 -0.03125 C 1.046875 0 0.9375 0.015625 0.8125 0.015625 C 0.675781 0.015625 0.554688 -0.00390625 0.453125 -0.046875 C 0.359375 -0.0859375 0.28125 -0.148438 0.21875 -0.234375 C 0.164062 -0.316406 0.140625 -0.40625 0.140625 -0.5 C 0.140625 -0.664062 0.195312 -0.796875 0.3125 -0.890625 C 0.4375 -0.984375 0.625 -1.03125 0.875 -1.03125 L 1.34375 -1.03125 L 1.34375 -1.0625 C 1.34375 -1.1875 1.300781 -1.28125 1.21875 -1.34375 C 1.144531 -1.40625 1.035156 -1.4375 0.890625 -1.4375 C 0.796875 -1.4375 0.695312 -1.421875 0.59375 -1.390625 C 0.5 -1.359375 0.421875 -1.316406 0.359375 -1.265625 L 0.203125 -1.5625 C 0.296875 -1.632812 0.40625 -1.6875 0.53125 -1.71875 C 0.664062 -1.757812 0.804688 -1.78125 0.953125 -1.78125 Z M 0.890625 -0.28125 C 0.992188 -0.28125 1.082031 -0.300781 1.15625 -0.34375 C 1.238281 -0.394531 1.300781 -0.460938 1.34375 -0.546875 L 1.34375 -0.765625 L 0.90625 -0.765625 C 0.664062 -0.765625 0.546875 -0.679688 0.546875 -0.515625 C 0.546875 -0.441406 0.578125 -0.382812 0.640625 -0.34375 C 0.703125 -0.300781 0.785156 -0.28125 0.890625 -0.28125 Z M 0.890625 -0.28125 "/></g></g></g><g fill="#000000" fill-opacity="1"><g transform="translate(22.726324, 17.348062)"><g><path d="M 0.8125 0.015625 C 0.675781 0.015625 0.535156 0 0.390625 -0.03125 C 0.253906 -0.0703125 0.144531 -0.117188 0.0625 -0.171875 L 0.234375 -0.484375 C 0.304688 -0.429688 0.398438 -0.390625 0.515625 -0.359375 C 0.628906 -0.328125 0.738281 -0.3125 0.84375 -0.3125 C 1.09375 -0.3125 1.21875 -0.378906 1.21875 -0.515625 C 1.21875 -0.578125 1.1875 -0.617188 1.125 -0.640625 C 1.0625 -0.660156 0.957031 -0.679688 0.8125 -0.703125 C 0.664062 -0.722656 0.546875 -0.75 0.453125 -0.78125 C 0.367188 -0.8125 0.289062 -0.863281 0.21875 -0.9375 C 0.15625 -1.007812 0.125 -1.109375 0.125 -1.234375 C 0.125 -1.398438 0.191406 -1.53125 0.328125 -1.625 C 0.472656 -1.726562 0.664062 -1.78125 0.90625 -1.78125 C 1.019531 -1.78125 1.140625 -1.765625 1.265625 -1.734375 C 1.390625 -1.710938 1.488281 -1.679688 1.5625 -1.640625 L 1.40625 -1.328125 C 1.25 -1.410156 1.078125 -1.453125 0.890625 -1.453125 C 0.773438 -1.453125 0.6875 -1.429688 0.625 -1.390625 C 0.5625 -1.359375 0.53125 -1.3125 0.53125 -1.25 C 0.53125 -1.1875 0.5625 -1.140625 0.625 -1.109375 C 0.695312 -1.085938 0.800781 -1.0625 0.9375 -1.03125 C 1.082031 -1.007812 1.195312 -0.984375 1.28125 -0.953125 C 1.375 -0.929688 1.453125 -0.882812 1.515625 -0.8125 C 1.585938 -0.75 1.625 -0.648438 1.625 -0.515625 C 1.625 -0.359375 1.550781 -0.226562 1.40625 -0.125 C 1.257812 -0.03125 1.0625 0.015625 0.8125 0.015625 Z M 0.8125 0.015625 "/></g></g></g><g fill="#000000" fill-opacity="1"><g transform="translate(24.430133, 17.348062)"><g><path d="M 1.328125 -0.09375 C 1.285156 -0.0507812 1.226562 -0.0195312 1.15625 0 C 1.082031 0.0078125 1.007812 0.015625 0.9375 0.015625 C 0.738281 0.015625 0.585938 -0.03125 0.484375 -0.125 C 0.378906 -0.226562 0.328125 -0.378906 0.328125 -0.578125 L 0.328125 -1.421875 L 0.03125 -1.421875 L 0.03125 -1.75 L 0.328125 -1.75 L 0.328125 -2.15625 L 0.734375 -2.15625 L 0.734375 -1.75 L 1.21875 -1.75 L 1.21875 -1.421875 L 0.734375 -1.421875 L 0.734375 -0.578125 C 0.734375 -0.492188 0.753906 -0.425781 0.796875 -0.375 C 0.847656 -0.332031 0.910156 -0.3125 0.984375 -0.3125 C 1.078125 -0.3125 1.15625 -0.335938 1.21875 -0.390625 Z M 1.328125 -0.09375 "/></g></g></g><g fill="#000000" fill-opacity="1"><g transform="translate(25.832882, 17.348062)"><g><path d="M 0.671875 -1.515625 C 0.785156 -1.691406 0.992188 -1.78125 1.296875 -1.78125 L 1.296875 -1.390625 C 1.265625 -1.398438 1.234375 -1.40625 1.203125 -1.40625 C 1.035156 -1.40625 0.90625 -1.359375 0.8125 -1.265625 C 0.726562 -1.171875 0.6875 -1.035156 0.6875 -0.859375 L 0.6875 0 L 0.265625 0 L 0.265625 -1.765625 L 0.671875 -1.765625 Z M 0.671875 -1.515625 "/></g></g></g><g clip-path="url(#358c513498)"><g fill="#000000" fill-opacity="1"><g transform="translate(27.222398, 17.348062)"><g><path d="M 1.0625 0.015625 C 0.882812 0.015625 0.722656 -0.0195312 0.578125 -0.09375 C 0.441406 -0.164062 0.332031 -0.269531 0.25 -0.40625 C 0.164062 -0.550781 0.125 -0.710938 0.125 -0.890625 C 0.125 -1.054688 0.164062 -1.207031 0.25 -1.34375 C 0.332031 -1.488281 0.441406 -1.597656 0.578125 -1.671875 C 0.722656 -1.742188 0.882812 -1.78125 1.0625 -1.78125 C 1.25 -1.78125 1.410156 -1.742188 1.546875 -1.671875 C 1.691406 -1.597656 1.804688 -1.488281 1.890625 -1.34375 C 1.972656 -1.207031 2.015625 -1.054688 2.015625 -0.890625 C 2.015625 -0.710938 1.972656 -0.550781 1.890625 -0.40625 C 1.804688 -0.269531 1.691406 -0.164062 1.546875 -0.09375 C 1.410156 -0.0195312 1.25 0.015625 1.0625 0.015625 Z M 1.0625 -0.328125 C 1.21875 -0.328125 1.34375 -0.378906 1.4375 -0.484375 C 1.539062 -0.585938 1.59375 -0.722656 1.59375 -0.890625 C 1.59375 -1.054688 1.539062 -1.1875 1.4375 -1.28125 C 1.34375 -1.382812 1.21875 -1.4375 1.0625 -1.4375 C 0.914062 -1.4375 0.789062 -1.382812 0.6875 -1.28125 C 0.59375 -1.1875 0.546875 -1.054688 0.546875 -0.890625 C 0.546875 -0.722656 0.59375 -0.585938 0.6875 -0.484375 C 0.789062 -0.378906 0.914062 -0.328125 1.0625 -0.328125 Z M 1.0625 -0.328125 "/></g></g></g></g><g fill="#004aad" fill-opacity="1"><g transform="translate(8.475415, 19.498987)"><g><path d="M 0.828125 -0.6875 C 0.828125 -0.632812 0.8125 -0.582031 0.78125 -0.53125 C 0.757812 -0.488281 0.71875 -0.453125 0.65625 -0.421875 C 0.601562 -0.390625 0.539062 -0.375 0.46875 -0.375 L 0.296875 -0.375 L 0.296875 0 L 0.09375 0 L 0.09375 -1 L 0.46875 -1 C 0.539062 -1 0.601562 -0.984375 0.65625 -0.953125 C 0.707031 -0.921875 0.75 -0.882812 0.78125 -0.84375 C 0.8125 -0.800781 0.828125 -0.75 0.828125 -0.6875 Z M 0.453125 -0.546875 C 0.503906 -0.546875 0.539062 -0.554688 0.5625 -0.578125 C 0.59375 -0.597656 0.609375 -0.632812 0.609375 -0.6875 C 0.609375 -0.78125 0.554688 -0.828125 0.453125 -0.828125 L 0.296875 -0.828125 L 0.296875 -0.546875 Z M 0.453125 -0.546875 "/></g></g></g><g fill="#004aad" fill-opacity="1"><g transform="translate(9.956008, 19.498987)"><g><path d="M 0.4375 0.015625 C 0.375 0.015625 0.3125 0.00390625 0.25 -0.015625 C 0.195312 -0.046875 0.15625 -0.0820312 0.125 -0.125 C 0.09375 -0.164062 0.078125 -0.21875 0.078125 -0.28125 L 0.28125 -0.28125 C 0.289062 -0.238281 0.304688 -0.207031 0.328125 -0.1875 C 0.359375 -0.164062 0.394531 -0.15625 0.4375 -0.15625 C 0.476562 -0.15625 0.507812 -0.164062 0.53125 -0.1875 C 0.5625 -0.207031 0.578125 -0.238281 0.578125 -0.28125 C 0.578125 -0.300781 0.566406 -0.320312 0.546875 -0.34375 C 0.535156 -0.363281 0.515625 -0.378906 0.484375 -0.390625 C 0.460938 -0.398438 0.425781 -0.410156 0.375 -0.421875 C 0.3125 -0.441406 0.257812 -0.460938 0.21875 -0.484375 C 0.175781 -0.503906 0.140625 -0.53125 0.109375 -0.5625 C 0.0859375 -0.601562 0.078125 -0.65625 0.078125 -0.71875 C 0.078125 -0.78125 0.0859375 -0.832031 0.109375 -0.875 C 0.140625 -0.914062 0.179688 -0.945312 0.234375 -0.96875 C 0.296875 -0.988281 0.359375 -1 0.421875 -1 C 0.523438 -1 0.609375 -0.972656 0.671875 -0.921875 C 0.734375 -0.878906 0.769531 -0.8125 0.78125 -0.71875 L 0.5625 -0.71875 C 0.5625 -0.757812 0.546875 -0.789062 0.515625 -0.8125 C 0.492188 -0.832031 0.457031 -0.84375 0.40625 -0.84375 C 0.375 -0.84375 0.34375 -0.832031 0.3125 -0.8125 C 0.289062 -0.789062 0.28125 -0.757812 0.28125 -0.71875 C 0.28125 -0.695312 0.285156 -0.675781 0.296875 -0.65625 C 0.316406 -0.632812 0.335938 -0.617188 0.359375 -0.609375 C 0.390625 -0.597656 0.429688 -0.585938 0.484375 -0.578125 C 0.546875 -0.554688 0.597656 -0.535156 0.640625 -0.515625 C 0.679688 -0.503906 0.71875 -0.476562 0.75 -0.4375 C 0.78125 -0.394531 0.796875 -0.34375 0.796875 -0.28125 C 0.796875 -0.226562 0.78125 -0.179688 0.75 -0.140625 C 0.71875 -0.0976562 0.675781 -0.0625 0.625 -0.03125 C 0.570312 0 0.507812 0.015625 0.4375 0.015625 Z M 0.4375 0.015625 "/></g></g></g><g fill="#004aad" fill-opacity="1"><g transform="translate(11.438019, 19.498987)"><g><path d="M 0.296875 -1 L 0.296875 0 L 0.09375 0 L 0.09375 -1 Z M 0.296875 -1 "/></g></g></g><g fill="#004aad" fill-opacity="1"><g transform="translate(12.450609, 19.498987)"><g><path d="M 0.046875 -0.5 C 0.046875 -0.59375 0.0664062 -0.675781 0.109375 -0.75 C 0.160156 -0.832031 0.222656 -0.894531 0.296875 -0.9375 C 0.367188 -0.976562 0.453125 -1 0.546875 -1 C 0.660156 -1 0.757812 -0.96875 0.84375 -0.90625 C 0.925781 -0.851562 0.984375 -0.78125 1.015625 -0.6875 L 0.796875 -0.6875 C 0.765625 -0.726562 0.726562 -0.757812 0.6875 -0.78125 C 0.644531 -0.8125 0.597656 -0.828125 0.546875 -0.828125 C 0.492188 -0.828125 0.441406 -0.8125 0.390625 -0.78125 C 0.347656 -0.757812 0.3125 -0.722656 0.28125 -0.671875 C 0.257812 -0.617188 0.25 -0.5625 0.25 -0.5 C 0.25 -0.4375 0.257812 -0.378906 0.28125 -0.328125 C 0.3125 -0.273438 0.347656 -0.234375 0.390625 -0.203125 C 0.441406 -0.179688 0.492188 -0.171875 0.546875 -0.171875 C 0.597656 -0.171875 0.644531 -0.179688 0.6875 -0.203125 C 0.726562 -0.222656 0.765625 -0.257812 0.796875 -0.3125 L 1.015625 -0.3125 C 0.984375 -0.207031 0.925781 -0.125 0.84375 -0.0625 C 0.757812 -0.0078125 0.660156 0.015625 0.546875 0.015625 C 0.453125 0.015625 0.367188 -0.00390625 0.296875 -0.046875 C 0.222656 -0.0976562 0.160156 -0.160156 0.109375 -0.234375 C 0.0664062 -0.304688 0.046875 -0.394531 0.046875 -0.5 Z M 0.046875 -0.5 "/></g></g></g><g fill="#004aad" fill-opacity="1"><g transform="translate(14.158112, 19.498987)"><g><path d="M 0.5625 0.015625 C 0.46875 0.015625 0.378906 -0.00390625 0.296875 -0.046875 C 0.222656 -0.0976562 0.160156 -0.160156 0.109375 -0.234375 C 0.0664062 -0.316406 0.046875 -0.40625 0.046875 -0.5 C 0.046875 -0.59375 0.0664062 -0.675781 0.109375 -0.75 C 0.160156 -0.832031 0.222656 -0.894531 0.296875 -0.9375 C 0.378906 -0.976562 0.46875 -1 0.5625 -1 C 0.65625 -1 0.738281 -0.976562 0.8125 -0.9375 C 0.894531 -0.894531 0.957031 -0.832031 1 -0.75 C 1.039062 -0.675781 1.0625 -0.59375 1.0625 -0.5 C 1.0625 -0.40625 1.039062 -0.316406 1 -0.234375 C 0.957031 -0.160156 0.894531 -0.0976562 0.8125 -0.046875 C 0.738281 -0.00390625 0.65625 0.015625 0.5625 0.015625 Z M 0.5625 -0.171875 C 0.613281 -0.171875 0.660156 -0.179688 0.703125 -0.203125 C 0.753906 -0.234375 0.789062 -0.273438 0.8125 -0.328125 C 0.84375 -0.378906 0.859375 -0.4375 0.859375 -0.5 C 0.859375 -0.5625 0.84375 -0.617188 0.8125 -0.671875 C 0.789062 -0.722656 0.753906 -0.757812 0.703125 -0.78125 C 0.660156 -0.8125 0.613281 -0.828125 0.5625 -0.828125 C 0.5 -0.828125 0.441406 -0.8125 0.390625 -0.78125 C 0.347656 -0.757812 0.3125 -0.722656 0.28125 -0.671875 C 0.257812 -0.617188 0.25 -0.5625 0.25 -0.5 C 0.25 -0.4375 0.257812 -0.378906 0.28125 -0.328125 C 0.3125 -0.273438 0.347656 -0.234375 0.390625 -0.203125 C 0.441406 -0.179688 0.5 -0.171875 0.5625 -0.171875 Z M 0.71875 -1.203125 L 0.390625 -1.046875 L 0.390625 -1.1875 L 0.71875 -1.359375 Z M 0.71875 -1.203125 "/></g></g></g><g fill="#004aad" fill-opacity="1"><g transform="translate(15.889725, 19.498987)"><g><path d="M 0.296875 -0.15625 L 0.625 -0.15625 L 0.625 0 L 0.09375 0 L 0.09375 -1 L 0.296875 -1 Z M 0.296875 -0.15625 "/></g></g></g><g fill="#004aad" fill-opacity="1"><g transform="translate(17.159007, 19.498987)"><g><path d="M 0.5625 0.015625 C 0.46875 0.015625 0.378906 -0.00390625 0.296875 -0.046875 C 0.222656 -0.0976562 0.160156 -0.160156 0.109375 -0.234375 C 0.0664062 -0.316406 0.046875 -0.40625 0.046875 -0.5 C 0.046875 -0.59375 0.0664062 -0.675781 0.109375 -0.75 C 0.160156 -0.832031 0.222656 -0.894531 0.296875 -0.9375 C 0.378906 -0.976562 0.46875 -1 0.5625 -1 C 0.65625 -1 0.738281 -0.976562 0.8125 -0.9375 C 0.894531 -0.894531 0.957031 -0.832031 1 -0.75 C 1.039062 -0.675781 1.0625 -0.59375 1.0625 -0.5 C 1.0625 -0.40625 1.039062 -0.316406 1 -0.234375 C 0.957031 -0.160156 0.894531 -0.0976562 0.8125 -0.046875 C 0.738281 -0.00390625 0.65625 0.015625 0.5625 0.015625 Z M 0.5625 -0.171875 C 0.613281 -0.171875 0.660156 -0.179688 0.703125 -0.203125 C 0.753906 -0.234375 0.789062 -0.273438 0.8125 -0.328125 C 0.84375 -0.378906 0.859375 -0.4375 0.859375 -0.5 C 0.859375 -0.5625 0.84375 -0.617188 0.8125 -0.671875 C 0.789062 -0.722656 0.753906 -0.757812 0.703125 -0.78125 C 0.660156 -0.8125 0.613281 -0.828125 0.5625 -0.828125 C 0.5 -0.828125 0.441406 -0.8125 0.390625 -0.78125 C 0.347656 -0.757812 0.3125 -0.722656 0.28125 -0.671875 C 0.257812 -0.617188 0.25 -0.5625 0.25 -0.5 C 0.25 -0.4375 0.257812 -0.378906 0.28125 -0.328125 C 0.3125 -0.273438 0.347656 -0.234375 0.390625 -0.203125 C 0.441406 -0.179688 0.5 -0.171875 0.5625 -0.171875 Z M 0.5625 -0.171875 "/></g></g></g><g fill="#004aad" fill-opacity="1"><g transform="translate(18.89062, 19.498987)"><g><path d="M 0.796875 -0.6875 C 0.765625 -0.726562 0.726562 -0.757812 0.6875 -0.78125 C 0.65625 -0.8125 0.613281 -0.828125 0.5625 -0.828125 C 0.5 -0.828125 0.441406 -0.8125 0.390625 -0.78125 C 0.347656 -0.757812 0.3125 -0.722656 0.28125 -0.671875 C 0.257812 -0.617188 0.25 -0.5625 0.25 -0.5 C 0.25 -0.425781 0.257812 -0.363281 0.28125 -0.3125 C 0.3125 -0.269531 0.347656 -0.234375 0.390625 -0.203125 C 0.441406 -0.179688 0.5 -0.171875 0.5625 -0.171875 C 0.632812 -0.171875 0.695312 -0.191406 0.75 -0.234375 C 0.800781 -0.273438 0.832031 -0.332031 0.84375 -0.40625 L 0.5 -0.40625 L 0.5 -0.546875 L 1.046875 -0.546875 L 1.046875 -0.375 C 1.023438 -0.3125 0.992188 -0.25 0.953125 -0.1875 C 0.910156 -0.125 0.851562 -0.0703125 0.78125 -0.03125 C 0.71875 0 0.644531 0.015625 0.5625 0.015625 C 0.457031 0.015625 0.367188 -0.00390625 0.296875 -0.046875 C 0.222656 -0.0976562 0.160156 -0.160156 0.109375 -0.234375 C 0.0664062 -0.304688 0.046875 -0.394531 0.046875 -0.5 C 0.046875 -0.59375 0.0664062 -0.675781 0.109375 -0.75 C 0.160156 -0.832031 0.222656 -0.894531 0.296875 -0.9375 C 0.367188 -0.976562 0.457031 -1 0.5625 -1 C 0.664062 -1 0.757812 -0.972656 0.84375 -0.921875 C 0.925781 -0.867188 0.984375 -0.789062 1.015625 -0.6875 Z M 0.796875 -0.6875 "/></g></g></g><g fill="#004aad" fill-opacity="1"><g transform="translate(20.598123, 19.498987)"><g><path d="M 0.5625 0.015625 C 0.46875 0.015625 0.378906 -0.00390625 0.296875 -0.046875 C 0.222656 -0.0976562 0.160156 -0.160156 0.109375 -0.234375 C 0.0664062 -0.316406 0.046875 -0.40625 0.046875 -0.5 C 0.046875 -0.59375 0.0664062 -0.675781 0.109375 -0.75 C 0.160156 -0.832031 0.222656 -0.894531 0.296875 -0.9375 C 0.378906 -0.976562 0.46875 -1 0.5625 -1 C 0.65625 -1 0.738281 -0.976562 0.8125 -0.9375 C 0.894531 -0.894531 0.957031 -0.832031 1 -0.75 C 1.039062 -0.675781 1.0625 -0.59375 1.0625 -0.5 C 1.0625 -0.40625 1.039062 -0.316406 1 -0.234375 C 0.957031 -0.160156 0.894531 -0.0976562 0.8125 -0.046875 C 0.738281 -0.00390625 0.65625 0.015625 0.5625 0.015625 Z M 0.5625 -0.171875 C 0.613281 -0.171875 0.660156 -0.179688 0.703125 -0.203125 C 0.753906 -0.234375 0.789062 -0.273438 0.8125 -0.328125 C 0.84375 -0.378906 0.859375 -0.4375 0.859375 -0.5 C 0.859375 -0.5625 0.84375 -0.617188 0.8125 -0.671875 C 0.789062 -0.722656 0.753906 -0.757812 0.703125 -0.78125 C 0.660156 -0.8125 0.613281 -0.828125 0.5625 -0.828125 C 0.5 -0.828125 0.441406 -0.8125 0.390625 -0.78125 C 0.347656 -0.757812 0.3125 -0.722656 0.28125 -0.671875 C 0.257812 -0.617188 0.25 -0.5625 0.25 -0.5 C 0.25 -0.4375 0.257812 -0.378906 0.28125 -0.328125 C 0.3125 -0.273438 0.347656 -0.234375 0.390625 -0.203125 C 0.441406 -0.179688 0.5 -0.171875 0.5625 -0.171875 Z M 0.5625 -0.171875 "/></g></g></g></svg>