<svg xmlns="http://www.w3.org/2000/svg" xmlns:xlink="http://www.w3.org/1999/xlink" width="40" zoomAndPan="magnify" viewBox="0 0 30 30.000001" height="40" preserveAspectRatio="xMidYMid meet" version="1.0"><defs><g/><clipPath id="3f9cfc2458"><path d="M 0.484375 0 L 29.515625 0 L 29.515625 29.03125 L 0.484375 29.03125 Z M 0.484375 0 " clip-rule="nonzero"/></clipPath><clipPath id="da4e5c9646"><path d="M 10.441406 10 L 14 10 L 14 13 L 10.441406 13 Z M 10.441406 10 " clip-rule="nonzero"/></clipPath><clipPath id="a8ff6e73fe"><path d="M 10.441406 7 L 16 7 L 16 11 L 10.441406 11 Z M 10.441406 7 " clip-rule="nonzero"/></clipPath><clipPath id="16dee1a527"><path d="M 13 6.78125 L 19 6.78125 L 19 10 L 13 10 Z M 13 6.78125 " clip-rule="nonzero"/></clipPath><clipPath id="8ece227e9c"><path d="M 17 9 L 19.515625 9 L 19.515625 12 L 17 12 Z M 17 9 " clip-rule="nonzero"/></clipPath><clipPath id="e16b01da24"><path d="M 15 11 L 19 11 L 19 14.640625 L 15 14.640625 Z M 15 11 " clip-rule="nonzero"/></clipPath><clipPath id="6a571a0f04"><path d="M 0.484375 14 L 4 14 L 4 18 L 0.484375 18 Z M 0.484375 14 " clip-rule="nonzero"/></clipPath><clipPath id="8b7cda59f3"><path d="M 27 15 L 29.515625 15 L 29.515625 18 L 27 18 Z M 27 15 " clip-rule="nonzero"/></clipPath></defs><g clip-path="url(#3f9cfc2458)"><path fill="#ffffff" d="M 0.484375 0 L 29.515625 0 L 29.515625 29.03125 L 0.484375 29.03125 Z M 0.484375 0 " fill-opacity="1" fill-rule="nonzero"/><path fill="#000000" d="M 0.484375 0 L 29.515625 0 L 29.515625 29.03125 L 0.484375 29.03125 Z M 0.484375 0 " fill-opacity="1" fill-rule="nonzero"/></g><g clip-path="url(#da4e5c9646)"><path fill="#ffffff" d="M 12.683594 10.808594 C 12.1875 10.941406 11.644531 10.945312 11.132812 10.953125 C 10.992188 10.953125 10.851562 10.953125 10.710938 10.957031 C 10.925781 11.222656 11.257812 11.394531 11.628906 11.394531 C 11.640625 11.394531 11.65625 11.394531 11.667969 11.394531 C 11.808594 11.894531 12.261719 12.257812 12.804688 12.257812 C 12.894531 12.257812 12.984375 12.246094 13.070312 12.226562 C 13.03125 11.800781 13.058594 11.320312 13.238281 10.933594 C 13.320312 10.765625 13.433594 10.625 13.570312 10.519531 C 13.273438 10.609375 12.984375 10.730469 12.683594 10.808594 " fill-opacity="1" fill-rule="nonzero"/></g><g clip-path="url(#a8ff6e73fe)"><path fill="#ffffff" d="M 15.273438 9.363281 C 15.253906 9.253906 15.230469 9.15625 15.175781 9.066406 C 15.148438 9.023438 15.148438 9.015625 15.117188 8.984375 C 15.085938 8.953125 15.058594 8.929688 15.042969 8.921875 C 14.886719 8.8125 14.699219 8.777344 14.492188 8.746094 C 14.285156 8.71875 14.035156 8.722656 13.902344 8.527344 C 13.78125 8.355469 13.8125 8.09375 13.769531 7.898438 C 13.757812 7.835938 13.742188 7.78125 13.722656 7.730469 C 13.511719 7.539062 13.234375 7.421875 12.925781 7.421875 C 12.277344 7.421875 11.75 7.949219 11.75 8.597656 C 11.75 8.761719 11.785156 8.917969 11.84375 9.0625 C 11.773438 9.046875 11.703125 9.042969 11.628906 9.042969 C 10.976562 9.042969 10.449219 9.570312 10.449219 10.21875 C 10.449219 10.332031 10.464844 10.445312 10.496094 10.546875 C 10.753906 10.542969 11.011719 10.542969 11.265625 10.535156 C 11.746094 10.527344 12.246094 10.519531 12.703125 10.375 C 13.054688 10.261719 13.398438 10.117188 13.761719 10.042969 C 14.117188 9.972656 14.496094 9.949219 14.789062 10.191406 C 14.8125 10.1875 14.835938 10.183594 14.859375 10.175781 C 14.960938 10.152344 15.019531 10.132812 15.09375 10.089844 C 15.148438 10.054688 15.1875 10.019531 15.21875 9.96875 C 15.257812 9.902344 15.285156 9.820312 15.289062 9.726562 C 15.300781 9.605469 15.296875 9.480469 15.273438 9.363281 " fill-opacity="1" fill-rule="nonzero"/></g><g clip-path="url(#16dee1a527)"><path fill="#ffffff" d="M 14.207031 8.035156 C 14.21875 8.132812 14.21875 8.207031 14.242188 8.289062 L 14.246094 8.292969 C 14.25 8.292969 14.253906 8.296875 14.253906 8.296875 C 14.265625 8.300781 14.28125 8.304688 14.292969 8.304688 C 14.40625 8.328125 14.519531 8.335938 14.632812 8.355469 C 14.832031 8.382812 15.042969 8.429688 15.214844 8.539062 C 15.515625 8.730469 15.660156 9.058594 15.699219 9.398438 C 16.53125 9.394531 17.414062 9.289062 18.035156 8.679688 C 18.046875 8.664062 18.0625 8.652344 18.078125 8.644531 C 18.078125 8.628906 18.078125 8.613281 18.078125 8.597656 C 18.078125 7.949219 17.550781 7.421875 16.902344 7.421875 C 16.613281 7.421875 16.347656 7.527344 16.140625 7.699219 C 16.023438 7.171875 15.554688 6.777344 14.992188 6.777344 C 14.566406 6.777344 14.199219 7 13.988281 7.335938 C 14.050781 7.429688 14.097656 7.53125 14.128906 7.640625 C 14.167969 7.769531 14.191406 7.902344 14.207031 8.035156 " fill-opacity="1" fill-rule="nonzero"/></g><path fill="#ffffff" d="M 18.644531 11.589844 C 18.621094 11.421875 18.59375 11.226562 18.476562 11.09375 C 18.238281 10.824219 17.902344 10.699219 17.554688 10.667969 C 17.558594 10.742188 17.558594 10.816406 17.558594 10.890625 C 17.558594 11.15625 17.148438 11.15625 17.148438 10.890625 C 17.148438 10.621094 17.148438 10.355469 17.046875 10.105469 C 16.964844 9.902344 16.777344 9.785156 16.527344 9.765625 C 16.523438 9.765625 16.515625 9.765625 16.511719 9.765625 C 16.238281 9.796875 15.964844 9.8125 15.695312 9.8125 C 15.691406 9.820312 15.691406 9.828125 15.691406 9.835938 C 15.625 10.285156 15.277344 10.523438 14.851562 10.597656 C 14.625 10.636719 14.382812 10.636719 14.160156 10.691406 C 13.976562 10.734375 13.800781 10.824219 13.703125 10.957031 C 13.582031 11.125 13.527344 11.304688 13.5 11.511719 C 13.472656 11.695312 13.464844 11.886719 13.472656 12.078125 C 13.683594 12.269531 13.964844 12.390625 14.273438 12.390625 C 14.703125 12.390625 15.078125 12.160156 15.285156 11.816406 C 15.492188 12.011719 15.773438 12.128906 16.085938 12.128906 C 16.234375 12.128906 16.375 12.101562 16.507812 12.050781 C 16.703125 12.429688 17.097656 12.683594 17.550781 12.683594 C 18.089844 12.683594 18.546875 12.324219 18.683594 11.828125 C 18.667969 11.75 18.65625 11.671875 18.644531 11.589844 " fill-opacity="1" fill-rule="nonzero"/><g clip-path="url(#8ece227e9c)"><path fill="#ffffff" d="M 18.371094 9.042969 C 18.328125 9.042969 18.285156 9.042969 18.242188 9.046875 C 17.9375 9.324219 17.582031 9.503906 17.203125 9.617188 C 17.289062 9.695312 17.359375 9.789062 17.40625 9.902344 C 17.457031 10.015625 17.488281 10.132812 17.511719 10.25 C 17.949219 10.273438 18.40625 10.421875 18.714844 10.742188 C 18.847656 10.882812 18.9375 11.042969 18.992188 11.21875 C 19.324219 11.011719 19.546875 10.640625 19.546875 10.21875 C 19.546875 9.570312 19.019531 9.042969 18.371094 9.042969 " fill-opacity="1" fill-rule="nonzero"/></g><g clip-path="url(#e16b01da24)"><path fill="#ffffff" d="M 15.679688 12.058594 C 15.679688 12.058594 15.851562 12.171875 16.253906 12.21875 C 16.652344 12.269531 16.796875 12.683594 16.84375 12.828125 C 16.890625 12.972656 17.089844 13.710938 17.605469 14.152344 C 18.121094 14.59375 18.085938 14.226562 18.28125 14.125 C 18.476562 14.019531 18.402344 13.859375 18.246094 13.726562 C 18.09375 13.597656 17.96875 13.097656 18.074219 12.839844 C 18.183594 12.582031 18.203125 12.523438 18.332031 12.390625 C 18.460938 12.253906 16.140625 11.316406 15.679688 12.058594 " fill-opacity="1" fill-rule="nonzero"/></g><g clip-path="url(#6a571a0f04)"><g fill="#ffffff" fill-opacity="1"><g transform="translate(0.846949, 17.284949)"><g><path d="M 1.796875 -0.53125 L 0.65625 -0.53125 L 0.421875 0 L -0.015625 0 L 1.015625 -2.296875 L 1.4375 -2.296875 L 2.46875 0 L 2.03125 0 Z M 1.65625 -0.859375 L 1.21875 -1.875 L 0.796875 -0.859375 Z M 1.65625 -0.859375 "/></g></g></g></g><g fill="#ffffff" fill-opacity="1"><g transform="translate(3.305849, 17.284949)"><g><path d="M 1.265625 -1.765625 C 1.484375 -1.765625 1.660156 -1.703125 1.796875 -1.578125 C 1.929688 -1.453125 2 -1.257812 2 -1 L 2 0 L 1.578125 0 L 1.578125 -0.953125 C 1.578125 -1.109375 1.539062 -1.222656 1.46875 -1.296875 C 1.40625 -1.378906 1.304688 -1.421875 1.171875 -1.421875 C 1.015625 -1.421875 0.890625 -1.375 0.796875 -1.28125 C 0.710938 -1.1875 0.671875 -1.054688 0.671875 -0.890625 L 0.671875 0 L 0.265625 0 L 0.265625 -1.75 L 0.65625 -1.75 L 0.65625 -1.53125 C 0.726562 -1.601562 0.8125 -1.660156 0.90625 -1.703125 C 1.007812 -1.742188 1.128906 -1.765625 1.265625 -1.765625 Z M 1.265625 -1.765625 "/></g></g></g><g fill="#ffffff" fill-opacity="1"><g transform="translate(5.554643, 17.284949)"><g><path d="M 1.984375 -2.4375 L 1.984375 0 L 1.59375 0 L 1.59375 -0.21875 C 1.519531 -0.144531 1.429688 -0.0859375 1.328125 -0.046875 C 1.234375 -0.00390625 1.128906 0.015625 1.015625 0.015625 C 0.847656 0.015625 0.695312 -0.0195312 0.5625 -0.09375 C 0.425781 -0.164062 0.316406 -0.269531 0.234375 -0.40625 C 0.160156 -0.539062 0.125 -0.695312 0.125 -0.875 C 0.125 -1.050781 0.160156 -1.207031 0.234375 -1.34375 C 0.316406 -1.476562 0.425781 -1.582031 0.5625 -1.65625 C 0.695312 -1.726562 0.847656 -1.765625 1.015625 -1.765625 C 1.128906 -1.765625 1.234375 -1.742188 1.328125 -1.703125 C 1.421875 -1.671875 1.503906 -1.613281 1.578125 -1.53125 L 1.578125 -2.4375 Z M 1.0625 -0.328125 C 1.15625 -0.328125 1.238281 -0.347656 1.3125 -0.390625 C 1.394531 -0.441406 1.457031 -0.507812 1.5 -0.59375 C 1.550781 -0.675781 1.578125 -0.769531 1.578125 -0.875 C 1.578125 -0.988281 1.550781 -1.085938 1.5 -1.171875 C 1.457031 -1.253906 1.394531 -1.316406 1.3125 -1.359375 C 1.238281 -1.398438 1.15625 -1.421875 1.0625 -1.421875 C 0.957031 -1.421875 0.863281 -1.398438 0.78125 -1.359375 C 0.707031 -1.316406 0.644531 -1.253906 0.59375 -1.171875 C 0.550781 -1.085938 0.53125 -0.988281 0.53125 -0.875 C 0.53125 -0.769531 0.550781 -0.675781 0.59375 -0.59375 C 0.644531 -0.507812 0.707031 -0.441406 0.78125 -0.390625 C 0.863281 -0.347656 0.957031 -0.328125 1.0625 -0.328125 Z M 1.0625 -0.328125 "/></g></g></g><g fill="#ffffff" fill-opacity="1"><g transform="translate(7.810003, 17.284949)"><g><path d="M 1.921875 -0.859375 C 1.921875 -0.835938 1.914062 -0.800781 1.90625 -0.75 L 0.53125 -0.75 C 0.5625 -0.613281 0.625 -0.507812 0.71875 -0.4375 C 0.820312 -0.363281 0.953125 -0.328125 1.109375 -0.328125 C 1.296875 -0.328125 1.453125 -0.390625 1.578125 -0.515625 L 1.796875 -0.265625 C 1.722656 -0.171875 1.625 -0.0976562 1.5 -0.046875 C 1.375 -0.00390625 1.238281 0.015625 1.09375 0.015625 C 0.894531 0.015625 0.722656 -0.0195312 0.578125 -0.09375 C 0.429688 -0.164062 0.316406 -0.269531 0.234375 -0.40625 C 0.160156 -0.539062 0.125 -0.695312 0.125 -0.875 C 0.125 -1.039062 0.160156 -1.191406 0.234375 -1.328125 C 0.316406 -1.472656 0.425781 -1.582031 0.5625 -1.65625 C 0.695312 -1.726562 0.851562 -1.765625 1.03125 -1.765625 C 1.195312 -1.765625 1.347656 -1.726562 1.484375 -1.65625 C 1.617188 -1.582031 1.722656 -1.476562 1.796875 -1.34375 C 1.878906 -1.207031 1.921875 -1.046875 1.921875 -0.859375 Z M 1.03125 -1.4375 C 0.894531 -1.4375 0.78125 -1.394531 0.6875 -1.3125 C 0.601562 -1.238281 0.550781 -1.140625 0.53125 -1.015625 L 1.53125 -1.015625 C 1.507812 -1.140625 1.453125 -1.238281 1.359375 -1.3125 C 1.273438 -1.394531 1.164062 -1.4375 1.03125 -1.4375 Z M 1.03125 -1.4375 "/></g></g></g><g fill="#ffffff" fill-opacity="1"><g transform="translate(9.851973, 17.284949)"><g><path d="M 0.65625 -1.5 C 0.78125 -1.675781 0.988281 -1.765625 1.28125 -1.765625 L 1.28125 -1.375 C 1.25 -1.382812 1.21875 -1.390625 1.1875 -1.390625 C 1.03125 -1.390625 0.90625 -1.34375 0.8125 -1.25 C 0.71875 -1.15625 0.671875 -1.019531 0.671875 -0.84375 L 0.671875 0 L 0.265625 0 L 0.265625 -1.75 L 0.65625 -1.75 Z M 0.65625 -1.5 "/></g></g></g><g fill="#ffffff" fill-opacity="1"><g transform="translate(11.230795, 17.284949)"><g><path d="M 0.8125 0.015625 C 0.664062 0.015625 0.523438 0 0.390625 -0.03125 C 0.253906 -0.0703125 0.144531 -0.117188 0.0625 -0.171875 L 0.21875 -0.484375 C 0.300781 -0.429688 0.394531 -0.390625 0.5 -0.359375 C 0.613281 -0.328125 0.726562 -0.3125 0.84375 -0.3125 C 1.082031 -0.3125 1.203125 -0.375 1.203125 -0.5 C 1.203125 -0.5625 1.171875 -0.601562 1.109375 -0.625 C 1.046875 -0.65625 0.945312 -0.679688 0.8125 -0.703125 C 0.664062 -0.722656 0.546875 -0.75 0.453125 -0.78125 C 0.367188 -0.8125 0.289062 -0.859375 0.21875 -0.921875 C 0.15625 -0.992188 0.125 -1.09375 0.125 -1.21875 C 0.125 -1.382812 0.191406 -1.515625 0.328125 -1.609375 C 0.460938 -1.710938 0.648438 -1.765625 0.890625 -1.765625 C 1.015625 -1.765625 1.132812 -1.75 1.25 -1.71875 C 1.375 -1.695312 1.472656 -1.664062 1.546875 -1.625 L 1.390625 -1.3125 C 1.242188 -1.394531 1.078125 -1.4375 0.890625 -1.4375 C 0.765625 -1.4375 0.671875 -1.414062 0.609375 -1.375 C 0.546875 -1.34375 0.515625 -1.300781 0.515625 -1.25 C 0.515625 -1.175781 0.546875 -1.125 0.609375 -1.09375 C 0.679688 -1.070312 0.789062 -1.050781 0.9375 -1.03125 C 1.070312 -1.007812 1.179688 -0.984375 1.265625 -0.953125 C 1.359375 -0.921875 1.4375 -0.867188 1.5 -0.796875 C 1.570312 -0.734375 1.609375 -0.640625 1.609375 -0.515625 C 1.609375 -0.347656 1.535156 -0.21875 1.390625 -0.125 C 1.242188 -0.03125 1.050781 0.015625 0.8125 0.015625 Z M 0.8125 0.015625 "/></g></g></g><g fill="#ffffff" fill-opacity="1"><g transform="translate(12.921494, 17.284949)"><g><path d="M 1.0625 0.015625 C 0.882812 0.015625 0.722656 -0.0195312 0.578125 -0.09375 C 0.429688 -0.164062 0.316406 -0.269531 0.234375 -0.40625 C 0.160156 -0.539062 0.125 -0.695312 0.125 -0.875 C 0.125 -1.050781 0.160156 -1.207031 0.234375 -1.34375 C 0.316406 -1.476562 0.429688 -1.582031 0.578125 -1.65625 C 0.722656 -1.726562 0.882812 -1.765625 1.0625 -1.765625 C 1.238281 -1.765625 1.394531 -1.726562 1.53125 -1.65625 C 1.675781 -1.582031 1.785156 -1.476562 1.859375 -1.34375 C 1.941406 -1.207031 1.984375 -1.050781 1.984375 -0.875 C 1.984375 -0.695312 1.941406 -0.539062 1.859375 -0.40625 C 1.785156 -0.269531 1.675781 -0.164062 1.53125 -0.09375 C 1.394531 -0.0195312 1.238281 0.015625 1.0625 0.015625 Z M 1.0625 -0.328125 C 1.207031 -0.328125 1.328125 -0.375 1.421875 -0.46875 C 1.523438 -0.570312 1.578125 -0.707031 1.578125 -0.875 C 1.578125 -1.039062 1.523438 -1.171875 1.421875 -1.265625 C 1.328125 -1.367188 1.207031 -1.421875 1.0625 -1.421875 C 0.90625 -1.421875 0.773438 -1.367188 0.671875 -1.265625 C 0.578125 -1.171875 0.53125 -1.039062 0.53125 -0.875 C 0.53125 -0.707031 0.578125 -0.570312 0.671875 -0.46875 C 0.773438 -0.375 0.90625 -0.328125 1.0625 -0.328125 Z M 1.0625 -0.328125 "/></g></g></g><g fill="#ffffff" fill-opacity="1"><g transform="translate(15.038971, 17.284949)"><g><path d="M 1.265625 -1.765625 C 1.484375 -1.765625 1.660156 -1.703125 1.796875 -1.578125 C 1.929688 -1.453125 2 -1.257812 2 -1 L 2 0 L 1.578125 0 L 1.578125 -0.953125 C 1.578125 -1.109375 1.539062 -1.222656 1.46875 -1.296875 C 1.40625 -1.378906 1.304688 -1.421875 1.171875 -1.421875 C 1.015625 -1.421875 0.890625 -1.375 0.796875 -1.28125 C 0.710938 -1.1875 0.671875 -1.054688 0.671875 -0.890625 L 0.671875 0 L 0.265625 0 L 0.265625 -1.75 L 0.65625 -1.75 L 0.65625 -1.53125 C 0.726562 -1.601562 0.8125 -1.660156 0.90625 -1.703125 C 1.007812 -1.742188 1.128906 -1.765625 1.265625 -1.765625 Z M 1.265625 -1.765625 "/></g></g></g><g fill="#ffffff" fill-opacity="1"><g transform="translate(17.287765, 17.284949)"><g/></g></g><g fill="#ffffff" fill-opacity="1"><g transform="translate(18.193848, 17.284949)"><g><path d="M 1.375 0.03125 C 1.144531 0.03125 0.9375 -0.015625 0.75 -0.109375 C 0.5625 -0.210938 0.410156 -0.351562 0.296875 -0.53125 C 0.191406 -0.71875 0.140625 -0.925781 0.140625 -1.15625 C 0.140625 -1.375 0.191406 -1.570312 0.296875 -1.75 C 0.410156 -1.9375 0.5625 -2.078125 0.75 -2.171875 C 0.9375 -2.273438 1.144531 -2.328125 1.375 -2.328125 C 1.5625 -2.328125 1.734375 -2.296875 1.890625 -2.234375 C 2.046875 -2.171875 2.175781 -2.078125 2.28125 -1.953125 L 2.015625 -1.6875 C 1.847656 -1.863281 1.640625 -1.953125 1.390625 -1.953125 C 1.234375 -1.953125 1.09375 -1.914062 0.96875 -1.84375 C 0.84375 -1.78125 0.742188 -1.6875 0.671875 -1.5625 C 0.609375 -1.4375 0.578125 -1.300781 0.578125 -1.15625 C 0.578125 -1 0.609375 -0.859375 0.671875 -0.734375 C 0.742188 -0.609375 0.84375 -0.507812 0.96875 -0.4375 C 1.09375 -0.375 1.234375 -0.34375 1.390625 -0.34375 C 1.640625 -0.34375 1.847656 -0.429688 2.015625 -0.609375 L 2.28125 -0.34375 C 2.175781 -0.226562 2.046875 -0.132812 1.890625 -0.0625 C 1.734375 0 1.5625 0.03125 1.375 0.03125 Z M 1.375 0.03125 "/></g></g></g><g fill="#ffffff" fill-opacity="1"><g transform="translate(20.580522, 17.284949)"><g><path d="M 0.9375 -1.765625 C 1.195312 -1.765625 1.394531 -1.703125 1.53125 -1.578125 C 1.664062 -1.460938 1.734375 -1.28125 1.734375 -1.03125 L 1.734375 0 L 1.34375 0 L 1.34375 -0.21875 C 1.289062 -0.132812 1.21875 -0.0703125 1.125 -0.03125 C 1.039062 0 0.929688 0.015625 0.796875 0.015625 C 0.660156 0.015625 0.546875 -0.00390625 0.453125 -0.046875 C 0.359375 -0.0859375 0.28125 -0.144531 0.21875 -0.21875 C 0.164062 -0.300781 0.140625 -0.394531 0.140625 -0.5 C 0.140625 -0.65625 0.195312 -0.78125 0.3125 -0.875 C 0.4375 -0.976562 0.625 -1.03125 0.875 -1.03125 L 1.328125 -1.03125 L 1.328125 -1.046875 C 1.328125 -1.171875 1.289062 -1.265625 1.21875 -1.328125 C 1.144531 -1.398438 1.035156 -1.4375 0.890625 -1.4375 C 0.785156 -1.4375 0.6875 -1.421875 0.59375 -1.390625 C 0.5 -1.359375 0.421875 -1.3125 0.359375 -1.25 L 0.203125 -1.5625 C 0.285156 -1.625 0.390625 -1.671875 0.515625 -1.703125 C 0.648438 -1.742188 0.789062 -1.765625 0.9375 -1.765625 Z M 0.875 -0.28125 C 0.976562 -0.28125 1.070312 -0.300781 1.15625 -0.34375 C 1.238281 -0.394531 1.296875 -0.460938 1.328125 -0.546875 L 1.328125 -0.75 L 0.90625 -0.75 C 0.664062 -0.75 0.546875 -0.671875 0.546875 -0.515625 C 0.546875 -0.441406 0.570312 -0.382812 0.625 -0.34375 C 0.6875 -0.300781 0.769531 -0.28125 0.875 -0.28125 Z M 0.875 -0.28125 "/></g></g></g><g fill="#ffffff" fill-opacity="1"><g transform="translate(22.573247, 17.284949)"><g><path d="M 0.8125 0.015625 C 0.664062 0.015625 0.523438 0 0.390625 -0.03125 C 0.253906 -0.0703125 0.144531 -0.117188 0.0625 -0.171875 L 0.21875 -0.484375 C 0.300781 -0.429688 0.394531 -0.390625 0.5 -0.359375 C 0.613281 -0.328125 0.726562 -0.3125 0.84375 -0.3125 C 1.082031 -0.3125 1.203125 -0.375 1.203125 -0.5 C 1.203125 -0.5625 1.171875 -0.601562 1.109375 -0.625 C 1.046875 -0.65625 0.945312 -0.679688 0.8125 -0.703125 C 0.664062 -0.722656 0.546875 -0.75 0.453125 -0.78125 C 0.367188 -0.8125 0.289062 -0.859375 0.21875 -0.921875 C 0.15625 -0.992188 0.125 -1.09375 0.125 -1.21875 C 0.125 -1.382812 0.191406 -1.515625 0.328125 -1.609375 C 0.460938 -1.710938 0.648438 -1.765625 0.890625 -1.765625 C 1.015625 -1.765625 1.132812 -1.75 1.25 -1.71875 C 1.375 -1.695312 1.472656 -1.664062 1.546875 -1.625 L 1.390625 -1.3125 C 1.242188 -1.394531 1.078125 -1.4375 0.890625 -1.4375 C 0.765625 -1.4375 0.671875 -1.414062 0.609375 -1.375 C 0.546875 -1.34375 0.515625 -1.300781 0.515625 -1.25 C 0.515625 -1.175781 0.546875 -1.125 0.609375 -1.09375 C 0.679688 -1.070312 0.789062 -1.050781 0.9375 -1.03125 C 1.070312 -1.007812 1.179688 -0.984375 1.265625 -0.953125 C 1.359375 -0.921875 1.4375 -0.867188 1.5 -0.796875 C 1.570312 -0.734375 1.609375 -0.640625 1.609375 -0.515625 C 1.609375 -0.347656 1.535156 -0.21875 1.390625 -0.125 C 1.242188 -0.03125 1.050781 0.015625 0.8125 0.015625 Z M 0.8125 0.015625 "/></g></g></g><g fill="#ffffff" fill-opacity="1"><g transform="translate(24.263945, 17.284949)"><g><path d="M 1.328125 -0.09375 C 1.273438 -0.0507812 1.210938 -0.0195312 1.140625 0 C 1.078125 0.0078125 1.003906 0.015625 0.921875 0.015625 C 0.734375 0.015625 0.585938 -0.03125 0.484375 -0.125 C 0.378906 -0.226562 0.328125 -0.375 0.328125 -0.5625 L 0.328125 -1.40625 L 0.03125 -1.40625 L 0.03125 -1.734375 L 0.328125 -1.734375 L 0.328125 -2.140625 L 0.734375 -2.140625 L 0.734375 -1.734375 L 1.203125 -1.734375 L 1.203125 -1.40625 L 0.734375 -1.40625 L 0.734375 -0.578125 C 0.734375 -0.492188 0.753906 -0.425781 0.796875 -0.375 C 0.835938 -0.332031 0.898438 -0.3125 0.984375 -0.3125 C 1.066406 -0.3125 1.140625 -0.335938 1.203125 -0.390625 Z M 1.328125 -0.09375 "/></g></g></g><g fill="#ffffff" fill-opacity="1"><g transform="translate(25.655898, 17.284949)"><g><path d="M 0.65625 -1.5 C 0.78125 -1.675781 0.988281 -1.765625 1.28125 -1.765625 L 1.28125 -1.375 C 1.25 -1.382812 1.21875 -1.390625 1.1875 -1.390625 C 1.03125 -1.390625 0.90625 -1.34375 0.8125 -1.25 C 0.71875 -1.15625 0.671875 -1.019531 0.671875 -0.84375 L 0.671875 0 L 0.265625 0 L 0.265625 -1.75 L 0.65625 -1.75 Z M 0.65625 -1.5 "/></g></g></g><g clip-path="url(#8b7cda59f3)"><g fill="#ffffff" fill-opacity="1"><g transform="translate(27.034721, 17.284949)"><g><path d="M 1.0625 0.015625 C 0.882812 0.015625 0.722656 -0.0195312 0.578125 -0.09375 C 0.429688 -0.164062 0.316406 -0.269531 0.234375 -0.40625 C 0.160156 -0.539062 0.125 -0.695312 0.125 -0.875 C 0.125 -1.050781 0.160156 -1.207031 0.234375 -1.34375 C 0.316406 -1.476562 0.429688 -1.582031 0.578125 -1.65625 C 0.722656 -1.726562 0.882812 -1.765625 1.0625 -1.765625 C 1.238281 -1.765625 1.394531 -1.726562 1.53125 -1.65625 C 1.675781 -1.582031 1.785156 -1.476562 1.859375 -1.34375 C 1.941406 -1.207031 1.984375 -1.050781 1.984375 -0.875 C 1.984375 -0.695312 1.941406 -0.539062 1.859375 -0.40625 C 1.785156 -0.269531 1.675781 -0.164062 1.53125 -0.09375 C 1.394531 -0.0195312 1.238281 0.015625 1.0625 0.015625 Z M 1.0625 -0.328125 C 1.207031 -0.328125 1.328125 -0.375 1.421875 -0.46875 C 1.523438 -0.570312 1.578125 -0.707031 1.578125 -0.875 C 1.578125 -1.039062 1.523438 -1.171875 1.421875 -1.265625 C 1.328125 -1.367188 1.207031 -1.421875 1.0625 -1.421875 C 0.90625 -1.421875 0.773438 -1.367188 0.671875 -1.265625 C 0.578125 -1.171875 0.53125 -1.039062 0.53125 -0.875 C 0.53125 -0.707031 0.578125 -0.570312 0.671875 -0.46875 C 0.773438 -0.375 0.90625 -0.328125 1.0625 -0.328125 Z M 1.0625 -0.328125 "/></g></g></g></g><g fill="#ffffff" fill-opacity="1"><g transform="translate(8.432008, 19.351664)"><g><path d="M 0.8125 -0.671875 C 0.8125 -0.617188 0.796875 -0.570312 0.765625 -0.53125 C 0.742188 -0.488281 0.707031 -0.453125 0.65625 -0.421875 C 0.601562 -0.390625 0.535156 -0.375 0.453125 -0.375 L 0.296875 -0.375 L 0.296875 0 L 0.09375 0 L 0.09375 -0.984375 L 0.453125 -0.984375 C 0.535156 -0.984375 0.601562 -0.96875 0.65625 -0.9375 C 0.707031 -0.914062 0.742188 -0.878906 0.765625 -0.828125 C 0.796875 -0.785156 0.8125 -0.734375 0.8125 -0.671875 Z M 0.453125 -0.53125 C 0.503906 -0.53125 0.539062 -0.539062 0.5625 -0.5625 C 0.59375 -0.59375 0.609375 -0.628906 0.609375 -0.671875 C 0.609375 -0.773438 0.554688 -0.828125 0.453125 -0.828125 L 0.296875 -0.828125 L 0.296875 -0.53125 Z M 0.453125 -0.53125 "/></g></g></g><g fill="#ffffff" fill-opacity="1"><g transform="translate(9.901207, 19.351664)"><g><path d="M 0.4375 0.015625 C 0.363281 0.015625 0.300781 0.00390625 0.25 -0.015625 C 0.195312 -0.046875 0.15625 -0.0820312 0.125 -0.125 C 0.09375 -0.164062 0.078125 -0.21875 0.078125 -0.28125 L 0.28125 -0.28125 C 0.28125 -0.238281 0.289062 -0.207031 0.3125 -0.1875 C 0.34375 -0.164062 0.382812 -0.15625 0.4375 -0.15625 C 0.476562 -0.15625 0.507812 -0.164062 0.53125 -0.1875 C 0.5625 -0.207031 0.578125 -0.234375 0.578125 -0.265625 C 0.578125 -0.296875 0.566406 -0.320312 0.546875 -0.34375 C 0.535156 -0.363281 0.515625 -0.378906 0.484375 -0.390625 C 0.460938 -0.398438 0.425781 -0.410156 0.375 -0.421875 C 0.3125 -0.441406 0.257812 -0.457031 0.21875 -0.46875 C 0.175781 -0.488281 0.140625 -0.519531 0.109375 -0.5625 C 0.0859375 -0.601562 0.078125 -0.648438 0.078125 -0.703125 C 0.078125 -0.765625 0.0859375 -0.816406 0.109375 -0.859375 C 0.140625 -0.898438 0.179688 -0.929688 0.234375 -0.953125 C 0.285156 -0.984375 0.347656 -1 0.421875 -1 C 0.523438 -1 0.609375 -0.972656 0.671875 -0.921875 C 0.734375 -0.867188 0.765625 -0.800781 0.765625 -0.71875 L 0.5625 -0.71875 C 0.550781 -0.75 0.53125 -0.773438 0.5 -0.796875 C 0.476562 -0.816406 0.445312 -0.828125 0.40625 -0.828125 C 0.363281 -0.828125 0.332031 -0.816406 0.3125 -0.796875 C 0.289062 -0.773438 0.28125 -0.75 0.28125 -0.71875 C 0.28125 -0.6875 0.285156 -0.660156 0.296875 -0.640625 C 0.316406 -0.628906 0.335938 -0.617188 0.359375 -0.609375 C 0.390625 -0.597656 0.429688 -0.585938 0.484375 -0.578125 C 0.546875 -0.554688 0.597656 -0.535156 0.640625 -0.515625 C 0.679688 -0.492188 0.710938 -0.460938 0.734375 -0.421875 C 0.765625 -0.390625 0.78125 -0.34375 0.78125 -0.28125 C 0.78125 -0.226562 0.765625 -0.175781 0.734375 -0.125 C 0.710938 -0.0820312 0.675781 -0.046875 0.625 -0.015625 C 0.570312 0.00390625 0.507812 0.015625 0.4375 0.015625 Z M 0.4375 0.015625 "/></g></g></g><g fill="#ffffff" fill-opacity="1"><g transform="translate(11.371813, 19.351664)"><g><path d="M 0.296875 -0.984375 L 0.296875 0 L 0.09375 0 L 0.09375 -0.984375 Z M 0.296875 -0.984375 "/></g></g></g><g fill="#ffffff" fill-opacity="1"><g transform="translate(12.37661, 19.351664)"><g><path d="M 0.046875 -0.484375 C 0.046875 -0.585938 0.0664062 -0.675781 0.109375 -0.75 C 0.160156 -0.820312 0.222656 -0.878906 0.296875 -0.921875 C 0.367188 -0.972656 0.453125 -1 0.546875 -1 C 0.660156 -1 0.753906 -0.96875 0.828125 -0.90625 C 0.910156 -0.851562 0.972656 -0.773438 1.015625 -0.671875 L 0.78125 -0.671875 C 0.757812 -0.722656 0.726562 -0.757812 0.6875 -0.78125 C 0.644531 -0.800781 0.597656 -0.8125 0.546875 -0.8125 C 0.484375 -0.8125 0.429688 -0.796875 0.390625 -0.765625 C 0.347656 -0.742188 0.3125 -0.707031 0.28125 -0.65625 C 0.257812 -0.613281 0.25 -0.554688 0.25 -0.484375 C 0.25 -0.421875 0.257812 -0.363281 0.28125 -0.3125 C 0.3125 -0.269531 0.347656 -0.234375 0.390625 -0.203125 C 0.429688 -0.179688 0.484375 -0.171875 0.546875 -0.171875 C 0.597656 -0.171875 0.644531 -0.179688 0.6875 -0.203125 C 0.726562 -0.222656 0.757812 -0.257812 0.78125 -0.3125 L 1.015625 -0.3125 C 0.972656 -0.207031 0.910156 -0.125 0.828125 -0.0625 C 0.753906 -0.0078125 0.660156 0.015625 0.546875 0.015625 C 0.453125 0.015625 0.367188 -0.00390625 0.296875 -0.046875 C 0.222656 -0.0976562 0.160156 -0.160156 0.109375 -0.234375 C 0.0664062 -0.304688 0.046875 -0.390625 0.046875 -0.484375 Z M 0.046875 -0.484375 "/></g></g></g><g fill="#ffffff" fill-opacity="1"><g transform="translate(14.070973, 19.351664)"><g><path d="M 0.546875 0.015625 C 0.460938 0.015625 0.378906 -0.00390625 0.296875 -0.046875 C 0.222656 -0.0976562 0.160156 -0.160156 0.109375 -0.234375 C 0.0664062 -0.304688 0.046875 -0.394531 0.046875 -0.5 C 0.046875 -0.59375 0.0664062 -0.675781 0.109375 -0.75 C 0.160156 -0.820312 0.222656 -0.878906 0.296875 -0.921875 C 0.378906 -0.972656 0.460938 -1 0.546875 -1 C 0.640625 -1 0.722656 -0.972656 0.796875 -0.921875 C 0.878906 -0.878906 0.941406 -0.820312 0.984375 -0.75 C 1.023438 -0.675781 1.046875 -0.59375 1.046875 -0.5 C 1.046875 -0.394531 1.023438 -0.304688 0.984375 -0.234375 C 0.941406 -0.160156 0.878906 -0.0976562 0.796875 -0.046875 C 0.722656 -0.00390625 0.640625 0.015625 0.546875 0.015625 Z M 0.546875 -0.171875 C 0.609375 -0.171875 0.660156 -0.179688 0.703125 -0.203125 C 0.753906 -0.234375 0.789062 -0.269531 0.8125 -0.3125 C 0.84375 -0.363281 0.859375 -0.425781 0.859375 -0.5 C 0.859375 -0.5625 0.84375 -0.613281 0.8125 -0.65625 C 0.789062 -0.707031 0.753906 -0.742188 0.703125 -0.765625 C 0.660156 -0.796875 0.609375 -0.8125 0.546875 -0.8125 C 0.492188 -0.8125 0.441406 -0.796875 0.390625 -0.765625 C 0.347656 -0.742188 0.3125 -0.707031 0.28125 -0.65625 C 0.257812 -0.613281 0.25 -0.5625 0.25 -0.5 C 0.25 -0.425781 0.257812 -0.363281 0.28125 -0.3125 C 0.3125 -0.269531 0.347656 -0.234375 0.390625 -0.203125 C 0.441406 -0.179688 0.492188 -0.171875 0.546875 -0.171875 Z M 0.71875 -1.1875 L 0.390625 -1.03125 L 0.390625 -1.171875 L 0.71875 -1.34375 Z M 0.71875 -1.1875 "/></g></g></g><g fill="#ffffff" fill-opacity="1"><g transform="translate(15.78926, 19.351664)"><g><path d="M 0.296875 -0.15625 L 0.625 -0.15625 L 0.625 0 L 0.09375 0 L 0.09375 -0.984375 L 0.296875 -0.984375 Z M 0.296875 -0.15625 "/></g></g></g><g fill="#ffffff" fill-opacity="1"><g transform="translate(17.048774, 19.351664)"><g><path d="M 0.546875 0.015625 C 0.460938 0.015625 0.378906 -0.00390625 0.296875 -0.046875 C 0.222656 -0.0976562 0.160156 -0.160156 0.109375 -0.234375 C 0.0664062 -0.304688 0.046875 -0.394531 0.046875 -0.5 C 0.046875 -0.59375 0.0664062 -0.675781 0.109375 -0.75 C 0.160156 -0.820312 0.222656 -0.878906 0.296875 -0.921875 C 0.378906 -0.972656 0.460938 -1 0.546875 -1 C 0.640625 -1 0.722656 -0.972656 0.796875 -0.921875 C 0.878906 -0.878906 0.941406 -0.820312 0.984375 -0.75 C 1.023438 -0.675781 1.046875 -0.59375 1.046875 -0.5 C 1.046875 -0.394531 1.023438 -0.304688 0.984375 -0.234375 C 0.941406 -0.160156 0.878906 -0.0976562 0.796875 -0.046875 C 0.722656 -0.00390625 0.640625 0.015625 0.546875 0.015625 Z M 0.546875 -0.171875 C 0.609375 -0.171875 0.660156 -0.179688 0.703125 -0.203125 C 0.753906 -0.234375 0.789062 -0.269531 0.8125 -0.3125 C 0.84375 -0.363281 0.859375 -0.425781 0.859375 -0.5 C 0.859375 -0.5625 0.84375 -0.613281 0.8125 -0.65625 C 0.789062 -0.707031 0.753906 -0.742188 0.703125 -0.765625 C 0.660156 -0.796875 0.609375 -0.8125 0.546875 -0.8125 C 0.492188 -0.8125 0.441406 -0.796875 0.390625 -0.765625 C 0.347656 -0.742188 0.3125 -0.707031 0.28125 -0.65625 C 0.257812 -0.613281 0.25 -0.5625 0.25 -0.5 C 0.25 -0.425781 0.257812 -0.363281 0.28125 -0.3125 C 0.3125 -0.269531 0.347656 -0.234375 0.390625 -0.203125 C 0.441406 -0.179688 0.492188 -0.171875 0.546875 -0.171875 Z M 0.546875 -0.171875 "/></g></g></g><g fill="#ffffff" fill-opacity="1"><g transform="translate(18.767061, 19.351664)"><g><path d="M 0.78125 -0.6875 C 0.757812 -0.726562 0.726562 -0.757812 0.6875 -0.78125 C 0.644531 -0.800781 0.597656 -0.8125 0.546875 -0.8125 C 0.492188 -0.8125 0.441406 -0.796875 0.390625 -0.765625 C 0.347656 -0.742188 0.3125 -0.707031 0.28125 -0.65625 C 0.257812 -0.613281 0.25 -0.554688 0.25 -0.484375 C 0.25 -0.421875 0.257812 -0.363281 0.28125 -0.3125 C 0.3125 -0.269531 0.347656 -0.234375 0.390625 -0.203125 C 0.441406 -0.179688 0.5 -0.171875 0.5625 -0.171875 C 0.632812 -0.171875 0.691406 -0.1875 0.734375 -0.21875 C 0.785156 -0.257812 0.820312 -0.316406 0.84375 -0.390625 L 0.5 -0.390625 L 0.5 -0.546875 L 1.03125 -0.546875 L 1.03125 -0.375 C 1.019531 -0.300781 0.988281 -0.234375 0.9375 -0.171875 C 0.894531 -0.117188 0.835938 -0.0703125 0.765625 -0.03125 C 0.703125 0 0.628906 0.015625 0.546875 0.015625 C 0.453125 0.015625 0.367188 -0.00390625 0.296875 -0.046875 C 0.222656 -0.0976562 0.160156 -0.160156 0.109375 -0.234375 C 0.0664062 -0.304688 0.046875 -0.390625 0.046875 -0.484375 C 0.046875 -0.585938 0.0664062 -0.675781 0.109375 -0.75 C 0.160156 -0.820312 0.222656 -0.878906 0.296875 -0.921875 C 0.367188 -0.972656 0.453125 -1 0.546875 -1 C 0.660156 -1 0.753906 -0.96875 0.828125 -0.90625 C 0.910156 -0.851562 0.96875 -0.78125 1 -0.6875 Z M 0.78125 -0.6875 "/></g></g></g><g fill="#ffffff" fill-opacity="1"><g transform="translate(20.461424, 19.351664)"><g><path d="M 0.546875 0.015625 C 0.460938 0.015625 0.378906 -0.00390625 0.296875 -0.046875 C 0.222656 -0.0976562 0.160156 -0.160156 0.109375 -0.234375 C 0.0664062 -0.304688 0.046875 -0.394531 0.046875 -0.5 C 0.046875 -0.59375 0.0664062 -0.675781 0.109375 -0.75 C 0.160156 -0.820312 0.222656 -0.878906 0.296875 -0.921875 C 0.378906 -0.972656 0.460938 -1 0.546875 -1 C 0.640625 -1 0.722656 -0.972656 0.796875 -0.921875 C 0.878906 -0.878906 0.941406 -0.820312 0.984375 -0.75 C 1.023438 -0.675781 1.046875 -0.59375 1.046875 -0.5 C 1.046875 -0.394531 1.023438 -0.304688 0.984375 -0.234375 C 0.941406 -0.160156 0.878906 -0.0976562 0.796875 -0.046875 C 0.722656 -0.00390625 0.640625 0.015625 0.546875 0.015625 Z M 0.546875 -0.171875 C 0.609375 -0.171875 0.660156 -0.179688 0.703125 -0.203125 C 0.753906 -0.234375 0.789062 -0.269531 0.8125 -0.3125 C 0.84375 -0.363281 0.859375 -0.425781 0.859375 -0.5 C 0.859375 -0.5625 0.84375 -0.613281 0.8125 -0.65625 C 0.789062 -0.707031 0.753906 -0.742188 0.703125 -0.765625 C 0.660156 -0.796875 0.609375 -0.8125 0.546875 -0.8125 C 0.492188 -0.8125 0.441406 -0.796875 0.390625 -0.765625 C 0.347656 -0.742188 0.3125 -0.707031 0.28125 -0.65625 C 0.257812 -0.613281 0.25 -0.5625 0.25 -0.5 C 0.25 -0.425781 0.257812 -0.363281 0.28125 -0.3125 C 0.3125 -0.269531 0.347656 -0.234375 0.390625 -0.203125 C 0.441406 -0.179688 0.492188 -0.171875 0.546875 -0.171875 Z M 0.546875 -0.171875 "/></g></g></g></svg>