<svg xmlns="http://www.w3.org/2000/svg" xmlns:xlink="http://www.w3.org/1999/xlink" width="500" zoomAndPan="magnify" viewBox="0 0 375 374.999991" height="500" preserveAspectRatio="xMidYMid meet" version="1.0"><defs><g/><clipPath id="8b4450cde6"><path d="M 138.921875 119 L 191 119 L 191 154 L 138.921875 154 Z M 138.921875 119 " clip-rule="nonzero"/></clipPath><clipPath id="0a73a2ebac"><path d="M 176 113.089844 L 221 113.089844 L 221 142 L 176 142 Z M 176 113.089844 " clip-rule="nonzero"/></clipPath></defs><rect x="-37.5" width="450" fill="#ffffff" y="-37.499999" height="449.999989" fill-opacity="1"/><rect x="-37.5" width="450" fill="#ffffff" y="-37.499999" height="449.999989" fill-opacity="1"/><path fill="#38b6ff" d="M 162.804688 156.058594 C 157.5 157.449219 151.730469 157.484375 146.285156 157.558594 C 144.777344 157.582031 143.269531 157.59375 141.765625 157.613281 C 144.0625 160.472656 147.589844 162.300781 151.542969 162.300781 C 151.695312 162.300781 151.84375 162.296875 151.996094 162.289062 C 153.460938 167.597656 158.320312 171.492188 164.09375 171.492188 C 165.070312 171.492188 166.019531 171.382812 166.929688 171.171875 C 166.511719 166.59375 166.796875 161.472656 168.730469 157.363281 C 169.574219 155.5625 170.792969 154.097656 172.261719 152.964844 C 169.085938 153.933594 166.007812 155.214844 162.804688 156.058594 " fill-opacity="1" fill-rule="nonzero"/><g clip-path="url(#8b4450cde6)"><path fill="#004aad" d="M 190.429688 140.636719 C 190.207031 139.484375 189.953125 138.4375 189.371094 137.488281 C 189.074219 137 189.0625 136.945312 188.734375 136.605469 C 188.410156 136.269531 188.140625 136.023438 187.96875 135.910156 C 186.28125 134.78125 184.269531 134.367188 182.101562 134.070312 C 179.875 133.765625 177.207031 133.800781 175.796875 131.730469 C 174.527344 129.871094 174.847656 127.121094 174.386719 124.996094 C 174.246094 124.367188 174.074219 123.777344 173.863281 123.21875 C 171.632812 121.175781 168.664062 119.921875 165.398438 119.921875 C 158.464844 119.921875 152.847656 125.542969 152.847656 132.472656 C 152.847656 134.230469 153.207031 135.898438 153.859375 137.417969 C 153.109375 137.277344 152.335938 137.199219 151.542969 137.199219 C 144.613281 137.199219 138.992188 142.820312 138.992188 149.75 C 138.992188 150.96875 139.167969 152.144531 139.492188 153.257812 C 142.230469 153.199219 144.96875 153.191406 147.707031 153.132812 C 152.792969 153.027344 158.136719 152.964844 163.027344 151.402344 C 166.769531 150.203125 170.433594 148.675781 174.296875 147.890625 C 178.078125 147.117188 182.105469 146.894531 185.261719 149.457031 C 185.511719 149.410156 185.761719 149.355469 186.007812 149.292969 C 187.085938 149.027344 187.714844 148.847656 188.492188 148.367188 C 189.082031 148.003906 189.507812 147.625 189.828125 147.082031 C 190.234375 146.378906 190.527344 145.507812 190.597656 144.496094 C 190.6875 143.214844 190.671875 141.902344 190.429688 140.636719 " fill-opacity="1" fill-rule="nonzero"/></g><g clip-path="url(#0a73a2ebac)"><path fill="#38b6ff" d="M 179.042969 126.46875 C 179.171875 127.527344 179.164062 128.296875 179.441406 129.199219 L 179.445312 129.214844 C 179.496094 129.238281 179.539062 129.253906 179.535156 129.253906 C 179.679688 129.296875 179.824219 129.335938 179.972656 129.367188 C 181.160156 129.609375 182.375 129.6875 183.574219 129.871094 C 185.707031 130.195312 187.953125 130.695312 189.804688 131.859375 C 192.996094 133.867188 194.546875 137.367188 194.945312 141.011719 C 203.800781 140.980469 213.226562 139.84375 219.828125 133.347656 C 219.984375 133.191406 220.148438 133.074219 220.3125 132.976562 C 220.316406 132.8125 220.324219 132.644531 220.324219 132.472656 C 220.324219 125.542969 214.707031 119.921875 207.773438 119.921875 C 204.675781 119.921875 201.84375 121.046875 199.652344 122.910156 C 198.410156 117.285156 193.398438 113.078125 187.402344 113.078125 C 182.894531 113.078125 178.945312 115.453125 176.730469 119.023438 C 177.367188 120.019531 177.875 121.101562 178.222656 122.261719 C 178.640625 123.636719 178.871094 125.046875 179.042969 126.46875 " fill-opacity="1" fill-rule="nonzero"/></g><path fill="#5271ff" d="M 226.363281 164.382812 C 226.105469 162.574219 225.816406 160.511719 224.558594 159.082031 C 222.023438 156.210938 218.449219 154.863281 214.742188 154.539062 C 214.773438 155.328125 214.785156 156.117188 214.785156 156.90625 C 214.789062 159.746094 210.386719 159.742188 210.382812 156.90625 C 210.378906 154.046875 210.398438 151.214844 209.324219 148.554688 C 208.445312 146.371094 206.449219 145.117188 203.78125 144.925781 C 203.71875 144.921875 203.652344 144.910156 203.589844 144.902344 C 200.710938 145.265625 197.78125 145.402344 194.890625 145.414062 C 194.882812 145.503906 194.871094 145.589844 194.855469 145.679688 C 194.167969 150.476562 190.453125 153.019531 185.929688 153.796875 C 183.488281 154.214844 180.929688 154.191406 178.53125 154.78125 C 176.601562 155.257812 174.699219 156.199219 173.671875 157.628906 C 172.398438 159.398438 171.8125 161.328125 171.496094 163.546875 C 171.21875 165.496094 171.144531 167.542969 171.234375 169.5625 C 173.46875 171.628906 176.457031 172.894531 179.742188 172.894531 C 184.324219 172.894531 188.328125 170.441406 190.519531 166.773438 C 192.757812 168.851562 195.757812 170.125 199.054688 170.125 C 200.648438 170.125 202.167969 169.824219 203.570312 169.285156 C 205.664062 173.300781 209.859375 176.042969 214.703125 176.042969 C 220.453125 176.042969 225.292969 172.175781 226.78125 166.90625 C 226.613281 166.082031 226.484375 165.242188 226.363281 164.382812 " fill-opacity="1" fill-rule="nonzero"/><path fill="#004aad" d="M 223.421875 137.199219 C 222.964844 137.199219 222.511719 137.226562 222.066406 137.277344 C 218.808594 140.203125 215.03125 142.121094 211 143.355469 C 211.886719 144.171875 212.628906 145.175781 213.148438 146.386719 C 213.671875 147.59375 214.027344 148.835938 214.273438 150.101562 C 218.953125 150.351562 223.789062 151.902344 227.097656 155.347656 C 228.503906 156.816406 229.476562 158.519531 230.046875 160.410156 C 233.605469 158.195312 235.972656 154.25 235.972656 149.75 C 235.972656 142.820312 230.355469 137.199219 223.421875 137.199219 " fill-opacity="1" fill-rule="nonzero"/><path fill="#5271ff" d="M 194.742188 169.363281 C 194.742188 169.363281 196.570312 170.570312 200.847656 171.085938 C 205.128906 171.601562 206.65625 176.035156 207.144531 177.566406 C 207.632812 179.09375 209.773438 186.976562 215.273438 191.683594 C 220.773438 196.390625 220.40625 192.480469 222.484375 191.378906 C 224.5625 190.277344 223.769531 188.566406 222.121094 187.160156 C 220.46875 185.757812 219.125 180.4375 220.285156 177.6875 C 221.449219 174.9375 221.628906 174.332031 223.011719 172.894531 C 224.398438 171.457031 199.636719 161.460938 194.742188 169.363281 " fill-opacity="1" fill-rule="nonzero"/><g fill="#000000" fill-opacity="1"><g transform="translate(36.644533, 225.067032)"><g><path d="M 19.1875 -5.671875 L 6.9375 -5.671875 L 4.515625 0 L -0.171875 0 L 10.84375 -24.5 L 15.328125 -24.5 L 26.390625 0 L 21.625 0 Z M 17.671875 -9.234375 L 13.0625 -19.953125 L 8.46875 -9.234375 Z M 17.671875 -9.234375 "/></g></g></g><g fill="#000000" fill-opacity="1"><g transform="translate(62.853619, 225.067032)"><g><path d="M 13.46875 -18.90625 C 15.832031 -18.90625 17.722656 -18.210938 19.140625 -16.828125 C 20.566406 -15.453125 21.28125 -13.410156 21.28125 -10.703125 L 21.28125 0 L 16.90625 0 L 16.90625 -10.15625 C 16.90625 -11.78125 16.519531 -13.003906 15.75 -13.828125 C 14.976562 -14.660156 13.878906 -15.078125 12.453125 -15.078125 C 10.847656 -15.078125 9.578125 -14.59375 8.640625 -13.625 C 7.710938 -12.664062 7.25 -11.273438 7.25 -9.453125 L 7.25 0 L 2.875 0 L 2.875 -18.6875 L 7.03125 -18.6875 L 7.03125 -16.28125 C 7.757812 -17.132812 8.671875 -17.785156 9.765625 -18.234375 C 10.859375 -18.679688 12.09375 -18.90625 13.46875 -18.90625 Z M 13.46875 -18.90625 "/></g></g></g><g fill="#000000" fill-opacity="1"><g transform="translate(86.82321, 225.067032)"><g><path d="M 21.171875 -25.96875 L 21.171875 0 L 16.96875 0 L 16.96875 -2.421875 C 16.25 -1.523438 15.359375 -0.851562 14.296875 -0.40625 C 13.234375 0.03125 12.0625 0.25 10.78125 0.25 C 8.976562 0.25 7.359375 -0.144531 5.921875 -0.9375 C 4.492188 -1.738281 3.367188 -2.867188 2.546875 -4.328125 C 1.734375 -5.785156 1.328125 -7.457031 1.328125 -9.34375 C 1.328125 -11.238281 1.734375 -12.90625 2.546875 -14.34375 C 3.367188 -15.789062 4.492188 -16.910156 5.921875 -17.703125 C 7.359375 -18.503906 8.976562 -18.90625 10.78125 -18.90625 C 12.019531 -18.90625 13.148438 -18.691406 14.171875 -18.265625 C 15.203125 -17.847656 16.078125 -17.21875 16.796875 -16.375 L 16.796875 -25.96875 Z M 11.3125 -3.5 C 12.351562 -3.5 13.296875 -3.738281 14.140625 -4.21875 C 14.984375 -4.695312 15.648438 -5.378906 16.140625 -6.265625 C 16.628906 -7.148438 16.875 -8.175781 16.875 -9.34375 C 16.875 -10.507812 16.628906 -11.535156 16.140625 -12.421875 C 15.648438 -13.304688 14.984375 -13.988281 14.140625 -14.46875 C 13.296875 -14.945312 12.351562 -15.1875 11.3125 -15.1875 C 10.257812 -15.1875 9.3125 -14.945312 8.46875 -14.46875 C 7.625 -13.988281 6.957031 -13.304688 6.46875 -12.421875 C 5.976562 -11.535156 5.734375 -10.507812 5.734375 -9.34375 C 5.734375 -8.175781 5.976562 -7.148438 6.46875 -6.265625 C 6.957031 -5.378906 7.625 -4.695312 8.46875 -4.21875 C 9.3125 -3.738281 10.257812 -3.5 11.3125 -3.5 Z M 11.3125 -3.5 "/></g></g></g><g fill="#000000" fill-opacity="1"><g transform="translate(110.862782, 225.067032)"><g><path d="M 20.4375 -9.234375 C 20.4375 -8.929688 20.414062 -8.5 20.375 -7.9375 L 5.703125 -7.9375 C 5.960938 -6.5625 6.632812 -5.472656 7.71875 -4.671875 C 8.800781 -3.867188 10.148438 -3.46875 11.765625 -3.46875 C 13.816406 -3.46875 15.503906 -4.144531 16.828125 -5.5 L 19.1875 -2.796875 C 18.34375 -1.796875 17.273438 -1.035156 15.984375 -0.515625 C 14.703125 -0.00390625 13.257812 0.25 11.65625 0.25 C 9.601562 0.25 7.796875 -0.15625 6.234375 -0.96875 C 4.671875 -1.789062 3.460938 -2.929688 2.609375 -4.390625 C 1.753906 -5.847656 1.328125 -7.5 1.328125 -9.34375 C 1.328125 -11.164062 1.738281 -12.804688 2.5625 -14.265625 C 3.394531 -15.722656 4.546875 -16.859375 6.015625 -17.671875 C 7.484375 -18.492188 9.140625 -18.90625 10.984375 -18.90625 C 12.804688 -18.90625 14.4375 -18.5 15.875 -17.6875 C 17.3125 -16.882812 18.429688 -15.753906 19.234375 -14.296875 C 20.035156 -12.835938 20.4375 -11.148438 20.4375 -9.234375 Z M 10.984375 -15.40625 C 9.585938 -15.40625 8.40625 -14.988281 7.4375 -14.15625 C 6.46875 -13.332031 5.878906 -12.226562 5.671875 -10.84375 L 16.28125 -10.84375 C 16.09375 -12.195312 15.519531 -13.296875 14.5625 -14.140625 C 13.601562 -14.984375 12.410156 -15.40625 10.984375 -15.40625 Z M 10.984375 -15.40625 "/></g></g></g><g fill="#000000" fill-opacity="1"><g transform="translate(132.627864, 225.067032)"><g><path d="M 7.03125 -15.953125 C 8.289062 -17.921875 10.507812 -18.90625 13.6875 -18.90625 L 13.6875 -14.734375 C 13.3125 -14.804688 12.972656 -14.84375 12.671875 -14.84375 C 10.960938 -14.84375 9.628906 -14.34375 8.671875 -13.34375 C 7.722656 -12.351562 7.25 -10.925781 7.25 -9.0625 L 7.25 0 L 2.875 0 L 2.875 -18.6875 L 7.03125 -18.6875 Z M 7.03125 -15.953125 "/></g></g></g><g fill="#000000" fill-opacity="1"><g transform="translate(147.324549, 225.067032)"><g><path d="M 8.640625 0.25 C 7.128906 0.25 5.648438 0.0507812 4.203125 -0.34375 C 2.753906 -0.738281 1.597656 -1.242188 0.734375 -1.859375 L 2.421875 -5.1875 C 3.253906 -4.625 4.257812 -4.171875 5.4375 -3.828125 C 6.613281 -3.492188 7.773438 -3.328125 8.921875 -3.328125 C 11.535156 -3.328125 12.84375 -4.015625 12.84375 -5.390625 C 12.84375 -6.046875 12.507812 -6.5 11.84375 -6.75 C 11.175781 -7.007812 10.109375 -7.253906 8.640625 -7.484375 C 7.097656 -7.722656 5.84375 -7.992188 4.875 -8.296875 C 3.914062 -8.597656 3.078125 -9.128906 2.359375 -9.890625 C 1.648438 -10.648438 1.296875 -11.707031 1.296875 -13.0625 C 1.296875 -14.832031 2.035156 -16.25 3.515625 -17.3125 C 4.992188 -18.375 6.992188 -18.90625 9.515625 -18.90625 C 10.796875 -18.90625 12.078125 -18.757812 13.359375 -18.46875 C 14.648438 -18.175781 15.703125 -17.785156 16.515625 -17.296875 L 14.84375 -13.96875 C 13.25 -14.894531 11.460938 -15.359375 9.484375 -15.359375 C 8.203125 -15.359375 7.226562 -15.164062 6.5625 -14.78125 C 5.894531 -14.394531 5.5625 -13.890625 5.5625 -13.265625 C 5.5625 -12.566406 5.914062 -12.070312 6.625 -11.78125 C 7.34375 -11.488281 8.445312 -11.210938 9.9375 -10.953125 C 11.4375 -10.722656 12.660156 -10.453125 13.609375 -10.140625 C 14.566406 -9.835938 15.390625 -9.328125 16.078125 -8.609375 C 16.765625 -7.890625 17.109375 -6.863281 17.109375 -5.53125 C 17.109375 -3.78125 16.347656 -2.378906 14.828125 -1.328125 C 13.316406 -0.273438 11.253906 0.25 8.640625 0.25 Z M 8.640625 0.25 "/></g></g></g><g fill="#000000" fill-opacity="1"><g transform="translate(165.345479, 225.067032)"><g><path d="M 11.265625 0.25 C 9.378906 0.25 7.675781 -0.15625 6.15625 -0.96875 C 4.644531 -1.789062 3.460938 -2.929688 2.609375 -4.390625 C 1.753906 -5.847656 1.328125 -7.5 1.328125 -9.34375 C 1.328125 -11.1875 1.753906 -12.832031 2.609375 -14.28125 C 3.460938 -15.726562 4.644531 -16.859375 6.15625 -17.671875 C 7.675781 -18.492188 9.378906 -18.90625 11.265625 -18.90625 C 13.179688 -18.90625 14.894531 -18.492188 16.40625 -17.671875 C 17.925781 -16.859375 19.113281 -15.726562 19.96875 -14.28125 C 20.820312 -12.832031 21.25 -11.1875 21.25 -9.34375 C 21.25 -7.5 20.820312 -5.847656 19.96875 -4.390625 C 19.113281 -2.929688 17.925781 -1.789062 16.40625 -0.96875 C 14.894531 -0.15625 13.179688 0.25 11.265625 0.25 Z M 11.265625 -3.5 C 12.878906 -3.5 14.207031 -4.035156 15.25 -5.109375 C 16.300781 -6.179688 16.828125 -7.59375 16.828125 -9.34375 C 16.828125 -11.09375 16.300781 -12.503906 15.25 -13.578125 C 14.207031 -14.648438 12.878906 -15.1875 11.265625 -15.1875 C 9.660156 -15.1875 8.335938 -14.648438 7.296875 -13.578125 C 6.253906 -12.503906 5.734375 -11.09375 5.734375 -9.34375 C 5.734375 -7.59375 6.253906 -6.179688 7.296875 -5.109375 C 8.335938 -4.035156 9.660156 -3.5 11.265625 -3.5 Z M 11.265625 -3.5 "/></g></g></g><g fill="#000000" fill-opacity="1"><g transform="translate(187.915378, 225.067032)"><g><path d="M 13.46875 -18.90625 C 15.832031 -18.90625 17.722656 -18.210938 19.140625 -16.828125 C 20.566406 -15.453125 21.28125 -13.410156 21.28125 -10.703125 L 21.28125 0 L 16.90625 0 L 16.90625 -10.15625 C 16.90625 -11.78125 16.519531 -13.003906 15.75 -13.828125 C 14.976562 -14.660156 13.878906 -15.078125 12.453125 -15.078125 C 10.847656 -15.078125 9.578125 -14.59375 8.640625 -13.625 C 7.710938 -12.664062 7.25 -11.273438 7.25 -9.453125 L 7.25 0 L 2.875 0 L 2.875 -18.6875 L 7.03125 -18.6875 L 7.03125 -16.28125 C 7.757812 -17.132812 8.671875 -17.785156 9.765625 -18.234375 C 10.859375 -18.679688 12.09375 -18.90625 13.46875 -18.90625 Z M 13.46875 -18.90625 "/></g></g></g><g fill="#000000" fill-opacity="1"><g transform="translate(211.884969, 225.067032)"><g/></g></g><g fill="#000000" fill-opacity="1"><g transform="translate(221.542787, 225.067032)"><g><path d="M 14.625 0.34375 C 12.15625 0.34375 9.921875 -0.195312 7.921875 -1.28125 C 5.929688 -2.363281 4.367188 -3.859375 3.234375 -5.765625 C 2.109375 -7.679688 1.546875 -9.84375 1.546875 -12.25 C 1.546875 -14.65625 2.113281 -16.8125 3.25 -18.71875 C 4.394531 -20.632812 5.960938 -22.132812 7.953125 -23.21875 C 9.953125 -24.300781 12.191406 -24.84375 14.671875 -24.84375 C 16.671875 -24.84375 18.5 -24.492188 20.15625 -23.796875 C 21.8125 -23.097656 23.210938 -22.082031 24.359375 -20.75 L 21.421875 -17.984375 C 19.648438 -19.898438 17.46875 -20.859375 14.875 -20.859375 C 13.195312 -20.859375 11.691406 -20.488281 10.359375 -19.75 C 9.023438 -19.019531 7.984375 -18 7.234375 -16.6875 C 6.492188 -15.382812 6.125 -13.90625 6.125 -12.25 C 6.125 -10.59375 6.492188 -9.109375 7.234375 -7.796875 C 7.984375 -6.492188 9.023438 -5.472656 10.359375 -4.734375 C 11.691406 -4.003906 13.195312 -3.640625 14.875 -3.640625 C 17.46875 -3.640625 19.648438 -4.609375 21.421875 -6.546875 L 24.359375 -3.75 C 23.210938 -2.414062 21.804688 -1.398438 20.140625 -0.703125 C 18.472656 -0.00390625 16.632812 0.34375 14.625 0.34375 Z M 14.625 0.34375 "/></g></g></g><g fill="#000000" fill-opacity="1"><g transform="translate(246.982028, 225.067032)"><g><path d="M 10.015625 -18.90625 C 12.765625 -18.90625 14.867188 -18.242188 16.328125 -16.921875 C 17.785156 -15.597656 18.515625 -13.609375 18.515625 -10.953125 L 18.515625 0 L 14.390625 0 L 14.390625 -2.28125 C 13.847656 -1.457031 13.082031 -0.828125 12.09375 -0.390625 C 11.101562 0.0351562 9.90625 0.25 8.5 0.25 C 7.101562 0.25 5.878906 0.0078125 4.828125 -0.46875 C 3.773438 -0.945312 2.960938 -1.613281 2.390625 -2.46875 C 1.828125 -3.320312 1.546875 -4.285156 1.546875 -5.359375 C 1.546875 -7.035156 2.164062 -8.378906 3.40625 -9.390625 C 4.65625 -10.410156 6.625 -10.921875 9.3125 -10.921875 L 14.140625 -10.921875 L 14.140625 -11.203125 C 14.140625 -12.503906 13.75 -13.503906 12.96875 -14.203125 C 12.1875 -14.910156 11.023438 -15.265625 9.484375 -15.265625 C 8.429688 -15.265625 7.394531 -15.097656 6.375 -14.765625 C 5.363281 -14.441406 4.507812 -13.988281 3.8125 -13.40625 L 2.09375 -16.59375 C 3.070312 -17.332031 4.25 -17.898438 5.625 -18.296875 C 7.007812 -18.703125 8.472656 -18.90625 10.015625 -18.90625 Z M 9.421875 -2.9375 C 10.515625 -2.9375 11.484375 -3.1875 12.328125 -3.6875 C 13.179688 -4.1875 13.785156 -4.90625 14.140625 -5.84375 L 14.140625 -8.015625 L 9.625 -8.015625 C 7.101562 -8.015625 5.84375 -7.1875 5.84375 -5.53125 C 5.84375 -4.738281 6.15625 -4.109375 6.78125 -3.640625 C 7.414062 -3.171875 8.296875 -2.9375 9.421875 -2.9375 Z M 9.421875 -2.9375 "/></g></g></g><g fill="#000000" fill-opacity="1"><g transform="translate(268.222215, 225.067032)"><g><path d="M 8.640625 0.25 C 7.128906 0.25 5.648438 0.0507812 4.203125 -0.34375 C 2.753906 -0.738281 1.597656 -1.242188 0.734375 -1.859375 L 2.421875 -5.1875 C 3.253906 -4.625 4.257812 -4.171875 5.4375 -3.828125 C 6.613281 -3.492188 7.773438 -3.328125 8.921875 -3.328125 C 11.535156 -3.328125 12.84375 -4.015625 12.84375 -5.390625 C 12.84375 -6.046875 12.507812 -6.5 11.84375 -6.75 C 11.175781 -7.007812 10.109375 -7.253906 8.640625 -7.484375 C 7.097656 -7.722656 5.84375 -7.992188 4.875 -8.296875 C 3.914062 -8.597656 3.078125 -9.128906 2.359375 -9.890625 C 1.648438 -10.648438 1.296875 -11.707031 1.296875 -13.0625 C 1.296875 -14.832031 2.035156 -16.25 3.515625 -17.3125 C 4.992188 -18.375 6.992188 -18.90625 9.515625 -18.90625 C 10.796875 -18.90625 12.078125 -18.757812 13.359375 -18.46875 C 14.648438 -18.175781 15.703125 -17.785156 16.515625 -17.296875 L 14.84375 -13.96875 C 13.25 -14.894531 11.460938 -15.359375 9.484375 -15.359375 C 8.203125 -15.359375 7.226562 -15.164062 6.5625 -14.78125 C 5.894531 -14.394531 5.5625 -13.890625 5.5625 -13.265625 C 5.5625 -12.566406 5.914062 -12.070312 6.625 -11.78125 C 7.34375 -11.488281 8.445312 -11.210938 9.9375 -10.953125 C 11.4375 -10.722656 12.660156 -10.453125 13.609375 -10.140625 C 14.566406 -9.835938 15.390625 -9.328125 16.078125 -8.609375 C 16.765625 -7.890625 17.109375 -6.863281 17.109375 -5.53125 C 17.109375 -3.78125 16.347656 -2.378906 14.828125 -1.328125 C 13.316406 -0.273438 11.253906 0.25 8.640625 0.25 Z M 8.640625 0.25 "/></g></g></g><g fill="#000000" fill-opacity="1"><g transform="translate(286.243134, 225.067032)"><g><path d="M 14.109375 -1.015625 C 13.585938 -0.597656 12.957031 -0.28125 12.21875 -0.0625 C 11.488281 0.144531 10.71875 0.25 9.90625 0.25 C 7.851562 0.25 6.265625 -0.285156 5.140625 -1.359375 C 4.023438 -2.429688 3.46875 -4 3.46875 -6.0625 L 3.46875 -15.046875 L 0.390625 -15.046875 L 0.390625 -18.546875 L 3.46875 -18.546875 L 3.46875 -22.8125 L 7.84375 -22.8125 L 7.84375 -18.546875 L 12.84375 -18.546875 L 12.84375 -15.046875 L 7.84375 -15.046875 L 7.84375 -6.15625 C 7.84375 -5.25 8.0625 -4.554688 8.5 -4.078125 C 8.945312 -3.597656 9.59375 -3.359375 10.4375 -3.359375 C 11.414062 -3.359375 12.226562 -3.613281 12.875 -4.125 Z M 14.109375 -1.015625 "/></g></g></g><g fill="#000000" fill-opacity="1"><g transform="translate(301.07978, 225.067032)"><g><path d="M 7.03125 -15.953125 C 8.289062 -17.921875 10.507812 -18.90625 13.6875 -18.90625 L 13.6875 -14.734375 C 13.3125 -14.804688 12.972656 -14.84375 12.671875 -14.84375 C 10.960938 -14.84375 9.628906 -14.34375 8.671875 -13.34375 C 7.722656 -12.351562 7.25 -10.925781 7.25 -9.0625 L 7.25 0 L 2.875 0 L 2.875 -18.6875 L 7.03125 -18.6875 Z M 7.03125 -15.953125 "/></g></g></g><g fill="#000000" fill-opacity="1"><g transform="translate(315.776464, 225.067032)"><g><path d="M 11.265625 0.25 C 9.378906 0.25 7.675781 -0.15625 6.15625 -0.96875 C 4.644531 -1.789062 3.460938 -2.929688 2.609375 -4.390625 C 1.753906 -5.847656 1.328125 -7.5 1.328125 -9.34375 C 1.328125 -11.1875 1.753906 -12.832031 2.609375 -14.28125 C 3.460938 -15.726562 4.644531 -16.859375 6.15625 -17.671875 C 7.675781 -18.492188 9.378906 -18.90625 11.265625 -18.90625 C 13.179688 -18.90625 14.894531 -18.492188 16.40625 -17.671875 C 17.925781 -16.859375 19.113281 -15.726562 19.96875 -14.28125 C 20.820312 -12.832031 21.25 -11.1875 21.25 -9.34375 C 21.25 -7.5 20.820312 -5.847656 19.96875 -4.390625 C 19.113281 -2.929688 17.925781 -1.789062 16.40625 -0.96875 C 14.894531 -0.15625 13.179688 0.25 11.265625 0.25 Z M 11.265625 -3.5 C 12.878906 -3.5 14.207031 -4.035156 15.25 -5.109375 C 16.300781 -6.179688 16.828125 -7.59375 16.828125 -9.34375 C 16.828125 -11.09375 16.300781 -12.503906 15.25 -13.578125 C 14.207031 -14.648438 12.878906 -15.1875 11.265625 -15.1875 C 9.660156 -15.1875 8.335938 -14.648438 7.296875 -13.578125 C 6.253906 -12.503906 5.734375 -11.09375 5.734375 -9.34375 C 5.734375 -7.59375 6.253906 -6.179688 7.296875 -5.109375 C 8.335938 -4.035156 9.660156 -3.5 11.265625 -3.5 Z M 11.265625 -3.5 "/></g></g></g><g fill="#004aad" fill-opacity="1"><g transform="translate(117.492653, 247.817033)"><g><path d="M 8.671875 -7.234375 C 8.671875 -6.671875 8.535156 -6.144531 8.265625 -5.65625 C 8.003906 -5.164062 7.59375 -4.769531 7.03125 -4.46875 C 6.46875 -4.164062 5.753906 -4.015625 4.890625 -4.015625 L 3.140625 -4.015625 L 3.140625 0 L 1.03125 0 L 1.03125 -10.46875 L 4.890625 -10.46875 C 5.703125 -10.46875 6.390625 -10.328125 6.953125 -10.046875 C 7.523438 -9.765625 7.953125 -9.378906 8.234375 -8.890625 C 8.523438 -8.398438 8.671875 -7.847656 8.671875 -7.234375 Z M 4.796875 -5.71875 C 5.378906 -5.71875 5.8125 -5.847656 6.09375 -6.109375 C 6.375 -6.378906 6.515625 -6.753906 6.515625 -7.234375 C 6.515625 -8.253906 5.941406 -8.765625 4.796875 -8.765625 L 3.140625 -8.765625 L 3.140625 -5.71875 Z M 4.796875 -5.71875 "/></g></g></g><g fill="#004aad" fill-opacity="1"><g transform="translate(133.152645, 247.817033)"><g><path d="M 4.65625 0.109375 C 3.925781 0.109375 3.265625 -0.015625 2.671875 -0.265625 C 2.085938 -0.515625 1.625 -0.875 1.28125 -1.34375 C 0.945312 -1.820312 0.773438 -2.378906 0.765625 -3.015625 L 3.015625 -3.015625 C 3.046875 -2.585938 3.195312 -2.25 3.46875 -2 C 3.75 -1.75 4.128906 -1.625 4.609375 -1.625 C 5.097656 -1.625 5.484375 -1.738281 5.765625 -1.96875 C 6.046875 -2.207031 6.1875 -2.515625 6.1875 -2.890625 C 6.1875 -3.203125 6.085938 -3.457031 5.890625 -3.65625 C 5.703125 -3.851562 5.460938 -4.007812 5.171875 -4.125 C 4.890625 -4.25 4.5 -4.378906 4 -4.515625 C 3.320312 -4.710938 2.769531 -4.910156 2.34375 -5.109375 C 1.914062 -5.304688 1.550781 -5.597656 1.25 -5.984375 C 0.945312 -6.378906 0.796875 -6.910156 0.796875 -7.578125 C 0.796875 -8.191406 0.945312 -8.726562 1.25 -9.1875 C 1.5625 -9.65625 2 -10.007812 2.5625 -10.25 C 3.125 -10.5 3.765625 -10.625 4.484375 -10.625 C 5.566406 -10.625 6.441406 -10.359375 7.109375 -9.828125 C 7.785156 -9.304688 8.160156 -8.578125 8.234375 -7.640625 L 5.921875 -7.640625 C 5.898438 -7.992188 5.75 -8.285156 5.46875 -8.515625 C 5.1875 -8.753906 4.804688 -8.875 4.328125 -8.875 C 3.921875 -8.875 3.59375 -8.769531 3.34375 -8.5625 C 3.101562 -8.351562 2.984375 -8.050781 2.984375 -7.65625 C 2.984375 -7.375 3.078125 -7.140625 3.265625 -6.953125 C 3.453125 -6.765625 3.679688 -6.613281 3.953125 -6.5 C 4.222656 -6.382812 4.609375 -6.253906 5.109375 -6.109375 C 5.796875 -5.910156 6.351562 -5.707031 6.78125 -5.5 C 7.207031 -5.300781 7.578125 -5 7.890625 -4.59375 C 8.203125 -4.195312 8.359375 -3.675781 8.359375 -3.03125 C 8.359375 -2.46875 8.210938 -1.945312 7.921875 -1.46875 C 7.628906 -0.988281 7.203125 -0.601562 6.640625 -0.3125 C 6.085938 -0.03125 5.425781 0.109375 4.65625 0.109375 Z M 4.65625 0.109375 "/></g></g></g><g fill="#004aad" fill-opacity="1"><g transform="translate(148.827639, 247.817033)"><g><path d="M 3.140625 -10.46875 L 3.140625 0 L 1.03125 0 L 1.03125 -10.46875 Z M 3.140625 -10.46875 "/></g></g></g><g fill="#004aad" fill-opacity="1"><g transform="translate(159.537637, 247.817033)"><g><path d="M 0.53125 -5.25 C 0.53125 -6.28125 0.757812 -7.203125 1.21875 -8.015625 C 1.6875 -8.828125 2.320312 -9.460938 3.125 -9.921875 C 3.925781 -10.378906 4.828125 -10.609375 5.828125 -10.609375 C 7.003906 -10.609375 8.03125 -10.304688 8.90625 -9.703125 C 9.789062 -9.109375 10.40625 -8.28125 10.75 -7.21875 L 8.34375 -7.21875 C 8.101562 -7.71875 7.765625 -8.09375 7.328125 -8.34375 C 6.890625 -8.59375 6.382812 -8.71875 5.8125 -8.71875 C 5.207031 -8.71875 4.664062 -8.570312 4.1875 -8.28125 C 3.71875 -8 3.347656 -7.597656 3.078125 -7.078125 C 2.816406 -6.554688 2.6875 -5.945312 2.6875 -5.25 C 2.6875 -4.5625 2.816406 -3.953125 3.078125 -3.421875 C 3.347656 -2.898438 3.71875 -2.492188 4.1875 -2.203125 C 4.664062 -1.921875 5.207031 -1.78125 5.8125 -1.78125 C 6.382812 -1.78125 6.890625 -1.90625 7.328125 -2.15625 C 7.765625 -2.414062 8.101562 -2.796875 8.34375 -3.296875 L 10.75 -3.296875 C 10.40625 -2.222656 9.796875 -1.390625 8.921875 -0.796875 C 8.046875 -0.203125 7.015625 0.09375 5.828125 0.09375 C 4.828125 0.09375 3.925781 -0.132812 3.125 -0.59375 C 2.320312 -1.050781 1.6875 -1.679688 1.21875 -2.484375 C 0.757812 -3.296875 0.53125 -4.21875 0.53125 -5.25 Z M 0.53125 -5.25 "/></g></g></g><g fill="#004aad" fill-opacity="1"><g transform="translate(177.597626, 247.817033)"><g><path d="M 5.890625 0.109375 C 4.910156 0.109375 4.007812 -0.117188 3.1875 -0.578125 C 2.375 -1.046875 1.726562 -1.6875 1.25 -2.5 C 0.769531 -3.3125 0.53125 -4.234375 0.53125 -5.265625 C 0.53125 -6.285156 0.769531 -7.203125 1.25 -8.015625 C 1.726562 -8.828125 2.375 -9.460938 3.1875 -9.921875 C 4.007812 -10.390625 4.910156 -10.625 5.890625 -10.625 C 6.878906 -10.625 7.78125 -10.390625 8.59375 -9.921875 C 9.414062 -9.460938 10.0625 -8.828125 10.53125 -8.015625 C 11.007812 -7.203125 11.25 -6.285156 11.25 -5.265625 C 11.25 -4.234375 11.007812 -3.3125 10.53125 -2.5 C 10.0625 -1.6875 9.414062 -1.046875 8.59375 -0.578125 C 7.769531 -0.117188 6.867188 0.109375 5.890625 0.109375 Z M 5.890625 -1.765625 C 6.523438 -1.765625 7.082031 -1.90625 7.5625 -2.1875 C 8.039062 -2.476562 8.414062 -2.890625 8.6875 -3.421875 C 8.957031 -3.953125 9.09375 -4.566406 9.09375 -5.265625 C 9.09375 -5.960938 8.957031 -6.570312 8.6875 -7.09375 C 8.414062 -7.625 8.039062 -8.03125 7.5625 -8.3125 C 7.082031 -8.59375 6.523438 -8.734375 5.890625 -8.734375 C 5.265625 -8.734375 4.707031 -8.59375 4.21875 -8.3125 C 3.738281 -8.03125 3.363281 -7.625 3.09375 -7.09375 C 2.820312 -6.570312 2.6875 -5.960938 2.6875 -5.265625 C 2.6875 -4.566406 2.820312 -3.953125 3.09375 -3.421875 C 3.363281 -2.890625 3.738281 -2.476562 4.21875 -2.1875 C 4.707031 -1.90625 5.265625 -1.765625 5.890625 -1.765625 Z M 7.53125 -12.640625 L 4.09375 -11.0625 L 4.09375 -12.5625 L 7.53125 -14.359375 Z M 7.53125 -12.640625 "/></g></g></g><g fill="#004aad" fill-opacity="1"><g transform="translate(195.912612, 247.817033)"><g><path d="M 3.140625 -1.671875 L 6.578125 -1.671875 L 6.578125 0 L 1.03125 0 L 1.03125 -10.46875 L 3.140625 -10.46875 Z M 3.140625 -1.671875 "/></g></g></g><g fill="#004aad" fill-opacity="1"><g transform="translate(209.337607, 247.817033)"><g><path d="M 5.890625 0.109375 C 4.910156 0.109375 4.007812 -0.117188 3.1875 -0.578125 C 2.375 -1.046875 1.726562 -1.6875 1.25 -2.5 C 0.769531 -3.3125 0.53125 -4.234375 0.53125 -5.265625 C 0.53125 -6.285156 0.769531 -7.203125 1.25 -8.015625 C 1.726562 -8.828125 2.375 -9.460938 3.1875 -9.921875 C 4.007812 -10.390625 4.910156 -10.625 5.890625 -10.625 C 6.878906 -10.625 7.78125 -10.390625 8.59375 -9.921875 C 9.414062 -9.460938 10.0625 -8.828125 10.53125 -8.015625 C 11.007812 -7.203125 11.25 -6.285156 11.25 -5.265625 C 11.25 -4.234375 11.007812 -3.3125 10.53125 -2.5 C 10.0625 -1.6875 9.414062 -1.046875 8.59375 -0.578125 C 7.769531 -0.117188 6.867188 0.109375 5.890625 0.109375 Z M 5.890625 -1.765625 C 6.523438 -1.765625 7.082031 -1.90625 7.5625 -2.1875 C 8.039062 -2.476562 8.414062 -2.890625 8.6875 -3.421875 C 8.957031 -3.953125 9.09375 -4.566406 9.09375 -5.265625 C 9.09375 -5.960938 8.957031 -6.570312 8.6875 -7.09375 C 8.414062 -7.625 8.039062 -8.03125 7.5625 -8.3125 C 7.082031 -8.59375 6.523438 -8.734375 5.890625 -8.734375 C 5.265625 -8.734375 4.707031 -8.59375 4.21875 -8.3125 C 3.738281 -8.03125 3.363281 -7.625 3.09375 -7.09375 C 2.820312 -6.570312 2.6875 -5.960938 2.6875 -5.265625 C 2.6875 -4.566406 2.820312 -3.953125 3.09375 -3.421875 C 3.363281 -2.890625 3.738281 -2.476562 4.21875 -2.1875 C 4.707031 -1.90625 5.265625 -1.765625 5.890625 -1.765625 Z M 5.890625 -1.765625 "/></g></g></g><g fill="#004aad" fill-opacity="1"><g transform="translate(227.652593, 247.817033)"><g><path d="M 8.328125 -7.3125 C 8.085938 -7.757812 7.753906 -8.097656 7.328125 -8.328125 C 6.910156 -8.554688 6.421875 -8.671875 5.859375 -8.671875 C 5.242188 -8.671875 4.695312 -8.53125 4.21875 -8.25 C 3.738281 -7.96875 3.363281 -7.566406 3.09375 -7.046875 C 2.820312 -6.523438 2.6875 -5.925781 2.6875 -5.25 C 2.6875 -4.550781 2.820312 -3.941406 3.09375 -3.421875 C 3.375 -2.898438 3.757812 -2.5 4.25 -2.21875 C 4.738281 -1.9375 5.304688 -1.796875 5.953125 -1.796875 C 6.753906 -1.796875 7.410156 -2.007812 7.921875 -2.4375 C 8.429688 -2.863281 8.765625 -3.457031 8.921875 -4.21875 L 5.328125 -4.21875 L 5.328125 -5.8125 L 11 -5.8125 L 11 -3.984375 C 10.851562 -3.253906 10.550781 -2.578125 10.09375 -1.953125 C 9.632812 -1.335938 9.039062 -0.84375 8.3125 -0.46875 C 7.59375 -0.09375 6.78125 0.09375 5.875 0.09375 C 4.863281 0.09375 3.953125 -0.132812 3.140625 -0.59375 C 2.328125 -1.050781 1.6875 -1.679688 1.21875 -2.484375 C 0.757812 -3.296875 0.53125 -4.21875 0.53125 -5.25 C 0.53125 -6.28125 0.757812 -7.203125 1.21875 -8.015625 C 1.6875 -8.828125 2.328125 -9.460938 3.140625 -9.921875 C 3.953125 -10.378906 4.859375 -10.609375 5.859375 -10.609375 C 7.046875 -10.609375 8.070312 -10.316406 8.9375 -9.734375 C 9.8125 -9.160156 10.410156 -8.351562 10.734375 -7.3125 Z M 8.328125 -7.3125 "/></g></g></g><g fill="#004aad" fill-opacity="1"><g transform="translate(245.712582, 247.817033)"><g><path d="M 5.890625 0.109375 C 4.910156 0.109375 4.007812 -0.117188 3.1875 -0.578125 C 2.375 -1.046875 1.726562 -1.6875 1.25 -2.5 C 0.769531 -3.3125 0.53125 -4.234375 0.53125 -5.265625 C 0.53125 -6.285156 0.769531 -7.203125 1.25 -8.015625 C 1.726562 -8.828125 2.375 -9.460938 3.1875 -9.921875 C 4.007812 -10.390625 4.910156 -10.625 5.890625 -10.625 C 6.878906 -10.625 7.78125 -10.390625 8.59375 -9.921875 C 9.414062 -9.460938 10.0625 -8.828125 10.53125 -8.015625 C 11.007812 -7.203125 11.25 -6.285156 11.25 -5.265625 C 11.25 -4.234375 11.007812 -3.3125 10.53125 -2.5 C 10.0625 -1.6875 9.414062 -1.046875 8.59375 -0.578125 C 7.769531 -0.117188 6.867188 0.109375 5.890625 0.109375 Z M 5.890625 -1.765625 C 6.523438 -1.765625 7.082031 -1.90625 7.5625 -2.1875 C 8.039062 -2.476562 8.414062 -2.890625 8.6875 -3.421875 C 8.957031 -3.953125 9.09375 -4.566406 9.09375 -5.265625 C 9.09375 -5.960938 8.957031 -6.570312 8.6875 -7.09375 C 8.414062 -7.625 8.039062 -8.03125 7.5625 -8.3125 C 7.082031 -8.59375 6.523438 -8.734375 5.890625 -8.734375 C 5.265625 -8.734375 4.707031 -8.59375 4.21875 -8.3125 C 3.738281 -8.03125 3.363281 -7.625 3.09375 -7.09375 C 2.820312 -6.570312 2.6875 -5.960938 2.6875 -5.265625 C 2.6875 -4.566406 2.820312 -3.953125 3.09375 -3.421875 C 3.363281 -2.890625 3.738281 -2.476562 4.21875 -2.1875 C 4.707031 -1.90625 5.265625 -1.765625 5.890625 -1.765625 Z M 5.890625 -1.765625 "/></g></g></g></svg>