<svg xmlns="http://www.w3.org/2000/svg" xmlns:xlink="http://www.w3.org/1999/xlink" width="500" zoomAndPan="magnify" viewBox="0 0 375 374.999991" height="500" preserveAspectRatio="xMidYMid meet" version="1.0"><defs><g/><clipPath id="596de3078e"><path d="M 138.921875 125 L 191 125 L 191 159 L 138.921875 159 Z M 138.921875 125 " clip-rule="nonzero"/></clipPath><clipPath id="9b8c26ee46"><path d="M 176 118.621094 L 221 118.621094 L 221 147 L 176 147 Z M 176 118.621094 " clip-rule="nonzero"/></clipPath><clipPath id="886b974b52"><path d="M 211 142 L 235.625 142 L 235.625 166 L 211 166 Z M 211 142 " clip-rule="nonzero"/></clipPath></defs><rect x="-37.5" width="450" fill="#ffffff" y="-37.499999" height="449.999989" fill-opacity="1"/><rect x="-37.5" width="450" fill="#000000" y="-37.499999" height="449.999989" fill-opacity="1"/><path fill="#ffffff" d="M 162.808594 161.585938 C 157.507812 162.980469 151.738281 163.015625 146.289062 163.089844 C 144.78125 163.109375 143.277344 163.125 141.769531 163.144531 C 144.070312 166 147.59375 167.832031 151.546875 167.832031 C 151.699219 167.832031 151.851562 167.824219 152.003906 167.820312 C 153.46875 173.125 158.324219 177.023438 164.097656 177.023438 C 165.074219 177.023438 166.023438 176.910156 166.933594 176.699219 C 166.515625 172.125 166.800781 167.003906 168.734375 162.890625 C 169.578125 161.09375 170.792969 159.628906 172.265625 158.496094 C 169.089844 159.460938 166.011719 160.746094 162.808594 161.585938 " fill-opacity="1" fill-rule="nonzero"/><g clip-path="url(#596de3078e)"><path fill="#ffffff" d="M 190.429688 146.167969 C 190.210938 145.011719 189.953125 143.96875 189.375 143.015625 C 189.078125 142.53125 189.0625 142.476562 188.734375 142.136719 C 188.414062 141.800781 188.140625 141.554688 187.972656 141.441406 C 186.285156 140.3125 184.273438 139.898438 182.105469 139.601562 C 179.878906 139.296875 177.210938 139.332031 175.800781 137.261719 C 174.53125 135.402344 174.851562 132.652344 174.390625 130.53125 C 174.25 129.898438 174.078125 129.308594 173.867188 128.75 C 171.636719 126.707031 168.667969 125.453125 165.402344 125.453125 C 158.46875 125.453125 152.851562 131.074219 152.851562 138.003906 C 152.851562 139.761719 153.210938 141.429688 153.863281 142.949219 C 153.113281 142.808594 152.339844 142.730469 151.546875 142.730469 C 144.617188 142.730469 138.996094 148.351562 138.996094 155.28125 C 138.996094 156.5 139.175781 157.675781 139.5 158.789062 C 142.234375 158.730469 144.976562 158.722656 147.714844 158.664062 C 152.796875 158.558594 158.144531 158.492188 163.03125 156.933594 C 166.773438 155.734375 170.4375 154.207031 174.300781 153.417969 C 178.082031 152.648438 182.109375 152.425781 185.265625 154.988281 C 185.511719 154.941406 185.761719 154.886719 186.011719 154.824219 C 187.085938 154.558594 187.71875 154.375 188.492188 153.898438 C 189.085938 153.535156 189.511719 153.15625 189.828125 152.609375 C 190.238281 151.910156 190.53125 151.035156 190.601562 150.027344 C 190.6875 148.746094 190.675781 147.429688 190.429688 146.167969 " fill-opacity="1" fill-rule="nonzero"/></g><g clip-path="url(#9b8c26ee46)"><path fill="#ffffff" d="M 179.046875 132 C 179.175781 133.058594 179.167969 133.828125 179.441406 134.730469 L 179.449219 134.746094 C 179.5 134.769531 179.542969 134.785156 179.539062 134.785156 C 179.683594 134.828125 179.828125 134.867188 179.976562 134.898438 C 181.164062 135.144531 182.378906 135.21875 183.578125 135.402344 C 185.710938 135.726562 187.957031 136.226562 189.808594 137.390625 C 192.996094 139.398438 194.550781 142.898438 194.949219 146.542969 C 203.800781 146.511719 213.226562 145.375 219.832031 138.878906 C 219.984375 138.722656 220.148438 138.605469 220.3125 138.507812 C 220.320312 138.34375 220.328125 138.175781 220.328125 138.003906 C 220.328125 131.074219 214.707031 125.453125 207.777344 125.453125 C 204.679688 125.453125 201.84375 126.578125 199.65625 128.441406 C 198.414062 122.816406 193.402344 118.609375 187.402344 118.609375 C 182.898438 118.609375 178.949219 120.984375 176.734375 124.554688 C 177.371094 125.550781 177.875 126.632812 178.226562 127.792969 C 178.644531 129.167969 178.875 130.578125 179.046875 132 " fill-opacity="1" fill-rule="nonzero"/></g><path fill="#ffffff" d="M 226.363281 169.914062 C 226.109375 168.105469 225.816406 166.039062 224.558594 164.613281 C 222.027344 161.738281 218.449219 160.390625 214.742188 160.070312 C 214.773438 160.855469 214.785156 161.644531 214.785156 162.4375 C 214.789062 165.273438 210.386719 165.273438 210.386719 162.4375 C 210.382812 159.578125 210.398438 156.746094 209.324219 154.085938 C 208.445312 151.902344 206.449219 150.648438 203.785156 150.457031 C 203.71875 150.453125 203.65625 150.441406 203.59375 150.433594 C 200.710938 150.796875 197.785156 150.933594 194.894531 150.945312 C 194.882812 151.03125 194.875 151.121094 194.859375 151.210938 C 194.171875 156.007812 190.457031 158.546875 185.929688 159.324219 C 183.492188 159.742188 180.933594 159.71875 178.535156 160.3125 C 176.605469 160.789062 174.703125 161.730469 173.675781 163.15625 C 172.398438 164.929688 171.816406 166.855469 171.5 169.078125 C 171.222656 171.023438 171.148438 173.074219 171.238281 175.09375 C 173.472656 177.15625 176.460938 178.425781 179.742188 178.425781 C 184.324219 178.425781 188.332031 175.96875 190.523438 172.300781 C 192.761719 174.382812 195.761719 175.652344 199.058594 175.652344 C 200.648438 175.652344 202.171875 175.355469 203.570312 174.816406 C 205.664062 178.828125 209.863281 181.574219 214.703125 181.574219 C 220.453125 181.574219 225.296875 177.707031 226.78125 172.433594 C 226.617188 171.609375 226.488281 170.773438 226.363281 169.914062 " fill-opacity="1" fill-rule="nonzero"/><g clip-path="url(#886b974b52)"><path fill="#ffffff" d="M 223.421875 142.730469 C 222.964844 142.730469 222.511719 142.757812 222.066406 142.808594 C 218.808594 145.734375 215.03125 147.652344 211 148.886719 C 211.890625 149.703125 212.628906 150.707031 213.152344 151.917969 C 213.671875 153.125 214.027344 154.367188 214.273438 155.628906 C 218.953125 155.882812 223.789062 157.433594 227.097656 160.878906 C 228.507812 162.347656 229.476562 164.050781 230.046875 165.941406 C 233.605469 163.726562 235.972656 159.78125 235.972656 155.28125 C 235.972656 148.351562 230.355469 142.730469 223.421875 142.730469 " fill-opacity="1" fill-rule="nonzero"/></g><path fill="#ffffff" d="M 194.742188 174.890625 C 194.742188 174.890625 196.570312 176.097656 200.851562 176.617188 C 205.128906 177.132812 206.65625 181.566406 207.144531 183.09375 C 207.636719 184.621094 209.773438 192.507812 215.277344 197.210938 C 220.777344 201.917969 220.410156 198.007812 222.488281 196.90625 C 224.5625 195.808594 223.769531 194.097656 222.121094 192.691406 C 220.472656 191.285156 219.125 185.964844 220.285156 183.214844 C 221.449219 180.464844 221.628906 179.859375 223.015625 178.421875 C 224.398438 176.984375 199.640625 166.992188 194.742188 174.890625 " fill-opacity="1" fill-rule="nonzero"/><g fill="#ffffff" fill-opacity="1"><g transform="translate(36.644533, 230.599437)"><g><path d="M 19.1875 -5.671875 L 6.9375 -5.671875 L 4.515625 0 L -0.171875 0 L 10.84375 -24.5 L 15.328125 -24.5 L 26.390625 0 L 21.625 0 Z M 17.671875 -9.234375 L 13.0625 -19.953125 L 8.46875 -9.234375 Z M 17.671875 -9.234375 "/></g></g></g><g fill="#ffffff" fill-opacity="1"><g transform="translate(62.853619, 230.599437)"><g><path d="M 13.46875 -18.90625 C 15.832031 -18.90625 17.722656 -18.210938 19.140625 -16.828125 C 20.566406 -15.453125 21.28125 -13.410156 21.28125 -10.703125 L 21.28125 0 L 16.90625 0 L 16.90625 -10.15625 C 16.90625 -11.78125 16.519531 -13.003906 15.75 -13.828125 C 14.976562 -14.660156 13.878906 -15.078125 12.453125 -15.078125 C 10.847656 -15.078125 9.578125 -14.59375 8.640625 -13.625 C 7.710938 -12.664062 7.25 -11.273438 7.25 -9.453125 L 7.25 0 L 2.875 0 L 2.875 -18.6875 L 7.03125 -18.6875 L 7.03125 -16.28125 C 7.757812 -17.132812 8.671875 -17.785156 9.765625 -18.234375 C 10.859375 -18.679688 12.09375 -18.90625 13.46875 -18.90625 Z M 13.46875 -18.90625 "/></g></g></g><g fill="#ffffff" fill-opacity="1"><g transform="translate(86.82321, 230.599437)"><g><path d="M 21.171875 -25.96875 L 21.171875 0 L 16.96875 0 L 16.96875 -2.421875 C 16.25 -1.523438 15.359375 -0.851562 14.296875 -0.40625 C 13.234375 0.03125 12.0625 0.25 10.78125 0.25 C 8.976562 0.25 7.359375 -0.144531 5.921875 -0.9375 C 4.492188 -1.738281 3.367188 -2.867188 2.546875 -4.328125 C 1.734375 -5.785156 1.328125 -7.457031 1.328125 -9.34375 C 1.328125 -11.238281 1.734375 -12.90625 2.546875 -14.34375 C 3.367188 -15.789062 4.492188 -16.910156 5.921875 -17.703125 C 7.359375 -18.503906 8.976562 -18.90625 10.78125 -18.90625 C 12.019531 -18.90625 13.148438 -18.691406 14.171875 -18.265625 C 15.203125 -17.847656 16.078125 -17.21875 16.796875 -16.375 L 16.796875 -25.96875 Z M 11.3125 -3.5 C 12.351562 -3.5 13.296875 -3.738281 14.140625 -4.21875 C 14.984375 -4.695312 15.648438 -5.378906 16.140625 -6.265625 C 16.628906 -7.148438 16.875 -8.175781 16.875 -9.34375 C 16.875 -10.507812 16.628906 -11.535156 16.140625 -12.421875 C 15.648438 -13.304688 14.984375 -13.988281 14.140625 -14.46875 C 13.296875 -14.945312 12.351562 -15.1875 11.3125 -15.1875 C 10.257812 -15.1875 9.3125 -14.945312 8.46875 -14.46875 C 7.625 -13.988281 6.957031 -13.304688 6.46875 -12.421875 C 5.976562 -11.535156 5.734375 -10.507812 5.734375 -9.34375 C 5.734375 -8.175781 5.976562 -7.148438 6.46875 -6.265625 C 6.957031 -5.378906 7.625 -4.695312 8.46875 -4.21875 C 9.3125 -3.738281 10.257812 -3.5 11.3125 -3.5 Z M 11.3125 -3.5 "/></g></g></g><g fill="#ffffff" fill-opacity="1"><g transform="translate(110.862782, 230.599437)"><g><path d="M 20.4375 -9.234375 C 20.4375 -8.929688 20.414062 -8.5 20.375 -7.9375 L 5.703125 -7.9375 C 5.960938 -6.5625 6.632812 -5.472656 7.71875 -4.671875 C 8.800781 -3.867188 10.148438 -3.46875 11.765625 -3.46875 C 13.816406 -3.46875 15.503906 -4.144531 16.828125 -5.5 L 19.1875 -2.796875 C 18.34375 -1.796875 17.273438 -1.035156 15.984375 -0.515625 C 14.703125 -0.00390625 13.257812 0.25 11.65625 0.25 C 9.601562 0.25 7.796875 -0.15625 6.234375 -0.96875 C 4.671875 -1.789062 3.460938 -2.929688 2.609375 -4.390625 C 1.753906 -5.847656 1.328125 -7.5 1.328125 -9.34375 C 1.328125 -11.164062 1.738281 -12.804688 2.5625 -14.265625 C 3.394531 -15.722656 4.546875 -16.859375 6.015625 -17.671875 C 7.484375 -18.492188 9.140625 -18.90625 10.984375 -18.90625 C 12.804688 -18.90625 14.4375 -18.5 15.875 -17.6875 C 17.3125 -16.882812 18.429688 -15.753906 19.234375 -14.296875 C 20.035156 -12.835938 20.4375 -11.148438 20.4375 -9.234375 Z M 10.984375 -15.40625 C 9.585938 -15.40625 8.40625 -14.988281 7.4375 -14.15625 C 6.46875 -13.332031 5.878906 -12.226562 5.671875 -10.84375 L 16.28125 -10.84375 C 16.09375 -12.195312 15.519531 -13.296875 14.5625 -14.140625 C 13.601562 -14.984375 12.410156 -15.40625 10.984375 -15.40625 Z M 10.984375 -15.40625 "/></g></g></g><g fill="#ffffff" fill-opacity="1"><g transform="translate(132.627864, 230.599437)"><g><path d="M 7.03125 -15.953125 C 8.289062 -17.921875 10.507812 -18.90625 13.6875 -18.90625 L 13.6875 -14.734375 C 13.3125 -14.804688 12.972656 -14.84375 12.671875 -14.84375 C 10.960938 -14.84375 9.628906 -14.34375 8.671875 -13.34375 C 7.722656 -12.351562 7.25 -10.925781 7.25 -9.0625 L 7.25 0 L 2.875 0 L 2.875 -18.6875 L 7.03125 -18.6875 Z M 7.03125 -15.953125 "/></g></g></g><g fill="#ffffff" fill-opacity="1"><g transform="translate(147.324549, 230.599437)"><g><path d="M 8.640625 0.25 C 7.128906 0.25 5.648438 0.0507812 4.203125 -0.34375 C 2.753906 -0.738281 1.597656 -1.242188 0.734375 -1.859375 L 2.421875 -5.1875 C 3.253906 -4.625 4.257812 -4.171875 5.4375 -3.828125 C 6.613281 -3.492188 7.773438 -3.328125 8.921875 -3.328125 C 11.535156 -3.328125 12.84375 -4.015625 12.84375 -5.390625 C 12.84375 -6.046875 12.507812 -6.5 11.84375 -6.75 C 11.175781 -7.007812 10.109375 -7.253906 8.640625 -7.484375 C 7.097656 -7.722656 5.84375 -7.992188 4.875 -8.296875 C 3.914062 -8.597656 3.078125 -9.128906 2.359375 -9.890625 C 1.648438 -10.648438 1.296875 -11.707031 1.296875 -13.0625 C 1.296875 -14.832031 2.035156 -16.25 3.515625 -17.3125 C 4.992188 -18.375 6.992188 -18.90625 9.515625 -18.90625 C 10.796875 -18.90625 12.078125 -18.757812 13.359375 -18.46875 C 14.648438 -18.175781 15.703125 -17.785156 16.515625 -17.296875 L 14.84375 -13.96875 C 13.25 -14.894531 11.460938 -15.359375 9.484375 -15.359375 C 8.203125 -15.359375 7.226562 -15.164062 6.5625 -14.78125 C 5.894531 -14.394531 5.5625 -13.890625 5.5625 -13.265625 C 5.5625 -12.566406 5.914062 -12.070312 6.625 -11.78125 C 7.34375 -11.488281 8.445312 -11.210938 9.9375 -10.953125 C 11.4375 -10.722656 12.660156 -10.453125 13.609375 -10.140625 C 14.566406 -9.835938 15.390625 -9.328125 16.078125 -8.609375 C 16.765625 -7.890625 17.109375 -6.863281 17.109375 -5.53125 C 17.109375 -3.78125 16.347656 -2.378906 14.828125 -1.328125 C 13.316406 -0.273438 11.253906 0.25 8.640625 0.25 Z M 8.640625 0.25 "/></g></g></g><g fill="#ffffff" fill-opacity="1"><g transform="translate(165.345479, 230.599437)"><g><path d="M 11.265625 0.25 C 9.378906 0.25 7.675781 -0.15625 6.15625 -0.96875 C 4.644531 -1.789062 3.460938 -2.929688 2.609375 -4.390625 C 1.753906 -5.847656 1.328125 -7.5 1.328125 -9.34375 C 1.328125 -11.1875 1.753906 -12.832031 2.609375 -14.28125 C 3.460938 -15.726562 4.644531 -16.859375 6.15625 -17.671875 C 7.675781 -18.492188 9.378906 -18.90625 11.265625 -18.90625 C 13.179688 -18.90625 14.894531 -18.492188 16.40625 -17.671875 C 17.925781 -16.859375 19.113281 -15.726562 19.96875 -14.28125 C 20.820312 -12.832031 21.25 -11.1875 21.25 -9.34375 C 21.25 -7.5 20.820312 -5.847656 19.96875 -4.390625 C 19.113281 -2.929688 17.925781 -1.789062 16.40625 -0.96875 C 14.894531 -0.15625 13.179688 0.25 11.265625 0.25 Z M 11.265625 -3.5 C 12.878906 -3.5 14.207031 -4.035156 15.25 -5.109375 C 16.300781 -6.179688 16.828125 -7.59375 16.828125 -9.34375 C 16.828125 -11.09375 16.300781 -12.503906 15.25 -13.578125 C 14.207031 -14.648438 12.878906 -15.1875 11.265625 -15.1875 C 9.660156 -15.1875 8.335938 -14.648438 7.296875 -13.578125 C 6.253906 -12.503906 5.734375 -11.09375 5.734375 -9.34375 C 5.734375 -7.59375 6.253906 -6.179688 7.296875 -5.109375 C 8.335938 -4.035156 9.660156 -3.5 11.265625 -3.5 Z M 11.265625 -3.5 "/></g></g></g><g fill="#ffffff" fill-opacity="1"><g transform="translate(187.915378, 230.599437)"><g><path d="M 13.46875 -18.90625 C 15.832031 -18.90625 17.722656 -18.210938 19.140625 -16.828125 C 20.566406 -15.453125 21.28125 -13.410156 21.28125 -10.703125 L 21.28125 0 L 16.90625 0 L 16.90625 -10.15625 C 16.90625 -11.78125 16.519531 -13.003906 15.75 -13.828125 C 14.976562 -14.660156 13.878906 -15.078125 12.453125 -15.078125 C 10.847656 -15.078125 9.578125 -14.59375 8.640625 -13.625 C 7.710938 -12.664062 7.25 -11.273438 7.25 -9.453125 L 7.25 0 L 2.875 0 L 2.875 -18.6875 L 7.03125 -18.6875 L 7.03125 -16.28125 C 7.757812 -17.132812 8.671875 -17.785156 9.765625 -18.234375 C 10.859375 -18.679688 12.09375 -18.90625 13.46875 -18.90625 Z M 13.46875 -18.90625 "/></g></g></g><g fill="#ffffff" fill-opacity="1"><g transform="translate(211.884969, 230.599437)"><g/></g></g><g fill="#ffffff" fill-opacity="1"><g transform="translate(221.542787, 230.599437)"><g><path d="M 14.625 0.34375 C 12.15625 0.34375 9.921875 -0.195312 7.921875 -1.28125 C 5.929688 -2.363281 4.367188 -3.859375 3.234375 -5.765625 C 2.109375 -7.679688 1.546875 -9.84375 1.546875 -12.25 C 1.546875 -14.65625 2.113281 -16.8125 3.25 -18.71875 C 4.394531 -20.632812 5.960938 -22.132812 7.953125 -23.21875 C 9.953125 -24.300781 12.191406 -24.84375 14.671875 -24.84375 C 16.671875 -24.84375 18.5 -24.492188 20.15625 -23.796875 C 21.8125 -23.097656 23.210938 -22.082031 24.359375 -20.75 L 21.421875 -17.984375 C 19.648438 -19.898438 17.46875 -20.859375 14.875 -20.859375 C 13.195312 -20.859375 11.691406 -20.488281 10.359375 -19.75 C 9.023438 -19.019531 7.984375 -18 7.234375 -16.6875 C 6.492188 -15.382812 6.125 -13.90625 6.125 -12.25 C 6.125 -10.59375 6.492188 -9.109375 7.234375 -7.796875 C 7.984375 -6.492188 9.023438 -5.472656 10.359375 -4.734375 C 11.691406 -4.003906 13.195312 -3.640625 14.875 -3.640625 C 17.46875 -3.640625 19.648438 -4.609375 21.421875 -6.546875 L 24.359375 -3.75 C 23.210938 -2.414062 21.804688 -1.398438 20.140625 -0.703125 C 18.472656 -0.00390625 16.632812 0.34375 14.625 0.34375 Z M 14.625 0.34375 "/></g></g></g><g fill="#ffffff" fill-opacity="1"><g transform="translate(246.982028, 230.599437)"><g><path d="M 10.015625 -18.90625 C 12.765625 -18.90625 14.867188 -18.242188 16.328125 -16.921875 C 17.785156 -15.597656 18.515625 -13.609375 18.515625 -10.953125 L 18.515625 0 L 14.390625 0 L 14.390625 -2.28125 C 13.847656 -1.457031 13.082031 -0.828125 12.09375 -0.390625 C 11.101562 0.0351562 9.90625 0.25 8.5 0.25 C 7.101562 0.25 5.878906 0.0078125 4.828125 -0.46875 C 3.773438 -0.945312 2.960938 -1.613281 2.390625 -2.46875 C 1.828125 -3.320312 1.546875 -4.285156 1.546875 -5.359375 C 1.546875 -7.035156 2.164062 -8.378906 3.40625 -9.390625 C 4.65625 -10.410156 6.625 -10.921875 9.3125 -10.921875 L 14.140625 -10.921875 L 14.140625 -11.203125 C 14.140625 -12.503906 13.75 -13.503906 12.96875 -14.203125 C 12.1875 -14.910156 11.023438 -15.265625 9.484375 -15.265625 C 8.429688 -15.265625 7.394531 -15.097656 6.375 -14.765625 C 5.363281 -14.441406 4.507812 -13.988281 3.8125 -13.40625 L 2.09375 -16.59375 C 3.070312 -17.332031 4.25 -17.898438 5.625 -18.296875 C 7.007812 -18.703125 8.472656 -18.90625 10.015625 -18.90625 Z M 9.421875 -2.9375 C 10.515625 -2.9375 11.484375 -3.1875 12.328125 -3.6875 C 13.179688 -4.1875 13.785156 -4.90625 14.140625 -5.84375 L 14.140625 -8.015625 L 9.625 -8.015625 C 7.101562 -8.015625 5.84375 -7.1875 5.84375 -5.53125 C 5.84375 -4.738281 6.15625 -4.109375 6.78125 -3.640625 C 7.414062 -3.171875 8.296875 -2.9375 9.421875 -2.9375 Z M 9.421875 -2.9375 "/></g></g></g><g fill="#ffffff" fill-opacity="1"><g transform="translate(268.222215, 230.599437)"><g><path d="M 8.640625 0.25 C 7.128906 0.25 5.648438 0.0507812 4.203125 -0.34375 C 2.753906 -0.738281 1.597656 -1.242188 0.734375 -1.859375 L 2.421875 -5.1875 C 3.253906 -4.625 4.257812 -4.171875 5.4375 -3.828125 C 6.613281 -3.492188 7.773438 -3.328125 8.921875 -3.328125 C 11.535156 -3.328125 12.84375 -4.015625 12.84375 -5.390625 C 12.84375 -6.046875 12.507812 -6.5 11.84375 -6.75 C 11.175781 -7.007812 10.109375 -7.253906 8.640625 -7.484375 C 7.097656 -7.722656 5.84375 -7.992188 4.875 -8.296875 C 3.914062 -8.597656 3.078125 -9.128906 2.359375 -9.890625 C 1.648438 -10.648438 1.296875 -11.707031 1.296875 -13.0625 C 1.296875 -14.832031 2.035156 -16.25 3.515625 -17.3125 C 4.992188 -18.375 6.992188 -18.90625 9.515625 -18.90625 C 10.796875 -18.90625 12.078125 -18.757812 13.359375 -18.46875 C 14.648438 -18.175781 15.703125 -17.785156 16.515625 -17.296875 L 14.84375 -13.96875 C 13.25 -14.894531 11.460938 -15.359375 9.484375 -15.359375 C 8.203125 -15.359375 7.226562 -15.164062 6.5625 -14.78125 C 5.894531 -14.394531 5.5625 -13.890625 5.5625 -13.265625 C 5.5625 -12.566406 5.914062 -12.070312 6.625 -11.78125 C 7.34375 -11.488281 8.445312 -11.210938 9.9375 -10.953125 C 11.4375 -10.722656 12.660156 -10.453125 13.609375 -10.140625 C 14.566406 -9.835938 15.390625 -9.328125 16.078125 -8.609375 C 16.765625 -7.890625 17.109375 -6.863281 17.109375 -5.53125 C 17.109375 -3.78125 16.347656 -2.378906 14.828125 -1.328125 C 13.316406 -0.273438 11.253906 0.25 8.640625 0.25 Z M 8.640625 0.25 "/></g></g></g><g fill="#ffffff" fill-opacity="1"><g transform="translate(286.243134, 230.599437)"><g><path d="M 14.109375 -1.015625 C 13.585938 -0.597656 12.957031 -0.28125 12.21875 -0.0625 C 11.488281 0.144531 10.71875 0.25 9.90625 0.25 C 7.851562 0.25 6.265625 -0.285156 5.140625 -1.359375 C 4.023438 -2.429688 3.46875 -4 3.46875 -6.0625 L 3.46875 -15.046875 L 0.390625 -15.046875 L 0.390625 -18.546875 L 3.46875 -18.546875 L 3.46875 -22.8125 L 7.84375 -22.8125 L 7.84375 -18.546875 L 12.84375 -18.546875 L 12.84375 -15.046875 L 7.84375 -15.046875 L 7.84375 -6.15625 C 7.84375 -5.25 8.0625 -4.554688 8.5 -4.078125 C 8.945312 -3.597656 9.59375 -3.359375 10.4375 -3.359375 C 11.414062 -3.359375 12.226562 -3.613281 12.875 -4.125 Z M 14.109375 -1.015625 "/></g></g></g><g fill="#ffffff" fill-opacity="1"><g transform="translate(301.07978, 230.599437)"><g><path d="M 7.03125 -15.953125 C 8.289062 -17.921875 10.507812 -18.90625 13.6875 -18.90625 L 13.6875 -14.734375 C 13.3125 -14.804688 12.972656 -14.84375 12.671875 -14.84375 C 10.960938 -14.84375 9.628906 -14.34375 8.671875 -13.34375 C 7.722656 -12.351562 7.25 -10.925781 7.25 -9.0625 L 7.25 0 L 2.875 0 L 2.875 -18.6875 L 7.03125 -18.6875 Z M 7.03125 -15.953125 "/></g></g></g><g fill="#ffffff" fill-opacity="1"><g transform="translate(315.776464, 230.599437)"><g><path d="M 11.265625 0.25 C 9.378906 0.25 7.675781 -0.15625 6.15625 -0.96875 C 4.644531 -1.789062 3.460938 -2.929688 2.609375 -4.390625 C 1.753906 -5.847656 1.328125 -7.5 1.328125 -9.34375 C 1.328125 -11.1875 1.753906 -12.832031 2.609375 -14.28125 C 3.460938 -15.726562 4.644531 -16.859375 6.15625 -17.671875 C 7.675781 -18.492188 9.378906 -18.90625 11.265625 -18.90625 C 13.179688 -18.90625 14.894531 -18.492188 16.40625 -17.671875 C 17.925781 -16.859375 19.113281 -15.726562 19.96875 -14.28125 C 20.820312 -12.832031 21.25 -11.1875 21.25 -9.34375 C 21.25 -7.5 20.820312 -5.847656 19.96875 -4.390625 C 19.113281 -2.929688 17.925781 -1.789062 16.40625 -0.96875 C 14.894531 -0.15625 13.179688 0.25 11.265625 0.25 Z M 11.265625 -3.5 C 12.878906 -3.5 14.207031 -4.035156 15.25 -5.109375 C 16.300781 -6.179688 16.828125 -7.59375 16.828125 -9.34375 C 16.828125 -11.09375 16.300781 -12.503906 15.25 -13.578125 C 14.207031 -14.648438 12.878906 -15.1875 11.265625 -15.1875 C 9.660156 -15.1875 8.335938 -14.648438 7.296875 -13.578125 C 6.253906 -12.503906 5.734375 -11.09375 5.734375 -9.34375 C 5.734375 -7.59375 6.253906 -6.179688 7.296875 -5.109375 C 8.335938 -4.035156 9.660156 -3.5 11.265625 -3.5 Z M 11.265625 -3.5 "/></g></g></g><g fill="#ffffff" fill-opacity="1"><g transform="translate(117.492653, 252.628284)"><g><path d="M 8.671875 -7.234375 C 8.671875 -6.671875 8.535156 -6.144531 8.265625 -5.65625 C 8.003906 -5.164062 7.59375 -4.769531 7.03125 -4.46875 C 6.46875 -4.164062 5.753906 -4.015625 4.890625 -4.015625 L 3.140625 -4.015625 L 3.140625 0 L 1.03125 0 L 1.03125 -10.46875 L 4.890625 -10.46875 C 5.703125 -10.46875 6.390625 -10.328125 6.953125 -10.046875 C 7.523438 -9.765625 7.953125 -9.378906 8.234375 -8.890625 C 8.523438 -8.398438 8.671875 -7.847656 8.671875 -7.234375 Z M 4.796875 -5.71875 C 5.378906 -5.71875 5.8125 -5.847656 6.09375 -6.109375 C 6.375 -6.378906 6.515625 -6.753906 6.515625 -7.234375 C 6.515625 -8.253906 5.941406 -8.765625 4.796875 -8.765625 L 3.140625 -8.765625 L 3.140625 -5.71875 Z M 4.796875 -5.71875 "/></g></g></g><g fill="#ffffff" fill-opacity="1"><g transform="translate(133.152645, 252.628284)"><g><path d="M 4.65625 0.109375 C 3.925781 0.109375 3.265625 -0.015625 2.671875 -0.265625 C 2.085938 -0.515625 1.625 -0.875 1.28125 -1.34375 C 0.945312 -1.820312 0.773438 -2.378906 0.765625 -3.015625 L 3.015625 -3.015625 C 3.046875 -2.585938 3.195312 -2.25 3.46875 -2 C 3.75 -1.75 4.128906 -1.625 4.609375 -1.625 C 5.097656 -1.625 5.484375 -1.738281 5.765625 -1.96875 C 6.046875 -2.207031 6.1875 -2.515625 6.1875 -2.890625 C 6.1875 -3.203125 6.085938 -3.457031 5.890625 -3.65625 C 5.703125 -3.851562 5.460938 -4.007812 5.171875 -4.125 C 4.890625 -4.25 4.5 -4.378906 4 -4.515625 C 3.320312 -4.710938 2.769531 -4.910156 2.34375 -5.109375 C 1.914062 -5.304688 1.550781 -5.597656 1.25 -5.984375 C 0.945312 -6.378906 0.796875 -6.910156 0.796875 -7.578125 C 0.796875 -8.191406 0.945312 -8.726562 1.25 -9.1875 C 1.5625 -9.65625 2 -10.007812 2.5625 -10.25 C 3.125 -10.5 3.765625 -10.625 4.484375 -10.625 C 5.566406 -10.625 6.441406 -10.359375 7.109375 -9.828125 C 7.785156 -9.304688 8.160156 -8.578125 8.234375 -7.640625 L 5.921875 -7.640625 C 5.898438 -7.992188 5.75 -8.285156 5.46875 -8.515625 C 5.1875 -8.753906 4.804688 -8.875 4.328125 -8.875 C 3.921875 -8.875 3.59375 -8.769531 3.34375 -8.5625 C 3.101562 -8.351562 2.984375 -8.050781 2.984375 -7.65625 C 2.984375 -7.375 3.078125 -7.140625 3.265625 -6.953125 C 3.453125 -6.765625 3.679688 -6.613281 3.953125 -6.5 C 4.222656 -6.382812 4.609375 -6.253906 5.109375 -6.109375 C 5.796875 -5.910156 6.351562 -5.707031 6.78125 -5.5 C 7.207031 -5.300781 7.578125 -5 7.890625 -4.59375 C 8.203125 -4.195312 8.359375 -3.675781 8.359375 -3.03125 C 8.359375 -2.46875 8.210938 -1.945312 7.921875 -1.46875 C 7.628906 -0.988281 7.203125 -0.601562 6.640625 -0.3125 C 6.085938 -0.03125 5.425781 0.109375 4.65625 0.109375 Z M 4.65625 0.109375 "/></g></g></g><g fill="#ffffff" fill-opacity="1"><g transform="translate(148.827639, 252.628284)"><g><path d="M 3.140625 -10.46875 L 3.140625 0 L 1.03125 0 L 1.03125 -10.46875 Z M 3.140625 -10.46875 "/></g></g></g><g fill="#ffffff" fill-opacity="1"><g transform="translate(159.537637, 252.628284)"><g><path d="M 0.53125 -5.25 C 0.53125 -6.28125 0.757812 -7.203125 1.21875 -8.015625 C 1.6875 -8.828125 2.320312 -9.460938 3.125 -9.921875 C 3.925781 -10.378906 4.828125 -10.609375 5.828125 -10.609375 C 7.003906 -10.609375 8.03125 -10.304688 8.90625 -9.703125 C 9.789062 -9.109375 10.40625 -8.28125 10.75 -7.21875 L 8.34375 -7.21875 C 8.101562 -7.71875 7.765625 -8.09375 7.328125 -8.34375 C 6.890625 -8.59375 6.382812 -8.71875 5.8125 -8.71875 C 5.207031 -8.71875 4.664062 -8.570312 4.1875 -8.28125 C 3.71875 -8 3.347656 -7.597656 3.078125 -7.078125 C 2.816406 -6.554688 2.6875 -5.945312 2.6875 -5.25 C 2.6875 -4.5625 2.816406 -3.953125 3.078125 -3.421875 C 3.347656 -2.898438 3.71875 -2.492188 4.1875 -2.203125 C 4.664062 -1.921875 5.207031 -1.78125 5.8125 -1.78125 C 6.382812 -1.78125 6.890625 -1.90625 7.328125 -2.15625 C 7.765625 -2.414062 8.101562 -2.796875 8.34375 -3.296875 L 10.75 -3.296875 C 10.40625 -2.222656 9.796875 -1.390625 8.921875 -0.796875 C 8.046875 -0.203125 7.015625 0.09375 5.828125 0.09375 C 4.828125 0.09375 3.925781 -0.132812 3.125 -0.59375 C 2.320312 -1.050781 1.6875 -1.679688 1.21875 -2.484375 C 0.757812 -3.296875 0.53125 -4.21875 0.53125 -5.25 Z M 0.53125 -5.25 "/></g></g></g><g fill="#ffffff" fill-opacity="1"><g transform="translate(177.597626, 252.628284)"><g><path d="M 5.890625 0.109375 C 4.910156 0.109375 4.007812 -0.117188 3.1875 -0.578125 C 2.375 -1.046875 1.726562 -1.6875 1.25 -2.5 C 0.769531 -3.3125 0.53125 -4.234375 0.53125 -5.265625 C 0.53125 -6.285156 0.769531 -7.203125 1.25 -8.015625 C 1.726562 -8.828125 2.375 -9.460938 3.1875 -9.921875 C 4.007812 -10.390625 4.910156 -10.625 5.890625 -10.625 C 6.878906 -10.625 7.78125 -10.390625 8.59375 -9.921875 C 9.414062 -9.460938 10.0625 -8.828125 10.53125 -8.015625 C 11.007812 -7.203125 11.25 -6.285156 11.25 -5.265625 C 11.25 -4.234375 11.007812 -3.3125 10.53125 -2.5 C 10.0625 -1.6875 9.414062 -1.046875 8.59375 -0.578125 C 7.769531 -0.117188 6.867188 0.109375 5.890625 0.109375 Z M 5.890625 -1.765625 C 6.523438 -1.765625 7.082031 -1.90625 7.5625 -2.1875 C 8.039062 -2.476562 8.414062 -2.890625 8.6875 -3.421875 C 8.957031 -3.953125 9.09375 -4.566406 9.09375 -5.265625 C 9.09375 -5.960938 8.957031 -6.570312 8.6875 -7.09375 C 8.414062 -7.625 8.039062 -8.03125 7.5625 -8.3125 C 7.082031 -8.59375 6.523438 -8.734375 5.890625 -8.734375 C 5.265625 -8.734375 4.707031 -8.59375 4.21875 -8.3125 C 3.738281 -8.03125 3.363281 -7.625 3.09375 -7.09375 C 2.820312 -6.570312 2.6875 -5.960938 2.6875 -5.265625 C 2.6875 -4.566406 2.820312 -3.953125 3.09375 -3.421875 C 3.363281 -2.890625 3.738281 -2.476562 4.21875 -2.1875 C 4.707031 -1.90625 5.265625 -1.765625 5.890625 -1.765625 Z M 7.53125 -12.640625 L 4.09375 -11.0625 L 4.09375 -12.5625 L 7.53125 -14.359375 Z M 7.53125 -12.640625 "/></g></g></g><g fill="#ffffff" fill-opacity="1"><g transform="translate(195.912612, 252.628284)"><g><path d="M 3.140625 -1.671875 L 6.578125 -1.671875 L 6.578125 0 L 1.03125 0 L 1.03125 -10.46875 L 3.140625 -10.46875 Z M 3.140625 -1.671875 "/></g></g></g><g fill="#ffffff" fill-opacity="1"><g transform="translate(209.337607, 252.628284)"><g><path d="M 5.890625 0.109375 C 4.910156 0.109375 4.007812 -0.117188 3.1875 -0.578125 C 2.375 -1.046875 1.726562 -1.6875 1.25 -2.5 C 0.769531 -3.3125 0.53125 -4.234375 0.53125 -5.265625 C 0.53125 -6.285156 0.769531 -7.203125 1.25 -8.015625 C 1.726562 -8.828125 2.375 -9.460938 3.1875 -9.921875 C 4.007812 -10.390625 4.910156 -10.625 5.890625 -10.625 C 6.878906 -10.625 7.78125 -10.390625 8.59375 -9.921875 C 9.414062 -9.460938 10.0625 -8.828125 10.53125 -8.015625 C 11.007812 -7.203125 11.25 -6.285156 11.25 -5.265625 C 11.25 -4.234375 11.007812 -3.3125 10.53125 -2.5 C 10.0625 -1.6875 9.414062 -1.046875 8.59375 -0.578125 C 7.769531 -0.117188 6.867188 0.109375 5.890625 0.109375 Z M 5.890625 -1.765625 C 6.523438 -1.765625 7.082031 -1.90625 7.5625 -2.1875 C 8.039062 -2.476562 8.414062 -2.890625 8.6875 -3.421875 C 8.957031 -3.953125 9.09375 -4.566406 9.09375 -5.265625 C 9.09375 -5.960938 8.957031 -6.570312 8.6875 -7.09375 C 8.414062 -7.625 8.039062 -8.03125 7.5625 -8.3125 C 7.082031 -8.59375 6.523438 -8.734375 5.890625 -8.734375 C 5.265625 -8.734375 4.707031 -8.59375 4.21875 -8.3125 C 3.738281 -8.03125 3.363281 -7.625 3.09375 -7.09375 C 2.820312 -6.570312 2.6875 -5.960938 2.6875 -5.265625 C 2.6875 -4.566406 2.820312 -3.953125 3.09375 -3.421875 C 3.363281 -2.890625 3.738281 -2.476562 4.21875 -2.1875 C 4.707031 -1.90625 5.265625 -1.765625 5.890625 -1.765625 Z M 5.890625 -1.765625 "/></g></g></g><g fill="#ffffff" fill-opacity="1"><g transform="translate(227.652593, 252.628284)"><g><path d="M 8.328125 -7.3125 C 8.085938 -7.757812 7.753906 -8.097656 7.328125 -8.328125 C 6.910156 -8.554688 6.421875 -8.671875 5.859375 -8.671875 C 5.242188 -8.671875 4.695312 -8.53125 4.21875 -8.25 C 3.738281 -7.96875 3.363281 -7.566406 3.09375 -7.046875 C 2.820312 -6.523438 2.6875 -5.925781 2.6875 -5.25 C 2.6875 -4.550781 2.820312 -3.941406 3.09375 -3.421875 C 3.375 -2.898438 3.757812 -2.5 4.25 -2.21875 C 4.738281 -1.9375 5.304688 -1.796875 5.953125 -1.796875 C 6.753906 -1.796875 7.410156 -2.007812 7.921875 -2.4375 C 8.429688 -2.863281 8.765625 -3.457031 8.921875 -4.21875 L 5.328125 -4.21875 L 5.328125 -5.8125 L 11 -5.8125 L 11 -3.984375 C 10.851562 -3.253906 10.550781 -2.578125 10.09375 -1.953125 C 9.632812 -1.335938 9.039062 -0.84375 8.3125 -0.46875 C 7.59375 -0.09375 6.78125 0.09375 5.875 0.09375 C 4.863281 0.09375 3.953125 -0.132812 3.140625 -0.59375 C 2.328125 -1.050781 1.6875 -1.679688 1.21875 -2.484375 C 0.757812 -3.296875 0.53125 -4.21875 0.53125 -5.25 C 0.53125 -6.28125 0.757812 -7.203125 1.21875 -8.015625 C 1.6875 -8.828125 2.328125 -9.460938 3.140625 -9.921875 C 3.953125 -10.378906 4.859375 -10.609375 5.859375 -10.609375 C 7.046875 -10.609375 8.070312 -10.316406 8.9375 -9.734375 C 9.8125 -9.160156 10.410156 -8.351562 10.734375 -7.3125 Z M 8.328125 -7.3125 "/></g></g></g><g fill="#ffffff" fill-opacity="1"><g transform="translate(245.712582, 252.628284)"><g><path d="M 5.890625 0.109375 C 4.910156 0.109375 4.007812 -0.117188 3.1875 -0.578125 C 2.375 -1.046875 1.726562 -1.6875 1.25 -2.5 C 0.769531 -3.3125 0.53125 -4.234375 0.53125 -5.265625 C 0.53125 -6.285156 0.769531 -7.203125 1.25 -8.015625 C 1.726562 -8.828125 2.375 -9.460938 3.1875 -9.921875 C 4.007812 -10.390625 4.910156 -10.625 5.890625 -10.625 C 6.878906 -10.625 7.78125 -10.390625 8.59375 -9.921875 C 9.414062 -9.460938 10.0625 -8.828125 10.53125 -8.015625 C 11.007812 -7.203125 11.25 -6.285156 11.25 -5.265625 C 11.25 -4.234375 11.007812 -3.3125 10.53125 -2.5 C 10.0625 -1.6875 9.414062 -1.046875 8.59375 -0.578125 C 7.769531 -0.117188 6.867188 0.109375 5.890625 0.109375 Z M 5.890625 -1.765625 C 6.523438 -1.765625 7.082031 -1.90625 7.5625 -2.1875 C 8.039062 -2.476562 8.414062 -2.890625 8.6875 -3.421875 C 8.957031 -3.953125 9.09375 -4.566406 9.09375 -5.265625 C 9.09375 -5.960938 8.957031 -6.570312 8.6875 -7.09375 C 8.414062 -7.625 8.039062 -8.03125 7.5625 -8.3125 C 7.082031 -8.59375 6.523438 -8.734375 5.890625 -8.734375 C 5.265625 -8.734375 4.707031 -8.59375 4.21875 -8.3125 C 3.738281 -8.03125 3.363281 -7.625 3.09375 -7.09375 C 2.820312 -6.570312 2.6875 -5.960938 2.6875 -5.265625 C 2.6875 -4.566406 2.820312 -3.953125 3.09375 -3.421875 C 3.363281 -2.890625 3.738281 -2.476562 4.21875 -2.1875 C 4.707031 -1.90625 5.265625 -1.765625 5.890625 -1.765625 Z M 5.890625 -1.765625 "/></g></g></g></svg>