<svg xmlns="http://www.w3.org/2000/svg" xmlns:xlink="http://www.w3.org/1999/xlink" width="40" zoomAndPan="magnify" viewBox="0 0 30 30.000001" height="40" preserveAspectRatio="xMidYMid meet" version="1.0"><defs><g/><clipPath id="06c86a4e7b"><path d="M 0.484375 0 L 29.515625 0 L 29.515625 29.03125 L 0.484375 29.03125 Z M 0.484375 0 " clip-rule="nonzero"/></clipPath><clipPath id="e9400ac5ab"><path d="M 11.238281 11 L 14 11 L 14 14 L 11.238281 14 Z M 11.238281 11 " clip-rule="nonzero"/></clipPath><clipPath id="ef38ef325b"><path d="M 11.238281 9 L 16 9 L 16 12 L 11.238281 12 Z M 11.238281 9 " clip-rule="nonzero"/></clipPath><clipPath id="10e60c18f7"><path d="M 14 8.753906 L 18 8.753906 L 18 11 L 14 11 Z M 14 8.753906 " clip-rule="nonzero"/></clipPath><clipPath id="0722188b84"><path d="M 13 11 L 18.789062 11 L 18.789062 14 L 13 14 Z M 13 11 " clip-rule="nonzero"/></clipPath><clipPath id="77f50c4e8a"><path d="M 16 10 L 18.789062 10 L 18.789062 13 L 16 13 Z M 16 10 " clip-rule="nonzero"/></clipPath><clipPath id="42cb8a66ba"><path d="M 15 12 L 18 12 L 18 15.199219 L 15 15.199219 Z M 15 12 " clip-rule="nonzero"/></clipPath></defs><g clip-path="url(#06c86a4e7b)"><path fill="#ffffff" d="M 0.484375 0 L 29.515625 0 L 29.515625 29.03125 L 0.484375 29.03125 Z M 0.484375 0 " fill-opacity="1" fill-rule="nonzero"/><path fill="#ffffff" d="M 0.484375 0 L 29.515625 0 L 29.515625 29.03125 L 0.484375 29.03125 Z M 0.484375 0 " fill-opacity="1" fill-rule="nonzero"/></g><g clip-path="url(#e9400ac5ab)"><path fill="#38b6ff" d="M 13.089844 12.082031 C 12.675781 12.191406 12.230469 12.191406 11.808594 12.199219 C 11.691406 12.199219 11.574219 12.199219 11.460938 12.203125 C 11.636719 12.421875 11.910156 12.566406 12.214844 12.566406 C 12.226562 12.566406 12.238281 12.566406 12.25 12.5625 C 12.363281 12.976562 12.742188 13.277344 13.1875 13.277344 C 13.261719 13.277344 13.335938 13.269531 13.40625 13.25 C 13.375 12.898438 13.398438 12.5 13.546875 12.183594 C 13.613281 12.042969 13.707031 11.929688 13.820312 11.84375 C 13.574219 11.917969 13.335938 12.015625 13.089844 12.082031 " fill-opacity="1" fill-rule="nonzero"/></g><g clip-path="url(#ef38ef325b)"><path fill="#004aad" d="M 15.226562 10.886719 C 15.210938 10.796875 15.191406 10.71875 15.144531 10.644531 C 15.121094 10.605469 15.121094 10.601562 15.09375 10.574219 C 15.070312 10.550781 15.050781 10.53125 15.035156 10.523438 C 14.90625 10.433594 14.75 10.402344 14.582031 10.378906 C 14.410156 10.355469 14.203125 10.359375 14.09375 10.199219 C 13.996094 10.054688 14.019531 9.839844 13.984375 9.675781 C 13.972656 9.628906 13.960938 9.582031 13.945312 9.539062 C 13.773438 9.382812 13.542969 9.285156 13.289062 9.285156 C 12.753906 9.285156 12.316406 9.71875 12.316406 10.257812 C 12.316406 10.390625 12.34375 10.519531 12.394531 10.640625 C 12.335938 10.628906 12.277344 10.621094 12.214844 10.621094 C 11.679688 10.621094 11.246094 11.058594 11.246094 11.59375 C 11.246094 11.6875 11.257812 11.777344 11.285156 11.863281 C 11.496094 11.859375 11.707031 11.859375 11.917969 11.855469 C 12.3125 11.847656 12.726562 11.84375 13.105469 11.722656 C 13.394531 11.628906 13.679688 11.511719 13.976562 11.449219 C 14.269531 11.390625 14.582031 11.371094 14.828125 11.570312 C 14.847656 11.566406 14.867188 11.5625 14.882812 11.558594 C 14.96875 11.539062 15.015625 11.523438 15.078125 11.488281 C 15.121094 11.457031 15.15625 11.429688 15.179688 11.386719 C 15.210938 11.332031 15.234375 11.265625 15.238281 11.1875 C 15.246094 11.085938 15.246094 10.984375 15.226562 10.886719 " fill-opacity="1" fill-rule="nonzero"/></g><g clip-path="url(#10e60c18f7)"><path fill="#38b6ff" d="M 14.34375 9.792969 C 14.355469 9.871094 14.355469 9.933594 14.375 10.003906 C 14.378906 10.003906 14.382812 10.007812 14.382812 10.007812 C 14.394531 10.011719 14.40625 10.011719 14.417969 10.015625 C 14.507812 10.035156 14.601562 10.039062 14.695312 10.054688 C 14.859375 10.078125 15.035156 10.117188 15.179688 10.207031 C 15.425781 10.363281 15.546875 10.636719 15.578125 10.917969 C 16.261719 10.914062 16.992188 10.828125 17.503906 10.324219 C 17.515625 10.3125 17.527344 10.300781 17.539062 10.296875 C 17.539062 10.28125 17.542969 10.269531 17.542969 10.257812 C 17.542969 9.71875 17.105469 9.285156 16.570312 9.285156 C 16.328125 9.285156 16.109375 9.371094 15.941406 9.515625 C 15.84375 9.082031 15.457031 8.753906 14.992188 8.753906 C 14.644531 8.753906 14.335938 8.9375 14.167969 9.214844 C 14.214844 9.292969 14.253906 9.375 14.28125 9.464844 C 14.3125 9.570312 14.332031 9.679688 14.34375 9.792969 " fill-opacity="1" fill-rule="nonzero"/></g><g clip-path="url(#0722188b84)"><path fill="#5271ff" d="M 18.007812 12.726562 C 17.988281 12.585938 17.964844 12.425781 17.867188 12.316406 C 17.671875 12.09375 17.394531 11.988281 17.109375 11.964844 C 17.113281 12.023438 17.113281 12.085938 17.113281 12.148438 C 17.113281 12.367188 16.773438 12.367188 16.773438 12.148438 C 16.769531 11.925781 16.773438 11.707031 16.691406 11.5 C 16.621094 11.332031 16.46875 11.234375 16.261719 11.21875 C 16.253906 11.21875 16.25 11.21875 16.246094 11.21875 C 16.023438 11.246094 15.796875 11.257812 15.574219 11.257812 C 15.570312 11.265625 15.570312 11.273438 15.570312 11.277344 C 15.515625 11.648438 15.230469 11.847656 14.878906 11.90625 C 14.691406 11.9375 14.492188 11.9375 14.304688 11.984375 C 14.15625 12.019531 14.007812 12.09375 13.929688 12.203125 C 13.832031 12.339844 13.785156 12.488281 13.761719 12.660156 C 13.738281 12.8125 13.734375 12.972656 13.742188 13.128906 C 13.914062 13.289062 14.144531 13.386719 14.398438 13.386719 C 14.753906 13.386719 15.0625 13.195312 15.234375 12.910156 C 15.40625 13.074219 15.640625 13.171875 15.894531 13.171875 C 16.019531 13.171875 16.136719 13.148438 16.242188 13.105469 C 16.40625 13.417969 16.730469 13.628906 17.105469 13.628906 C 17.550781 13.628906 17.925781 13.328125 18.042969 12.921875 C 18.027344 12.859375 18.019531 12.792969 18.007812 12.726562 " fill-opacity="1" fill-rule="nonzero"/></g><g clip-path="url(#77f50c4e8a)"><path fill="#004aad" d="M 17.78125 10.621094 C 17.746094 10.621094 17.710938 10.625 17.675781 10.628906 C 17.425781 10.855469 17.132812 11.003906 16.820312 11.097656 C 16.886719 11.160156 16.945312 11.238281 16.984375 11.332031 C 17.027344 11.425781 17.054688 11.523438 17.074219 11.621094 C 17.433594 11.640625 17.808594 11.761719 18.066406 12.027344 C 18.175781 12.140625 18.25 12.273438 18.292969 12.417969 C 18.570312 12.246094 18.753906 11.941406 18.753906 11.59375 C 18.753906 11.058594 18.316406 10.621094 17.78125 10.621094 " fill-opacity="1" fill-rule="nonzero"/></g><g clip-path="url(#42cb8a66ba)"><path fill="#5271ff" d="M 15.5625 13.113281 C 15.5625 13.113281 15.703125 13.207031 16.035156 13.246094 C 16.363281 13.285156 16.484375 13.628906 16.519531 13.746094 C 16.558594 13.867188 16.722656 14.476562 17.148438 14.839844 C 17.574219 15.203125 17.546875 14.902344 17.707031 14.816406 C 17.871094 14.730469 17.808594 14.597656 17.679688 14.488281 C 17.550781 14.382812 17.449219 13.96875 17.539062 13.757812 C 17.628906 13.542969 17.640625 13.496094 17.75 13.386719 C 17.855469 13.273438 15.941406 12.5 15.5625 13.113281 " fill-opacity="1" fill-rule="nonzero"/></g><g fill="#000000" fill-opacity="1"><g transform="translate(3.320866, 17.424549)"><g><path d="M 1.484375 -0.4375 L 0.53125 -0.4375 L 0.34375 0 L -0.015625 0 L 0.84375 -1.890625 L 1.1875 -1.890625 L 2.03125 0 L 1.671875 0 Z M 1.359375 -0.71875 L 1.015625 -1.546875 L 0.65625 -0.71875 Z M 1.359375 -0.71875 "/></g></g></g><g fill="#000000" fill-opacity="1"><g transform="translate(5.349957, 17.424549)"><g><path d="M 1.046875 -1.453125 C 1.222656 -1.453125 1.363281 -1.398438 1.46875 -1.296875 C 1.582031 -1.191406 1.640625 -1.035156 1.640625 -0.828125 L 1.640625 0 L 1.3125 0 L 1.3125 -0.78125 C 1.3125 -0.90625 1.28125 -1 1.21875 -1.0625 C 1.15625 -1.132812 1.070312 -1.171875 0.96875 -1.171875 C 0.84375 -1.171875 0.742188 -1.128906 0.671875 -1.046875 C 0.597656 -0.972656 0.5625 -0.867188 0.5625 -0.734375 L 0.5625 0 L 0.21875 0 L 0.21875 -1.4375 L 0.546875 -1.4375 L 0.546875 -1.25 C 0.597656 -1.320312 0.664062 -1.375 0.75 -1.40625 C 0.832031 -1.4375 0.929688 -1.453125 1.046875 -1.453125 Z M 1.046875 -1.453125 "/></g></g></g><g fill="#000000" fill-opacity="1"><g transform="translate(7.205667, 17.424549)"><g><path d="M 1.640625 -2 L 1.640625 0 L 1.3125 0 L 1.3125 -0.1875 C 1.257812 -0.113281 1.191406 -0.0625 1.109375 -0.03125 C 1.023438 0 0.929688 0.015625 0.828125 0.015625 C 0.691406 0.015625 0.566406 -0.015625 0.453125 -0.078125 C 0.347656 -0.140625 0.265625 -0.222656 0.203125 -0.328125 C 0.140625 -0.441406 0.109375 -0.570312 0.109375 -0.71875 C 0.109375 -0.863281 0.140625 -0.992188 0.203125 -1.109375 C 0.265625 -1.222656 0.347656 -1.304688 0.453125 -1.359375 C 0.566406 -1.421875 0.691406 -1.453125 0.828125 -1.453125 C 0.921875 -1.453125 1.007812 -1.4375 1.09375 -1.40625 C 1.175781 -1.375 1.242188 -1.328125 1.296875 -1.265625 L 1.296875 -2 Z M 0.875 -0.265625 C 0.957031 -0.265625 1.03125 -0.28125 1.09375 -0.3125 C 1.15625 -0.351562 1.203125 -0.410156 1.234375 -0.484375 C 1.273438 -0.554688 1.296875 -0.632812 1.296875 -0.71875 C 1.296875 -0.8125 1.273438 -0.890625 1.234375 -0.953125 C 1.203125 -1.023438 1.15625 -1.078125 1.09375 -1.109375 C 1.03125 -1.148438 0.957031 -1.171875 0.875 -1.171875 C 0.789062 -1.171875 0.71875 -1.148438 0.65625 -1.109375 C 0.59375 -1.078125 0.539062 -1.023438 0.5 -0.953125 C 0.457031 -0.890625 0.4375 -0.8125 0.4375 -0.71875 C 0.4375 -0.632812 0.457031 -0.554688 0.5 -0.484375 C 0.539062 -0.410156 0.59375 -0.351562 0.65625 -0.3125 C 0.71875 -0.28125 0.789062 -0.265625 0.875 -0.265625 Z M 0.875 -0.265625 "/></g></g></g><g fill="#000000" fill-opacity="1"><g transform="translate(9.066796, 17.424549)"><g><path d="M 1.578125 -0.71875 C 1.578125 -0.6875 1.578125 -0.648438 1.578125 -0.609375 L 0.4375 -0.609375 C 0.457031 -0.503906 0.507812 -0.421875 0.59375 -0.359375 C 0.675781 -0.296875 0.78125 -0.265625 0.90625 -0.265625 C 1.0625 -0.265625 1.191406 -0.316406 1.296875 -0.421875 L 1.484375 -0.21875 C 1.421875 -0.132812 1.335938 -0.0703125 1.234375 -0.03125 C 1.140625 0 1.03125 0.015625 0.90625 0.015625 C 0.738281 0.015625 0.59375 -0.015625 0.46875 -0.078125 C 0.351562 -0.140625 0.265625 -0.226562 0.203125 -0.34375 C 0.140625 -0.457031 0.109375 -0.582031 0.109375 -0.71875 C 0.109375 -0.863281 0.140625 -0.988281 0.203125 -1.09375 C 0.265625 -1.207031 0.351562 -1.296875 0.46875 -1.359375 C 0.582031 -1.421875 0.707031 -1.453125 0.84375 -1.453125 C 0.988281 -1.453125 1.113281 -1.421875 1.21875 -1.359375 C 1.332031 -1.296875 1.421875 -1.207031 1.484375 -1.09375 C 1.546875 -0.988281 1.578125 -0.863281 1.578125 -0.71875 Z M 0.84375 -1.1875 C 0.738281 -1.1875 0.648438 -1.15625 0.578125 -1.09375 C 0.503906 -1.03125 0.457031 -0.945312 0.4375 -0.84375 L 1.25 -0.84375 C 1.238281 -0.945312 1.195312 -1.03125 1.125 -1.09375 C 1.050781 -1.15625 0.957031 -1.1875 0.84375 -1.1875 Z M 0.84375 -1.1875 "/></g></g></g><g fill="#000000" fill-opacity="1"><g transform="translate(10.751834, 17.424549)"><g><path d="M 0.546875 -1.234375 C 0.640625 -1.378906 0.8125 -1.453125 1.0625 -1.453125 L 1.0625 -1.140625 C 1.03125 -1.140625 1.003906 -1.140625 0.984375 -1.140625 C 0.847656 -1.140625 0.742188 -1.101562 0.671875 -1.03125 C 0.597656 -0.957031 0.5625 -0.847656 0.5625 -0.703125 L 0.5625 0 L 0.21875 0 L 0.21875 -1.4375 L 0.546875 -1.4375 Z M 0.546875 -1.234375 "/></g></g></g><g fill="#000000" fill-opacity="1"><g transform="translate(11.889642, 17.424549)"><g><path d="M 0.671875 0.015625 C 0.546875 0.015625 0.425781 0 0.3125 -0.03125 C 0.207031 -0.0625 0.125 -0.0976562 0.0625 -0.140625 L 0.1875 -0.40625 C 0.25 -0.351562 0.328125 -0.3125 0.421875 -0.28125 C 0.515625 -0.257812 0.601562 -0.25 0.6875 -0.25 C 0.882812 -0.25 0.984375 -0.304688 0.984375 -0.421875 C 0.984375 -0.460938 0.957031 -0.492188 0.90625 -0.515625 C 0.863281 -0.535156 0.785156 -0.554688 0.671875 -0.578125 C 0.546875 -0.597656 0.445312 -0.617188 0.375 -0.640625 C 0.300781 -0.660156 0.234375 -0.695312 0.171875 -0.75 C 0.117188 -0.8125 0.09375 -0.898438 0.09375 -1.015625 C 0.09375 -1.148438 0.148438 -1.253906 0.265625 -1.328125 C 0.378906 -1.410156 0.535156 -1.453125 0.734375 -1.453125 C 0.835938 -1.453125 0.9375 -1.441406 1.03125 -1.421875 C 1.132812 -1.398438 1.21875 -1.367188 1.28125 -1.328125 L 1.140625 -1.078125 C 1.023438 -1.148438 0.890625 -1.1875 0.734375 -1.1875 C 0.628906 -1.1875 0.550781 -1.171875 0.5 -1.140625 C 0.457031 -1.109375 0.4375 -1.070312 0.4375 -1.03125 C 0.4375 -0.96875 0.460938 -0.925781 0.515625 -0.90625 C 0.566406 -0.882812 0.648438 -0.863281 0.765625 -0.84375 C 0.878906 -0.820312 0.972656 -0.800781 1.046875 -0.78125 C 1.117188 -0.757812 1.179688 -0.71875 1.234375 -0.65625 C 1.296875 -0.601562 1.328125 -0.523438 1.328125 -0.421875 C 1.328125 -0.285156 1.265625 -0.175781 1.140625 -0.09375 C 1.023438 -0.0195312 0.867188 0.015625 0.671875 0.015625 Z M 0.671875 0.015625 "/></g></g></g><g fill="#000000" fill-opacity="1"><g transform="translate(13.284811, 17.424549)"><g><path d="M 0.875 0.015625 C 0.726562 0.015625 0.59375 -0.015625 0.46875 -0.078125 C 0.351562 -0.140625 0.265625 -0.226562 0.203125 -0.34375 C 0.140625 -0.457031 0.109375 -0.582031 0.109375 -0.71875 C 0.109375 -0.863281 0.140625 -0.988281 0.203125 -1.09375 C 0.265625 -1.207031 0.351562 -1.296875 0.46875 -1.359375 C 0.59375 -1.421875 0.726562 -1.453125 0.875 -1.453125 C 1.019531 -1.453125 1.148438 -1.421875 1.265625 -1.359375 C 1.378906 -1.296875 1.46875 -1.207031 1.53125 -1.09375 C 1.601562 -0.988281 1.640625 -0.863281 1.640625 -0.71875 C 1.640625 -0.582031 1.601562 -0.457031 1.53125 -0.34375 C 1.46875 -0.226562 1.378906 -0.140625 1.265625 -0.078125 C 1.148438 -0.015625 1.019531 0.015625 0.875 0.015625 Z M 0.875 -0.265625 C 1 -0.265625 1.097656 -0.304688 1.171875 -0.390625 C 1.253906 -0.472656 1.296875 -0.582031 1.296875 -0.71875 C 1.296875 -0.851562 1.253906 -0.960938 1.171875 -1.046875 C 1.097656 -1.128906 1 -1.171875 0.875 -1.171875 C 0.75 -1.171875 0.644531 -1.128906 0.5625 -1.046875 C 0.476562 -0.960938 0.4375 -0.851562 0.4375 -0.71875 C 0.4375 -0.582031 0.476562 -0.472656 0.5625 -0.390625 C 0.644531 -0.304688 0.75 -0.265625 0.875 -0.265625 Z M 0.875 -0.265625 "/></g></g></g><g fill="#000000" fill-opacity="1"><g transform="translate(15.032158, 17.424549)"><g><path d="M 1.046875 -1.453125 C 1.222656 -1.453125 1.363281 -1.398438 1.46875 -1.296875 C 1.582031 -1.191406 1.640625 -1.035156 1.640625 -0.828125 L 1.640625 0 L 1.3125 0 L 1.3125 -0.78125 C 1.3125 -0.90625 1.28125 -1 1.21875 -1.0625 C 1.15625 -1.132812 1.070312 -1.171875 0.96875 -1.171875 C 0.84375 -1.171875 0.742188 -1.128906 0.671875 -1.046875 C 0.597656 -0.972656 0.5625 -0.867188 0.5625 -0.734375 L 0.5625 0 L 0.21875 0 L 0.21875 -1.4375 L 0.546875 -1.4375 L 0.546875 -1.25 C 0.597656 -1.320312 0.664062 -1.375 0.75 -1.40625 C 0.832031 -1.4375 0.929688 -1.453125 1.046875 -1.453125 Z M 1.046875 -1.453125 "/></g></g></g><g fill="#000000" fill-opacity="1"><g transform="translate(16.887869, 17.424549)"><g/></g></g><g fill="#000000" fill-opacity="1"><g transform="translate(17.635571, 17.424549)"><g><path d="M 1.125 0.03125 C 0.9375 0.03125 0.765625 -0.0078125 0.609375 -0.09375 C 0.453125 -0.175781 0.332031 -0.289062 0.25 -0.4375 C 0.164062 -0.59375 0.125 -0.765625 0.125 -0.953125 C 0.125 -1.128906 0.164062 -1.289062 0.25 -1.4375 C 0.34375 -1.59375 0.460938 -1.710938 0.609375 -1.796875 C 0.765625 -1.878906 0.9375 -1.921875 1.125 -1.921875 C 1.28125 -1.921875 1.421875 -1.890625 1.546875 -1.828125 C 1.679688 -1.773438 1.789062 -1.703125 1.875 -1.609375 L 1.65625 -1.390625 C 1.519531 -1.535156 1.351562 -1.609375 1.15625 -1.609375 C 1.019531 -1.609375 0.898438 -1.578125 0.796875 -1.515625 C 0.691406 -1.460938 0.609375 -1.382812 0.546875 -1.28125 C 0.492188 -1.1875 0.46875 -1.078125 0.46875 -0.953125 C 0.46875 -0.816406 0.492188 -0.695312 0.546875 -0.59375 C 0.609375 -0.5 0.691406 -0.421875 0.796875 -0.359375 C 0.898438 -0.304688 1.019531 -0.28125 1.15625 -0.28125 C 1.351562 -0.28125 1.519531 -0.351562 1.65625 -0.5 L 1.875 -0.296875 C 1.789062 -0.191406 1.679688 -0.109375 1.546875 -0.046875 C 1.421875 0.00390625 1.28125 0.03125 1.125 0.03125 Z M 1.125 0.03125 "/></g></g></g><g fill="#000000" fill-opacity="1"><g transform="translate(19.605061, 17.424549)"><g><path d="M 0.765625 -1.453125 C 0.984375 -1.453125 1.148438 -1.398438 1.265625 -1.296875 C 1.378906 -1.203125 1.4375 -1.050781 1.4375 -0.84375 L 1.4375 0 L 1.109375 0 L 1.109375 -0.171875 C 1.066406 -0.109375 1.003906 -0.0625 0.921875 -0.03125 C 0.847656 0 0.757812 0.015625 0.65625 0.015625 C 0.550781 0.015625 0.457031 0 0.375 -0.03125 C 0.289062 -0.0703125 0.226562 -0.125 0.1875 -0.1875 C 0.144531 -0.257812 0.125 -0.332031 0.125 -0.40625 C 0.125 -0.539062 0.171875 -0.644531 0.265625 -0.71875 C 0.359375 -0.800781 0.507812 -0.84375 0.71875 -0.84375 L 1.09375 -0.84375 L 1.09375 -0.859375 C 1.09375 -0.960938 1.0625 -1.039062 1 -1.09375 C 0.9375 -1.144531 0.847656 -1.171875 0.734375 -1.171875 C 0.648438 -1.171875 0.566406 -1.160156 0.484375 -1.140625 C 0.410156 -1.117188 0.347656 -1.082031 0.296875 -1.03125 L 0.15625 -1.28125 C 0.238281 -1.34375 0.332031 -1.382812 0.4375 -1.40625 C 0.539062 -1.4375 0.648438 -1.453125 0.765625 -1.453125 Z M 0.734375 -0.234375 C 0.816406 -0.234375 0.890625 -0.25 0.953125 -0.28125 C 1.015625 -0.320312 1.0625 -0.378906 1.09375 -0.453125 L 1.09375 -0.625 L 0.75 -0.625 C 0.550781 -0.625 0.453125 -0.554688 0.453125 -0.421875 C 0.453125 -0.359375 0.472656 -0.3125 0.515625 -0.28125 C 0.566406 -0.25 0.640625 -0.234375 0.734375 -0.234375 Z M 0.734375 -0.234375 "/></g></g></g><g fill="#000000" fill-opacity="1"><g transform="translate(21.249462, 17.424549)"><g><path d="M 0.671875 0.015625 C 0.546875 0.015625 0.425781 0 0.3125 -0.03125 C 0.207031 -0.0625 0.125 -0.0976562 0.0625 -0.140625 L 0.1875 -0.40625 C 0.25 -0.351562 0.328125 -0.3125 0.421875 -0.28125 C 0.515625 -0.257812 0.601562 -0.25 0.6875 -0.25 C 0.882812 -0.25 0.984375 -0.304688 0.984375 -0.421875 C 0.984375 -0.460938 0.957031 -0.492188 0.90625 -0.515625 C 0.863281 -0.535156 0.785156 -0.554688 0.671875 -0.578125 C 0.546875 -0.597656 0.445312 -0.617188 0.375 -0.640625 C 0.300781 -0.660156 0.234375 -0.695312 0.171875 -0.75 C 0.117188 -0.8125 0.09375 -0.898438 0.09375 -1.015625 C 0.09375 -1.148438 0.148438 -1.253906 0.265625 -1.328125 C 0.378906 -1.410156 0.535156 -1.453125 0.734375 -1.453125 C 0.835938 -1.453125 0.9375 -1.441406 1.03125 -1.421875 C 1.132812 -1.398438 1.21875 -1.367188 1.28125 -1.328125 L 1.140625 -1.078125 C 1.023438 -1.148438 0.890625 -1.1875 0.734375 -1.1875 C 0.628906 -1.1875 0.550781 -1.171875 0.5 -1.140625 C 0.457031 -1.109375 0.4375 -1.070312 0.4375 -1.03125 C 0.4375 -0.96875 0.460938 -0.925781 0.515625 -0.90625 C 0.566406 -0.882812 0.648438 -0.863281 0.765625 -0.84375 C 0.878906 -0.820312 0.972656 -0.800781 1.046875 -0.78125 C 1.117188 -0.757812 1.179688 -0.71875 1.234375 -0.65625 C 1.296875 -0.601562 1.328125 -0.523438 1.328125 -0.421875 C 1.328125 -0.285156 1.265625 -0.175781 1.140625 -0.09375 C 1.023438 -0.0195312 0.867188 0.015625 0.671875 0.015625 Z M 0.671875 0.015625 "/></g></g></g><g fill="#000000" fill-opacity="1"><g transform="translate(22.64463, 17.424549)"><g><path d="M 1.09375 -0.078125 C 1.050781 -0.046875 1 -0.0195312 0.9375 0 C 0.882812 0.0078125 0.828125 0.015625 0.765625 0.015625 C 0.609375 0.015625 0.484375 -0.0234375 0.390625 -0.109375 C 0.304688 -0.191406 0.265625 -0.3125 0.265625 -0.46875 L 0.265625 -1.15625 L 0.03125 -1.15625 L 0.03125 -1.4375 L 0.265625 -1.4375 L 0.265625 -1.765625 L 0.609375 -1.765625 L 0.609375 -1.4375 L 0.984375 -1.4375 L 0.984375 -1.15625 L 0.609375 -1.15625 L 0.609375 -0.46875 C 0.609375 -0.40625 0.625 -0.351562 0.65625 -0.3125 C 0.6875 -0.28125 0.738281 -0.265625 0.8125 -0.265625 C 0.882812 -0.265625 0.945312 -0.28125 1 -0.3125 Z M 1.09375 -0.078125 "/></g></g></g><g fill="#000000" fill-opacity="1"><g transform="translate(23.793274, 17.424549)"><g><path d="M 0.546875 -1.234375 C 0.640625 -1.378906 0.8125 -1.453125 1.0625 -1.453125 L 1.0625 -1.140625 C 1.03125 -1.140625 1.003906 -1.140625 0.984375 -1.140625 C 0.847656 -1.140625 0.742188 -1.101562 0.671875 -1.03125 C 0.597656 -0.957031 0.5625 -0.847656 0.5625 -0.703125 L 0.5625 0 L 0.21875 0 L 0.21875 -1.4375 L 0.546875 -1.4375 Z M 0.546875 -1.234375 "/></g></g></g><g fill="#000000" fill-opacity="1"><g transform="translate(24.931082, 17.424549)"><g><path d="M 0.875 0.015625 C 0.726562 0.015625 0.59375 -0.015625 0.46875 -0.078125 C 0.351562 -0.140625 0.265625 -0.226562 0.203125 -0.34375 C 0.140625 -0.457031 0.109375 -0.582031 0.109375 -0.71875 C 0.109375 -0.863281 0.140625 -0.988281 0.203125 -1.09375 C 0.265625 -1.207031 0.351562 -1.296875 0.46875 -1.359375 C 0.59375 -1.421875 0.726562 -1.453125 0.875 -1.453125 C 1.019531 -1.453125 1.148438 -1.421875 1.265625 -1.359375 C 1.378906 -1.296875 1.46875 -1.207031 1.53125 -1.09375 C 1.601562 -0.988281 1.640625 -0.863281 1.640625 -0.71875 C 1.640625 -0.582031 1.601562 -0.457031 1.53125 -0.34375 C 1.46875 -0.226562 1.378906 -0.140625 1.265625 -0.078125 C 1.148438 -0.015625 1.019531 0.015625 0.875 0.015625 Z M 0.875 -0.265625 C 1 -0.265625 1.097656 -0.304688 1.171875 -0.390625 C 1.253906 -0.472656 1.296875 -0.582031 1.296875 -0.71875 C 1.296875 -0.851562 1.253906 -0.960938 1.171875 -1.046875 C 1.097656 -1.128906 1 -1.171875 0.875 -1.171875 C 0.75 -1.171875 0.644531 -1.128906 0.5625 -1.046875 C 0.476562 -0.960938 0.4375 -0.851562 0.4375 -0.71875 C 0.4375 -0.582031 0.476562 -0.472656 0.5625 -0.390625 C 0.644531 -0.304688 0.75 -0.265625 0.875 -0.265625 Z M 0.875 -0.265625 "/></g></g></g><g fill="#004aad" fill-opacity="1"><g transform="translate(9.580076, 19.185838)"><g><path d="M 0.671875 -0.5625 C 0.671875 -0.519531 0.660156 -0.476562 0.640625 -0.4375 C 0.617188 -0.394531 0.582031 -0.363281 0.53125 -0.34375 C 0.488281 -0.320312 0.4375 -0.3125 0.375 -0.3125 L 0.234375 -0.3125 L 0.234375 0 L 0.078125 0 L 0.078125 -0.8125 L 0.375 -0.8125 C 0.4375 -0.8125 0.488281 -0.800781 0.53125 -0.78125 C 0.582031 -0.757812 0.617188 -0.726562 0.640625 -0.6875 C 0.660156 -0.644531 0.671875 -0.601562 0.671875 -0.5625 Z M 0.375 -0.4375 C 0.414062 -0.4375 0.445312 -0.445312 0.46875 -0.46875 C 0.488281 -0.488281 0.5 -0.519531 0.5 -0.5625 C 0.5 -0.632812 0.457031 -0.671875 0.375 -0.671875 L 0.234375 -0.671875 L 0.234375 -0.4375 Z M 0.375 -0.4375 "/></g></g></g><g fill="#004aad" fill-opacity="1"><g transform="translate(10.792463, 19.185838)"><g><path d="M 0.359375 0.015625 C 0.304688 0.015625 0.253906 0.00390625 0.203125 -0.015625 C 0.160156 -0.0351562 0.125 -0.0625 0.09375 -0.09375 C 0.0703125 -0.132812 0.0625 -0.179688 0.0625 -0.234375 L 0.234375 -0.234375 C 0.234375 -0.203125 0.242188 -0.175781 0.265625 -0.15625 C 0.285156 -0.132812 0.316406 -0.125 0.359375 -0.125 C 0.390625 -0.125 0.414062 -0.128906 0.4375 -0.140625 C 0.457031 -0.160156 0.46875 -0.1875 0.46875 -0.21875 C 0.46875 -0.25 0.460938 -0.269531 0.453125 -0.28125 C 0.441406 -0.300781 0.421875 -0.3125 0.390625 -0.3125 C 0.367188 -0.320312 0.34375 -0.332031 0.3125 -0.34375 C 0.257812 -0.363281 0.210938 -0.378906 0.171875 -0.390625 C 0.140625 -0.410156 0.113281 -0.429688 0.09375 -0.453125 C 0.0703125 -0.484375 0.0625 -0.523438 0.0625 -0.578125 C 0.0625 -0.628906 0.0703125 -0.671875 0.09375 -0.703125 C 0.125 -0.742188 0.160156 -0.769531 0.203125 -0.78125 C 0.242188 -0.800781 0.289062 -0.8125 0.34375 -0.8125 C 0.425781 -0.8125 0.492188 -0.789062 0.546875 -0.75 C 0.597656 -0.71875 0.628906 -0.664062 0.640625 -0.59375 L 0.453125 -0.59375 C 0.453125 -0.613281 0.441406 -0.632812 0.421875 -0.65625 C 0.398438 -0.675781 0.367188 -0.6875 0.328125 -0.6875 C 0.296875 -0.6875 0.269531 -0.675781 0.25 -0.65625 C 0.238281 -0.644531 0.234375 -0.625 0.234375 -0.59375 C 0.234375 -0.570312 0.238281 -0.550781 0.25 -0.53125 C 0.257812 -0.519531 0.273438 -0.507812 0.296875 -0.5 C 0.328125 -0.488281 0.359375 -0.476562 0.390625 -0.46875 C 0.441406 -0.457031 0.484375 -0.441406 0.515625 -0.421875 C 0.554688 -0.410156 0.585938 -0.390625 0.609375 -0.359375 C 0.628906 -0.328125 0.640625 -0.285156 0.640625 -0.234375 C 0.640625 -0.191406 0.628906 -0.148438 0.609375 -0.109375 C 0.585938 -0.078125 0.554688 -0.046875 0.515625 -0.015625 C 0.472656 0.00390625 0.421875 0.015625 0.359375 0.015625 Z M 0.359375 0.015625 "/></g></g></g><g fill="#004aad" fill-opacity="1"><g transform="translate(12.006011, 19.185838)"><g><path d="M 0.234375 -0.8125 L 0.234375 0 L 0.078125 0 L 0.078125 -0.8125 Z M 0.234375 -0.8125 "/></g></g></g><g fill="#004aad" fill-opacity="1"><g transform="translate(12.835172, 19.185838)"><g><path d="M 0.046875 -0.40625 C 0.046875 -0.488281 0.0625 -0.5625 0.09375 -0.625 C 0.125 -0.6875 0.171875 -0.734375 0.234375 -0.765625 C 0.296875 -0.796875 0.367188 -0.8125 0.453125 -0.8125 C 0.535156 -0.8125 0.609375 -0.785156 0.671875 -0.734375 C 0.742188 -0.691406 0.796875 -0.632812 0.828125 -0.5625 L 0.640625 -0.5625 C 0.617188 -0.59375 0.59375 -0.617188 0.5625 -0.640625 C 0.53125 -0.660156 0.492188 -0.671875 0.453125 -0.671875 C 0.398438 -0.671875 0.351562 -0.660156 0.3125 -0.640625 C 0.28125 -0.617188 0.253906 -0.585938 0.234375 -0.546875 C 0.210938 -0.503906 0.203125 -0.457031 0.203125 -0.40625 C 0.203125 -0.351562 0.210938 -0.304688 0.234375 -0.265625 C 0.253906 -0.222656 0.28125 -0.191406 0.3125 -0.171875 C 0.351562 -0.148438 0.398438 -0.140625 0.453125 -0.140625 C 0.492188 -0.140625 0.53125 -0.148438 0.5625 -0.171875 C 0.59375 -0.191406 0.617188 -0.21875 0.640625 -0.25 L 0.828125 -0.25 C 0.796875 -0.164062 0.75 -0.101562 0.6875 -0.0625 C 0.625 -0.0195312 0.546875 0 0.453125 0 C 0.367188 0 0.296875 -0.015625 0.234375 -0.046875 C 0.171875 -0.078125 0.125 -0.125 0.09375 -0.1875 C 0.0625 -0.25 0.046875 -0.320312 0.046875 -0.40625 Z M 0.046875 -0.40625 "/></g></g></g><g fill="#004aad" fill-opacity="1"><g transform="translate(14.233365, 19.185838)"><g><path d="M 0.453125 0.015625 C 0.378906 0.015625 0.3125 0 0.25 -0.03125 C 0.1875 -0.0703125 0.132812 -0.125 0.09375 -0.1875 C 0.0625 -0.25 0.046875 -0.320312 0.046875 -0.40625 C 0.046875 -0.488281 0.0625 -0.5625 0.09375 -0.625 C 0.132812 -0.6875 0.1875 -0.734375 0.25 -0.765625 C 0.3125 -0.796875 0.378906 -0.8125 0.453125 -0.8125 C 0.523438 -0.8125 0.59375 -0.796875 0.65625 -0.765625 C 0.71875 -0.734375 0.769531 -0.6875 0.8125 -0.625 C 0.851562 -0.5625 0.875 -0.488281 0.875 -0.40625 C 0.875 -0.320312 0.851562 -0.25 0.8125 -0.1875 C 0.769531 -0.125 0.71875 -0.0703125 0.65625 -0.03125 C 0.59375 0 0.523438 0.015625 0.453125 0.015625 Z M 0.453125 -0.140625 C 0.503906 -0.140625 0.546875 -0.148438 0.578125 -0.171875 C 0.617188 -0.191406 0.648438 -0.222656 0.671875 -0.265625 C 0.691406 -0.304688 0.703125 -0.351562 0.703125 -0.40625 C 0.703125 -0.457031 0.691406 -0.503906 0.671875 -0.546875 C 0.648438 -0.585938 0.617188 -0.617188 0.578125 -0.640625 C 0.546875 -0.660156 0.503906 -0.671875 0.453125 -0.671875 C 0.398438 -0.671875 0.351562 -0.660156 0.3125 -0.640625 C 0.28125 -0.617188 0.253906 -0.585938 0.234375 -0.546875 C 0.210938 -0.503906 0.203125 -0.457031 0.203125 -0.40625 C 0.203125 -0.351562 0.210938 -0.304688 0.234375 -0.265625 C 0.253906 -0.222656 0.28125 -0.191406 0.3125 -0.171875 C 0.351562 -0.148438 0.398438 -0.140625 0.453125 -0.140625 Z M 0.578125 -0.984375 L 0.3125 -0.859375 L 0.3125 -0.96875 L 0.578125 -1.109375 Z M 0.578125 -0.984375 "/></g></g></g><g fill="#004aad" fill-opacity="1"><g transform="translate(15.651299, 19.185838)"><g><path d="M 0.234375 -0.125 L 0.5 -0.125 L 0.5 0 L 0.078125 0 L 0.078125 -0.8125 L 0.234375 -0.8125 Z M 0.234375 -0.125 "/></g></g></g><g fill="#004aad" fill-opacity="1"><g transform="translate(16.690654, 19.185838)"><g><path d="M 0.453125 0.015625 C 0.378906 0.015625 0.3125 0 0.25 -0.03125 C 0.1875 -0.0703125 0.132812 -0.125 0.09375 -0.1875 C 0.0625 -0.25 0.046875 -0.320312 0.046875 -0.40625 C 0.046875 -0.488281 0.0625 -0.5625 0.09375 -0.625 C 0.132812 -0.6875 0.1875 -0.734375 0.25 -0.765625 C 0.3125 -0.796875 0.378906 -0.8125 0.453125 -0.8125 C 0.523438 -0.8125 0.59375 -0.796875 0.65625 -0.765625 C 0.71875 -0.734375 0.769531 -0.6875 0.8125 -0.625 C 0.851562 -0.5625 0.875 -0.488281 0.875 -0.40625 C 0.875 -0.320312 0.851562 -0.25 0.8125 -0.1875 C 0.769531 -0.125 0.71875 -0.0703125 0.65625 -0.03125 C 0.59375 0 0.523438 0.015625 0.453125 0.015625 Z M 0.453125 -0.140625 C 0.503906 -0.140625 0.546875 -0.148438 0.578125 -0.171875 C 0.617188 -0.191406 0.648438 -0.222656 0.671875 -0.265625 C 0.691406 -0.304688 0.703125 -0.351562 0.703125 -0.40625 C 0.703125 -0.457031 0.691406 -0.503906 0.671875 -0.546875 C 0.648438 -0.585938 0.617188 -0.617188 0.578125 -0.640625 C 0.546875 -0.660156 0.503906 -0.671875 0.453125 -0.671875 C 0.398438 -0.671875 0.351562 -0.660156 0.3125 -0.640625 C 0.28125 -0.617188 0.253906 -0.585938 0.234375 -0.546875 C 0.210938 -0.503906 0.203125 -0.457031 0.203125 -0.40625 C 0.203125 -0.351562 0.210938 -0.304688 0.234375 -0.265625 C 0.253906 -0.222656 0.28125 -0.191406 0.3125 -0.171875 C 0.351562 -0.148438 0.398438 -0.140625 0.453125 -0.140625 Z M 0.453125 -0.140625 "/></g></g></g><g fill="#004aad" fill-opacity="1"><g transform="translate(18.108588, 19.185838)"><g><path d="M 0.640625 -0.5625 C 0.617188 -0.59375 0.59375 -0.617188 0.5625 -0.640625 C 0.53125 -0.660156 0.492188 -0.671875 0.453125 -0.671875 C 0.398438 -0.671875 0.351562 -0.660156 0.3125 -0.640625 C 0.28125 -0.617188 0.253906 -0.585938 0.234375 -0.546875 C 0.210938 -0.503906 0.203125 -0.457031 0.203125 -0.40625 C 0.203125 -0.351562 0.210938 -0.304688 0.234375 -0.265625 C 0.253906 -0.222656 0.285156 -0.191406 0.328125 -0.171875 C 0.367188 -0.148438 0.410156 -0.140625 0.453125 -0.140625 C 0.515625 -0.140625 0.566406 -0.15625 0.609375 -0.1875 C 0.648438 -0.21875 0.675781 -0.265625 0.6875 -0.328125 L 0.40625 -0.328125 L 0.40625 -0.453125 L 0.84375 -0.453125 L 0.84375 -0.3125 C 0.832031 -0.25 0.804688 -0.191406 0.765625 -0.140625 C 0.734375 -0.0976562 0.691406 -0.0625 0.640625 -0.03125 C 0.585938 -0.0078125 0.523438 0 0.453125 0 C 0.378906 0 0.304688 -0.015625 0.234375 -0.046875 C 0.171875 -0.078125 0.125 -0.125 0.09375 -0.1875 C 0.0625 -0.25 0.046875 -0.320312 0.046875 -0.40625 C 0.046875 -0.488281 0.0625 -0.5625 0.09375 -0.625 C 0.125 -0.6875 0.171875 -0.734375 0.234375 -0.765625 C 0.304688 -0.796875 0.378906 -0.8125 0.453125 -0.8125 C 0.546875 -0.8125 0.625 -0.789062 0.6875 -0.75 C 0.757812 -0.707031 0.804688 -0.644531 0.828125 -0.5625 Z M 0.640625 -0.5625 "/></g></g></g><g fill="#004aad" fill-opacity="1"><g transform="translate(19.506781, 19.185838)"><g><path d="M 0.453125 0.015625 C 0.378906 0.015625 0.3125 0 0.25 -0.03125 C 0.1875 -0.0703125 0.132812 -0.125 0.09375 -0.1875 C 0.0625 -0.25 0.046875 -0.320312 0.046875 -0.40625 C 0.046875 -0.488281 0.0625 -0.5625 0.09375 -0.625 C 0.132812 -0.6875 0.1875 -0.734375 0.25 -0.765625 C 0.3125 -0.796875 0.378906 -0.8125 0.453125 -0.8125 C 0.523438 -0.8125 0.59375 -0.796875 0.65625 -0.765625 C 0.71875 -0.734375 0.769531 -0.6875 0.8125 -0.625 C 0.851562 -0.5625 0.875 -0.488281 0.875 -0.40625 C 0.875 -0.320312 0.851562 -0.25 0.8125 -0.1875 C 0.769531 -0.125 0.71875 -0.0703125 0.65625 -0.03125 C 0.59375 0 0.523438 0.015625 0.453125 0.015625 Z M 0.453125 -0.140625 C 0.503906 -0.140625 0.546875 -0.148438 0.578125 -0.171875 C 0.617188 -0.191406 0.648438 -0.222656 0.671875 -0.265625 C 0.691406 -0.304688 0.703125 -0.351562 0.703125 -0.40625 C 0.703125 -0.457031 0.691406 -0.503906 0.671875 -0.546875 C 0.648438 -0.585938 0.617188 -0.617188 0.578125 -0.640625 C 0.546875 -0.660156 0.503906 -0.671875 0.453125 -0.671875 C 0.398438 -0.671875 0.351562 -0.660156 0.3125 -0.640625 C 0.28125 -0.617188 0.253906 -0.585938 0.234375 -0.546875 C 0.210938 -0.503906 0.203125 -0.457031 0.203125 -0.40625 C 0.203125 -0.351562 0.210938 -0.304688 0.234375 -0.265625 C 0.253906 -0.222656 0.28125 -0.191406 0.3125 -0.171875 C 0.351562 -0.148438 0.398438 -0.140625 0.453125 -0.140625 Z M 0.453125 -0.140625 "/></g></g></g></svg>